<?xml version="1.0" encoding="utf-8"?>
<!-- Generator: Adobe Illustrator 15.0.0, SVG Export Plug-In . SVG Version: 6.00 Build 0)  -->
<!DOCTYPE svg PUBLIC "-//W3C//DTD SVG 1.1//EN" "http://www.w3.org/Graphics/SVG/1.1/DTD/svg11.dtd" [
	<!ENTITY ns_extend "http://ns.adobe.com/Extensibility/1.0/">
	<!ENTITY ns_ai "http://ns.adobe.com/AdobeIllustrator/10.0/">
	<!ENTITY ns_graphs "http://ns.adobe.com/Graphs/1.0/">
	<!ENTITY ns_vars "http://ns.adobe.com/Variables/1.0/">
	<!ENTITY ns_imrep "http://ns.adobe.com/ImageReplacement/1.0/">
	<!ENTITY ns_sfw "http://ns.adobe.com/SaveForWeb/1.0/">
	<!ENTITY ns_custom "http://ns.adobe.com/GenericCustomNamespace/1.0/">
	<!ENTITY ns_adobe_xpath "http://ns.adobe.com/XPath/1.0/">
]>
<svg version="1.1" id="Calque_1" xmlns:x="&ns_extend;" xmlns:i="&ns_ai;" xmlns:graph="&ns_graphs;"
	 xmlns="http://www.w3.org/2000/svg" xmlns:xlink="http://www.w3.org/1999/xlink" x="0px" y="0px" width="21.999px"
	 height="21.999px" viewBox="17.5 17.5 21.999 21.999" enable-background="new 17.5 17.5 21.999 21.999" xml:space="preserve">
<metadata>
	<sfw  xmlns="&ns_sfw;">
		<slices></slices>
		<sliceSourceBounds  x="181" y="157.001" width="21.999" height="21.999" bottomLeftOrigin="true"></sliceSourceBounds>
	</sfw>
</metadata>
<g>
	<polygon fill="#FFB300" points="32.454,19.679 38.353,19.679 38.27,20.43 35.237,22.432 33.513,21.32 32.454,20.32 	"/>
	<rect x="32.454" y="25.688" fill="#FFB300" width="5.815" height="0.89"/>
	<g>
		<g>
			<path d="M36.75,28.07h-0.14h-0.703h-1.01h-0.722h-1.026h-0.44v0.43c0,0.004,0.002,0.008,0.002,0.012v8.754
				c0,0.518,0.178,0.994,0.474,1.374h-13.45c-0.758,0-1.375-0.616-1.375-1.374V18.968l0.787,0.787c0.168,0.168,0.439,0.168,0.607,0
				l1.218-1.218l1.218,1.218c0.167,0.168,0.44,0.168,0.607,0l1.218-1.218l1.217,1.218c0.169,0.168,0.44,0.168,0.607,0l1.218-1.218
				l1.218,1.218c0.168,0.168,0.44,0.168,0.606,0l1.218-1.218c0.191-0.216,0.368-0.445,0.587-0.629l-0.283-0.283
				c-0.168-0.167-0.44-0.167-0.608,0l-1.216,1.218l-1.219-1.218c-0.167-0.167-0.44-0.167-0.607,0l-1.218,1.218l-1.217-1.218
				c-0.169-0.167-0.44-0.167-0.607,0l-1.218,1.218l-1.217-1.218c-0.168-0.167-0.439-0.167-0.607,0l-1.218,1.218l-1.217-1.218
				c-0.167-0.166-0.437-0.167-0.605-0.002c-0.089,0.088-0.131,0.203-0.128,0.318v19.324c0,1.231,1.002,2.233,2.233,2.233h15.21
				c0,0,0,0,0.001,0c1.231,0,2.234-1.002,2.234-2.233V28.5C37.179,28.263,36.987,28.07,36.75,28.07z M36.32,37.266
				c0,0.758-0.617,1.374-1.375,1.374c-0.759,0-1.375-0.616-1.375-1.374V28.93h2.75V37.266z"/>
			<path d="M25.143,27.296c-0.427,0-0.773-0.297-0.773-0.662c0-0.238-0.192-0.43-0.43-0.43s-0.43,0.191-0.43,0.43
				c0,0.7,0.511,1.291,1.203,1.467v0.351c0,0.238,0.192,0.43,0.43,0.43s0.43-0.191,0.43-0.43v-0.351
				c0.692-0.176,1.203-0.767,1.203-1.467c0-0.84-0.732-1.521-1.633-1.521c-0.427,0-0.773-0.297-0.773-0.662s0.348-0.662,0.773-0.662
				s0.773,0.297,0.773,0.662c0,0.237,0.192,0.43,0.43,0.43s0.43-0.192,0.43-0.43c0-0.701-0.511-1.292-1.203-1.468V22.69
				c0-0.237-0.192-0.43-0.43-0.43s-0.43,0.192-0.43,0.43v0.291c-0.692,0.176-1.203,0.768-1.203,1.468
				c0,0.84,0.732,1.521,1.633,1.521c0.426,0,0.773,0.298,0.773,0.663C25.916,26.997,25.568,27.296,25.143,27.296z"/>
			<path d="M28.622,25.11c-0.237,0-0.431,0.193-0.431,0.43c0,0.239,0.193,0.43,0.431,0.43h0.837c0.144,0,0.266-0.075,0.344-0.185
				c-0.152-0.215-0.288-0.44-0.406-0.675H28.622L28.622,25.11z"/>
			<path d="M22.093,25.54c0-0.236-0.192-0.43-0.43-0.43h-0.838c-0.236,0-0.43,0.193-0.43,0.43c0,0.239,0.192,0.43,0.43,0.43h0.838
				C21.9,25.972,22.093,25.779,22.093,25.54z"/>
			<path d="M29.889,25.54c0-0.236-0.191-0.43-0.43-0.43h-0.837c-0.237,0-0.431,0.193-0.431,0.43c0,0.239,0.193,0.43,0.431,0.43
				h0.837C29.696,25.972,29.889,25.779,29.889,25.54z"/>
			<path d="M29.676,29.889H22.87c-0.238,0-0.43,0.19-0.43,0.43c0,0.237,0.191,0.43,0.43,0.43h6.806c0.238,0,0.43-0.192,0.43-0.43
				C30.105,30.079,29.914,29.889,29.676,29.889z"/>
			<path d="M20.911,30.014c-0.08-0.08-0.189-0.125-0.304-0.125c-0.113,0-0.223,0.044-0.303,0.125c-0.08,0.08-0.126,0.19-0.126,0.303
				c0,0.113,0.046,0.224,0.126,0.304s0.189,0.126,0.303,0.126c0.114,0,0.224-0.046,0.304-0.126c0.08-0.081,0.126-0.19,0.126-0.304
				C21.037,30.204,20.992,30.094,20.911,30.014z"/>
			<path d="M29.676,32.723H22.87c-0.238,0-0.43,0.192-0.43,0.43c0,0.238,0.191,0.43,0.43,0.43h6.806c0.238,0,0.43-0.19,0.43-0.43
				C30.105,32.915,29.914,32.723,29.676,32.723z"/>
			<path d="M20.911,32.849c-0.08-0.079-0.189-0.126-0.304-0.126c-0.113,0-0.223,0.046-0.303,0.126
				c-0.08,0.079-0.126,0.191-0.126,0.303c0,0.114,0.046,0.224,0.126,0.304c0.08,0.079,0.189,0.126,0.303,0.126
				c0.114,0,0.224-0.047,0.304-0.126c0.08-0.08,0.126-0.189,0.126-0.304C21.037,33.04,20.992,32.928,20.911,32.849z"/>
			<path d="M29.676,35.559H22.87c-0.238,0-0.43,0.192-0.43,0.43c0,0.238,0.191,0.431,0.43,0.431h6.806
				c0.238,0,0.43-0.191,0.43-0.431C30.105,35.751,29.914,35.559,29.676,35.559z"/>
			<path d="M20.608,35.559c-0.112,0-0.224,0.046-0.304,0.127c-0.079,0.08-0.125,0.189-0.125,0.303c0,0.112,0.046,0.224,0.125,0.304
				c0.08,0.079,0.191,0.125,0.304,0.125c0.113,0,0.225-0.046,0.304-0.125c0.08-0.08,0.126-0.191,0.126-0.304
				c0-0.113-0.046-0.223-0.126-0.303C20.831,35.605,20.722,35.559,20.608,35.559z"/>
		</g>
		<g>
			<g>
				<g>
					<path d="M39.461,27.226h-8.27v-0.512h0.729v-1.677c0-0.599,0.308-1.153,0.824-1.482l1.754-1.123l-1.754-1.121
						c-0.516-0.331-0.824-0.886-0.824-1.484v-1.678h-0.729v-0.511h8.27v0.511h-0.729v1.678c0,0.598-0.308,1.153-0.824,1.482
						l-1.754,1.122l1.754,1.123c0.516,0.33,0.824,0.885,0.824,1.482v1.678h0.729V27.226L39.461,27.226z M32.825,26.716h5.001v-1.678
						c0-0.297-0.154-0.573-0.414-0.738l-2.087-1.337L33.238,24.3c-0.259,0.165-0.414,0.441-0.414,0.738L32.825,26.716L32.825,26.716
						z M33.238,20.564l2.088,1.336l2.087-1.336c0.26-0.166,0.415-0.442,0.415-0.738v-1.678h-5.003v1.678
						C32.825,20.122,32.979,20.398,33.238,20.564L33.238,20.564z"/>
				</g>
			</g>
			<g>
				<path d="M39.107,18.286h-7.563c-0.216,0-0.392-0.176-0.392-0.394c0-0.217,0.176-0.393,0.392-0.393h7.563
					c0.216,0,0.392,0.176,0.392,0.393C39.499,18.11,39.323,18.286,39.107,18.286z"/>
			</g>
			<g>
				<path d="M39.107,27.364h-7.563c-0.216,0-0.392-0.177-0.392-0.394s0.176-0.393,0.392-0.393h7.563
					c0.216,0,0.392,0.176,0.392,0.393S39.323,27.364,39.107,27.364z"/>
			</g>
		</g>
	</g>
</g>
</svg>
