<?xml version="1.0" encoding="utf-8"?>
<!-- Generator: Adobe Illustrator 15.0.0, SVG Export Plug-In . SVG Version: 6.00 Build 0)  -->
<!DOCTYPE svg PUBLIC "-//W3C//DTD SVG 1.1//EN" "http://www.w3.org/Graphics/SVG/1.1/DTD/svg11.dtd" [
	<!ENTITY ns_extend "http://ns.adobe.com/Extensibility/1.0/">
	<!ENTITY ns_ai "http://ns.adobe.com/AdobeIllustrator/10.0/">
	<!ENTITY ns_graphs "http://ns.adobe.com/Graphs/1.0/">
	<!ENTITY ns_vars "http://ns.adobe.com/Variables/1.0/">
	<!ENTITY ns_imrep "http://ns.adobe.com/ImageReplacement/1.0/">
	<!ENTITY ns_sfw "http://ns.adobe.com/SaveForWeb/1.0/">
	<!ENTITY ns_custom "http://ns.adobe.com/GenericCustomNamespace/1.0/">
	<!ENTITY ns_adobe_xpath "http://ns.adobe.com/XPath/1.0/">
]>
<svg version="1.1" id="Calque_1" xmlns:x="&ns_extend;" xmlns:i="&ns_ai;" xmlns:graph="&ns_graphs;"
	 xmlns="http://www.w3.org/2000/svg" xmlns:xlink="http://www.w3.org/1999/xlink" x="0px" y="0px" width="32px" height="32px"
	 viewBox="12.5 12.5 32 32" enable-background="new 12.5 12.5 32 32" xml:space="preserve">
<metadata>
	<sfw  xmlns="&ns_sfw;">
		<slices></slices>
		<sliceSourceBounds  x="164" y="164.854" width="32" height="30.291" bottomLeftOrigin="true"></sliceSourceBounds>
	</sfw>
</metadata>
<g>
	<path d="M16.287,31.461l-0.191-1.072l-1.586-8.911l-0.292-1.635h1.661h18.999h1.579l-0.163,1.295
		c0.525,0.033,1.036,0.114,1.526,0.242l0.667-5.253l0.154-1.222l1.231,0.006l3.857,0.019c0.419,0,0.768-0.345,0.769-0.77
		c0.001-0.21-0.076-0.399-0.225-0.546c-0.149-0.151-0.337-0.229-0.546-0.23l-5.78-0.029c-0.383,0.001-0.707,0.292-0.756,0.678
		l-0.381,3.026l-0.154,1.217h-1.226l-22.149,0.002c-0.049,0-0.092,0.004-0.136,0.011c-0.204,0.036-0.383,0.149-0.504,0.322
		c-0.121,0.171-0.167,0.378-0.131,0.583l2.343,13.13c0.062,0.361,0.356,0.627,0.715,0.651l10.357,0.685V33.04
		c0-0.322,0.047-0.632,0.119-0.931l-8.674-0.577L16.287,31.461z"/>
	<path d="M19.729,40.026c-0.528,0-0.958,0.428-0.958,0.954c0,0.528,0.43,0.957,0.958,0.957c0.526,0,0.955-0.429,0.955-0.957
		C20.683,40.454,20.254,40.026,19.729,40.026z"/>
	<path d="M30.591,28c0-2.537,2.329-4.601,5.194-4.601c0.074,0,0.146,0.007,0.22,0.01c0.533,0.02,1.045,0.11,1.524,0.263
		c2.008,0.637,3.449,2.333,3.449,4.329v1.511h1.144V28c0-2.57-1.873-4.751-4.446-5.482c-0.486-0.139-0.998-0.218-1.527-0.246
		c-0.121-0.006-0.24-0.016-0.363-0.016c-3.493,0-6.338,2.577-6.338,5.744v1.511h1.144V28z"/>
	<path fill="#FFB300" d="M29.935,42.502h11.7c0.949,0,1.722-0.771,1.722-1.721V33.04c0-0.836-0.601-1.548-1.43-1.69l-0.828-0.145
		h-4.525h-1.558h-4.541l-0.832,0.145c-0.552,0.095-0.999,0.447-1.238,0.916c-0.12,0.234-0.191,0.495-0.191,0.773v0.771v6.971
		C28.214,41.73,28.986,42.502,29.935,42.502z M33.849,34.931c0-0.261,0.054-0.509,0.147-0.736c0.291-0.702,0.982-1.199,1.789-1.199
		c0.191,0,0.374,0.037,0.55,0.09c0.797,0.238,1.385,0.972,1.385,1.846v2.376c0,1.068-0.868,1.937-1.935,1.937
		c-1.067,0-1.937-0.868-1.937-1.937V34.931z M32.9,41.931c-0.019,0.001-0.036,0.007-0.055,0.007c-0.021,0-0.037-0.006-0.057-0.007
		H32.9z"/>
	<path d="M29.935,43.646h11.7c1.58,0,2.865-1.285,2.865-2.863V33.04c0-1.409-1.033-2.584-2.378-2.816v-0.712h-1.143v0.551h-4.261
		h-1.557h-4.571v-0.551h-1.143v0.712c-1.061,0.183-1.917,0.956-2.236,1.964c-0.085,0.271-0.141,0.555-0.141,0.853v0.696v7.046
		C27.071,42.36,28.355,43.646,29.935,43.646z M28.214,33.812V33.04c0-0.279,0.071-0.54,0.191-0.774
		c0.239-0.469,0.686-0.821,1.238-0.916l0.832-0.145h4.541h1.558h4.524l0.829,0.145c0.828,0.143,1.43,0.854,1.43,1.69v7.742
		c0,0.948-0.772,1.721-1.722,1.721h-11.7c-0.948,0-1.721-0.772-1.721-1.721V33.812z"/>
	<path d="M32.9,41.931h-0.111c0.02,0.001,0.037,0.007,0.057,0.007S32.882,41.932,32.9,41.931z"/>
	<path d="M35.785,39.243c1.066,0,1.935-0.868,1.935-1.936v-2.377c0-0.874-0.588-1.607-1.385-1.846
		c-0.176-0.053-0.358-0.088-0.55-0.088c-0.807,0-1.498,0.495-1.789,1.198c-0.094,0.227-0.147,0.476-0.147,0.736v2.376
		C33.849,38.375,34.718,39.243,35.785,39.243z M34.991,34.931c0-0.269,0.137-0.508,0.344-0.65c0.129-0.09,0.282-0.142,0.45-0.142
		c0.048,0,0.094,0.006,0.14,0.014c0.37,0.065,0.652,0.39,0.652,0.777v2.377c0,0.438-0.354,0.794-0.792,0.794
		s-0.794-0.355-0.794-0.794V34.931z"/>
</g>
</svg>
