<?xml version="1.0" encoding="utf-8"?>
<!-- Generator: Adobe Illustrator 15.0.0, SVG Export Plug-In . SVG Version: 6.00 Build 0)  -->
<!DOCTYPE svg PUBLIC "-//W3C//DTD SVG 1.1//EN" "http://www.w3.org/Graphics/SVG/1.1/DTD/svg11.dtd" [
	<!ENTITY ns_extend "http://ns.adobe.com/Extensibility/1.0/">
	<!ENTITY ns_ai "http://ns.adobe.com/AdobeIllustrator/10.0/">
	<!ENTITY ns_graphs "http://ns.adobe.com/Graphs/1.0/">
	<!ENTITY ns_vars "http://ns.adobe.com/Variables/1.0/">
	<!ENTITY ns_imrep "http://ns.adobe.com/ImageReplacement/1.0/">
	<!ENTITY ns_sfw "http://ns.adobe.com/SaveForWeb/1.0/">
	<!ENTITY ns_custom "http://ns.adobe.com/GenericCustomNamespace/1.0/">
	<!ENTITY ns_adobe_xpath "http://ns.adobe.com/XPath/1.0/">
]>
<svg version="1.1" id="Capa_1" xmlns:x="&ns_extend;" xmlns:i="&ns_ai;" xmlns:graph="&ns_graphs;"
	 xmlns="http://www.w3.org/2000/svg" xmlns:xlink="http://www.w3.org/1999/xlink" x="0px" y="0px" width="32px" height="32px"
	 viewBox="12.5 12.5 32 32" enable-background="new 12.5 12.5 32 32" xml:space="preserve">
<metadata>
	<sfw  xmlns="&ns_sfw;">
		<slices></slices>
		<sliceSourceBounds  x="163.5" y="164.5" width="32" height="32" bottomLeftOrigin="true"></sliceSourceBounds>
	</sfw>
</metadata>
<circle fill="#FFB300" cx="21.379" cy="22.027" r="6.863"/>
<g>
	<g>
		<path d="M43.375,25.047h-4c-0.346,0-0.625,0.28-0.625,0.625v8.87c0,0.346,0.279,0.625,0.625,0.625
			c0.345,0,0.625-0.279,0.625-0.625v-8.245h2.75V42.75h-1.374H40v-9.234c0-0.346-0.28-0.625-0.625-0.625
			c-0.346,0-0.625,0.279-0.625,0.625v9.234h-1.251V29.813c0-0.345-0.279-0.625-0.625-0.625h-4c-0.346,0-0.625,0.28-0.625,0.625
			V42.75H31v-8.563c0-0.345-0.28-0.625-0.625-0.625h-4c-0.345,0-0.625,0.28-0.625,0.625v8.563H24.5v-4.977
			c0-0.346-0.28-0.626-0.625-0.626h-4c-0.345,0-0.625,0.28-0.625,0.626v4.977h-5.375c-0.344,0-0.625-0.28-0.625-0.626V13.875
			c0-0.345,0.281-0.625,0.625-0.625h16.124v4.125c0,1.034,0.841,1.875,1.875,1.875h4.125v7.688c0,0.345,0.28,0.625,0.625,0.625
			c0.346,0,0.626-0.28,0.626-0.625v-8.312c0-0.166-0.066-0.325-0.183-0.442l-6-6C30.948,12.066,30.789,12,30.623,12H13.875
			C12.841,12,12,12.841,12,13.875v28.25C12,43.158,12.841,44,13.875,44h29.5C43.72,44,44,43.72,44,43.375V25.672
			C44,25.327,43.72,25.047,43.375,25.047z M31.249,14.134L35.116,18h-3.242c-0.345,0-0.625-0.281-0.625-0.625V14.134z M23.25,42.75
			H20.5v-4.351h2.75V42.75z M29.75,42.75H27v-7.938h2.75V42.75z M36.25,42.75H33.5V30.438h2.75V42.75z"/>
	</g>
</g>
<g>
	<g>
		<path d="M27.938,30.391H16c-0.345,0-0.625,0.28-0.625,0.625c0,0.346,0.28,0.626,0.625,0.626h11.938
			c0.345,0,0.625-0.28,0.625-0.626S28.283,30.391,27.938,30.391z"/>
	</g>
</g>
<g>
	<g>
		<path d="M20,33.406h-4c-0.345,0-0.625,0.28-0.625,0.625c0,0.346,0.28,0.625,0.625,0.625h4c0.345,0,0.625-0.279,0.625-0.625
			S20.345,33.406,20,33.406z"/>
	</g>
</g>
<g>
	<g>
		<path d="M21.38,21.358c-0.62,0-1.125-0.432-1.125-0.963c0-0.531,0.504-0.964,1.125-0.964s1.125,0.432,1.125,0.964
			c0,0.345,0.28,0.625,0.625,0.625c0.345,0,0.625-0.28,0.625-0.625c0-1.019-0.743-1.878-1.75-2.135v-0.424
			c0-0.345-0.28-0.625-0.625-0.625s-0.625,0.28-0.625,0.625v0.424c-1.007,0.256-1.75,1.116-1.75,2.135
			c0,1.22,1.066,2.213,2.375,2.213c0.62,0,1.125,0.432,1.125,0.963c0,0.532-0.505,0.964-1.125,0.964s-1.125-0.432-1.125-0.964
			c0-0.345-0.28-0.625-0.625-0.625c-0.345,0-0.625,0.279-0.625,0.625c0,1.019,0.743,1.878,1.75,2.135v0.511
			c0,0.345,0.28,0.625,0.625,0.625s0.625-0.28,0.625-0.625v-0.511c1.007-0.256,1.75-1.116,1.75-2.135
			C23.755,22.351,22.689,21.358,21.38,21.358z"/>
	</g>
</g>
</svg>
