<?xml version="1.0" encoding="utf-8"?>
<!-- Generator: Adobe Illustrator 15.0.0, SVG Export Plug-In . SVG Version: 6.00 Build 0)  -->
<!DOCTYPE svg PUBLIC "-//W3C//DTD SVG 1.1//EN" "http://www.w3.org/Graphics/SVG/1.1/DTD/svg11.dtd" [
	<!ENTITY ns_extend "http://ns.adobe.com/Extensibility/1.0/">
	<!ENTITY ns_ai "http://ns.adobe.com/AdobeIllustrator/10.0/">
	<!ENTITY ns_graphs "http://ns.adobe.com/Graphs/1.0/">
	<!ENTITY ns_vars "http://ns.adobe.com/Variables/1.0/">
	<!ENTITY ns_imrep "http://ns.adobe.com/ImageReplacement/1.0/">
	<!ENTITY ns_sfw "http://ns.adobe.com/SaveForWeb/1.0/">
	<!ENTITY ns_custom "http://ns.adobe.com/GenericCustomNamespace/1.0/">
	<!ENTITY ns_adobe_xpath "http://ns.adobe.com/XPath/1.0/">
]>
<svg version="1.1" id="Calque_1" xmlns:x="&ns_extend;" xmlns:i="&ns_ai;" xmlns:graph="&ns_graphs;"
	 xmlns="http://www.w3.org/2000/svg" xmlns:xlink="http://www.w3.org/1999/xlink" x="0px" y="0px" width="22px" height="22px"
	 viewBox="5 7 22 22" enable-background="new 5 7 22 22" xml:space="preserve">
<metadata>
	<sfw  xmlns="&ns_sfw;">
		<slices></slices>
		<sliceSourceBounds  height="18.254" width="22" y="169.373" x="168.5" bottomLeftOrigin="true"></sliceSourceBounds>
	</sfw>
</metadata>
<g>
	<g>
		<polygon fill="#FFB300" points="6.112,9.735 16,18.981 25.69,9.841 		"/>
	</g>
	<g>
		<path d="M16,20.013c-0.252,0-0.504-0.092-0.702-0.275l-9.334-8.663c-0.417-0.387-0.442-1.04-0.055-1.458
			C6.297,9.2,6.949,9.175,7.367,9.563L16,17.574l8.756-8.125c0.417-0.387,1.068-0.364,1.457,0.054
			c0.388,0.417,0.363,1.07-0.054,1.458l-9.458,8.777C16.503,19.921,16.251,20.013,16,20.013z"/>
	</g>
	<g>
		<g>
			<path fill="none" d="M24.733,9.841h-1.477h-0.968H9.711H8.743H7.266c-0.716,0-1.299,0.583-1.299,1.299v1.647h20.065v0.9l0,0
				l0.002-2.547C26.034,10.423,25.449,9.841,24.733,9.841z"/>
		</g>
		<g>
			<path d="M24.733,8.873h-1.477h-0.968H9.711H8.743H7.266C6.017,8.873,5,9.89,5,11.14v13.722c0,1.249,1.017,2.266,2.266,2.266
				h17.468c1.248,0,2.266-1.017,2.266-2.266V11.14C26.999,9.89,25.982,8.873,24.733,8.873z M26.032,13.687L26.032,13.687v0.966
				v1.735v8.472c0,0.716-0.583,1.299-1.299,1.299H7.265c-0.716,0-1.298-0.583-1.298-1.299v-8.472v-1.735v-0.966v-0.9V11.14
				c0-0.716,0.583-1.299,1.298-1.299h1.477H9.71h12.579h0.967h1.477c0.716,0,1.3,0.583,1.3,1.299V13.687z"/>
		</g>
	</g>
</g>
</svg>
