<?xml version="1.0" encoding="utf-8"?>
<!-- Generator: Adobe Illustrator 15.0.0, SVG Export Plug-In . SVG Version: 6.00 Build 0)  -->
<!DOCTYPE svg PUBLIC "-//W3C//DTD SVG 1.1//EN" "http://www.w3.org/Graphics/SVG/1.1/DTD/svg11.dtd" [
	<!ENTITY ns_extend "http://ns.adobe.com/Extensibility/1.0/">
	<!ENTITY ns_ai "http://ns.adobe.com/AdobeIllustrator/10.0/">
	<!ENTITY ns_graphs "http://ns.adobe.com/Graphs/1.0/">
	<!ENTITY ns_vars "http://ns.adobe.com/Variables/1.0/">
	<!ENTITY ns_imrep "http://ns.adobe.com/ImageReplacement/1.0/">
	<!ENTITY ns_sfw "http://ns.adobe.com/SaveForWeb/1.0/">
	<!ENTITY ns_custom "http://ns.adobe.com/GenericCustomNamespace/1.0/">
	<!ENTITY ns_adobe_xpath "http://ns.adobe.com/XPath/1.0/">
]>
<svg version="1.1" id="Layer_1" xmlns:x="&ns_extend;" xmlns:i="&ns_ai;" xmlns:graph="&ns_graphs;"
	 xmlns="http://www.w3.org/2000/svg" xmlns:xlink="http://www.w3.org/1999/xlink" x="0px" y="0px" width="32px" height="32px"
	 viewBox="12.5 12.5 32 32" enable-background="new 12.5 12.5 32 32" xml:space="preserve">
<metadata>
	<sfw  xmlns="&ns_sfw;">
		<slices></slices>
		<sliceSourceBounds  x="167.73" y="164" width="24.54" height="32" bottomLeftOrigin="true"></sliceSourceBounds>
	</sfw>
</metadata>
<g>
	<polygon fill="#FFB300" points="27.291,31.292 29.477,31.292 30.125,42.299 28.503,43.837 26.725,42.179 	"/>
	<g>
		<g>
			<path d="M16.838,38.907c0.326,0,0.594-0.268,0.594-0.594v-3.293c0-0.522,0.229-1.013,0.627-1.34
				c2.934-2.41,6.108-4.012,6.716-4.313c0.281-0.137,0.451-0.411,0.451-0.726v-4.632c0-0.196-0.098-0.386-0.262-0.49
				c-0.438-0.294-0.705-0.784-0.705-1.307v-4.795c0-2.059,1.672-3.73,3.73-3.73h1.033c2.059,0,3.73,1.673,3.73,3.73v4.802
				c0,0.529-0.262,1.013-0.707,1.307c-0.162,0.111-0.26,0.294-0.26,0.49v4.632c0,0.313,0.176,0.587,0.451,0.725
				c0.605,0.294,3.789,1.9,6.715,4.312c0.398,0.327,0.629,0.817,0.629,1.34v3.293c0,0.326,0.268,0.595,0.594,0.595
				s0.594-0.269,0.594-0.595v-3.293c0-0.876-0.385-1.699-1.064-2.254c-2.775-2.28-5.77-3.868-6.734-4.352v-4.103
				c0.607-0.523,0.965-1.281,0.965-2.097v-4.802c0-2.711-2.209-4.919-4.92-4.919h-1.033c-2.711,0-4.919,2.208-4.919,4.919v4.802
				c0,0.81,0.36,1.574,0.967,2.097v4.103c-0.967,0.483-3.96,2.071-6.736,4.352c-0.673,0.557-1.064,1.378-1.064,2.254v3.293
				C16.25,38.64,16.512,38.907,16.838,38.907z"/>
			<path d="M30.1,29.389c-0.326,0-0.594,0.268-0.594,0.595c0,0.293-0.125,0.556-0.326,0.737c-0.039,0.027-0.078,0.053-0.111,0.092
				c-0.154,0.111-0.352,0.171-0.561,0.171c-0.549,0-1-0.451-1-1c0-0.327-0.268-0.595-0.595-0.595c-0.327,0-0.595,0.268-0.595,0.595
				c0,0.522,0.19,1.006,0.497,1.385l-0.483,11.14c-0.007,0.178,0.065,0.346,0.196,0.464l1.522,1.378
				c0.11,0.104,0.254,0.15,0.398,0.15s0.287-0.053,0.398-0.15l1.549-1.397c0.129-0.118,0.201-0.288,0.195-0.465l-0.496-11.01
				c0.365-0.393,0.594-0.915,0.594-1.487C30.695,29.656,30.428,29.389,30.1,29.389z M28.461,43.108l-0.921-0.829l0.438-10.187
				c0.17,0.046,0.347,0.065,0.529,0.065c0.151,0,0.295-0.013,0.439-0.046l0.457,10.133L28.461,43.108z"/>
		</g>
	</g>
</g>
</svg>
