<?xml version="1.0" encoding="utf-8"?>
<!-- Generator: Adobe Illustrator 15.0.0, SVG Export Plug-In . SVG Version: 6.00 Build 0)  -->
<!DOCTYPE svg PUBLIC "-//W3C//DTD SVG 1.1//EN" "http://www.w3.org/Graphics/SVG/1.1/DTD/svg11.dtd" [
	<!ENTITY ns_extend "http://ns.adobe.com/Extensibility/1.0/">
	<!ENTITY ns_ai "http://ns.adobe.com/AdobeIllustrator/10.0/">
	<!ENTITY ns_graphs "http://ns.adobe.com/Graphs/1.0/">
	<!ENTITY ns_vars "http://ns.adobe.com/Variables/1.0/">
	<!ENTITY ns_imrep "http://ns.adobe.com/ImageReplacement/1.0/">
	<!ENTITY ns_sfw "http://ns.adobe.com/SaveForWeb/1.0/">
	<!ENTITY ns_custom "http://ns.adobe.com/GenericCustomNamespace/1.0/">
	<!ENTITY ns_adobe_xpath "http://ns.adobe.com/XPath/1.0/">
]>
<svg version="1.1" id="Calque_1" xmlns:x="&ns_extend;" xmlns:i="&ns_ai;" xmlns:graph="&ns_graphs;"
	 xmlns="http://www.w3.org/2000/svg" xmlns:xlink="http://www.w3.org/1999/xlink" x="0px" y="0px" width="22px" height="22px"
	 viewBox="17.499 17.498 22 22" enable-background="new 17.499 17.498 22 22" xml:space="preserve">
<metadata>
	<sfw  xmlns="&ns_sfw;">
		<slices></slices>
		<sliceSourceBounds  x="180.999" y="157.002" width="22" height="22" bottomLeftOrigin="true"></sliceSourceBounds>
	</sfw>
</metadata>
<g>
	<polygon fill="#FFB300" points="35.23,27.163 35.086,22.668 30.863,19.431 32.786,18.204 34.938,17.814 36.569,18.427 
		38.267,19.539 39.212,21.44 39.212,23.44 38.351,25.111 37.35,26.365 35.874,26.84 	"/>
	<g>
		<path d="M36.748,28.069h-0.14h-0.702h-1.011h-0.722h-1.025h-0.44v0.43c0,0.005,0.001,0.009,0.001,0.013v8.753
			c0,0.519,0.178,0.995,0.475,1.375H19.734c-0.759,0-1.375-0.616-1.375-1.375V18.967l0.787,0.787c0.168,0.168,0.439,0.168,0.607,0
			l1.217-1.218l1.218,1.218c0.168,0.168,0.439,0.168,0.607,0l1.218-1.218l1.217,1.218c0.169,0.168,0.44,0.168,0.607,0l1.219-1.218
			l1.217,1.218c0.169,0.168,0.439,0.168,0.607,0l1.218-1.218c0.189-0.217,0.367-0.445,0.586-0.629l-0.283-0.283
			c-0.168-0.168-0.44-0.168-0.608,0l-1.217,1.218l-1.218-1.218c-0.168-0.168-0.439-0.168-0.607,0l-1.218,1.218l-1.216-1.218
			c-0.169-0.168-0.44-0.168-0.608,0l-1.217,1.218l-1.218-1.218c-0.167-0.168-0.439-0.168-0.607,0l-1.218,1.218l-1.217-1.218
			c-0.167-0.167-0.437-0.168-0.604-0.002c-0.089,0.087-0.132,0.203-0.129,0.317v19.324c0,1.232,1.002,2.234,2.234,2.234h15.209
			c0,0,0,0,0.001,0c1.231,0,2.234-1.002,2.234-2.234v-8.765C37.178,28.263,36.984,28.069,36.748,28.069z M36.318,37.265
			c0,0.759-0.617,1.375-1.375,1.375c-0.759,0-1.375-0.616-1.375-1.375v-8.336h2.75V37.265z"/>
		<path d="M25.142,27.295c-0.427,0-0.773-0.297-0.773-0.662c0-0.238-0.193-0.43-0.43-0.43c-0.238,0-0.43,0.191-0.43,0.43
			c0,0.701,0.51,1.291,1.203,1.468v0.351c0,0.237,0.191,0.43,0.43,0.43c0.236,0,0.43-0.192,0.43-0.43v-0.351
			c0.692-0.176,1.203-0.767,1.203-1.468c0-0.84-0.732-1.521-1.633-1.521c-0.427,0-0.773-0.297-0.773-0.662s0.347-0.662,0.773-0.662
			c0.426,0,0.773,0.297,0.773,0.662c0,0.237,0.191,0.43,0.43,0.43c0.236,0,0.43-0.192,0.43-0.43c0-0.701-0.511-1.292-1.203-1.468
			v-0.292c0-0.236-0.193-0.43-0.43-0.43c-0.238,0-0.43,0.193-0.43,0.43v0.292c-0.693,0.176-1.203,0.767-1.203,1.468
			c0,0.839,0.731,1.521,1.633,1.521c0.426,0,0.773,0.297,0.773,0.662C25.913,26.997,25.567,27.295,25.142,27.295z"/>
		<path d="M28.62,25.111c-0.237,0-0.43,0.191-0.43,0.43c0,0.237,0.192,0.43,0.43,0.43h0.838c0.143,0,0.265-0.076,0.343-0.186
			c-0.151-0.215-0.286-0.441-0.406-0.674H28.62z"/>
		<path d="M22.092,25.541c0-0.238-0.191-0.43-0.43-0.43h-0.838c-0.236,0-0.43,0.191-0.43,0.43c0,0.237,0.192,0.43,0.43,0.43h0.838
			C21.9,25.971,22.092,25.778,22.092,25.541z"/>
		<path d="M29.675,29.888h-6.807c-0.237,0-0.43,0.191-0.43,0.429c0,0.238,0.192,0.431,0.43,0.431h6.807
			c0.237,0,0.43-0.192,0.43-0.431C30.104,30.079,29.912,29.888,29.675,29.888z"/>
		<path d="M20.91,30.014c-0.079-0.081-0.19-0.126-0.304-0.126c-0.112,0-0.223,0.045-0.303,0.126
			c-0.08,0.078-0.126,0.189-0.126,0.303c0,0.112,0.046,0.224,0.126,0.303c0.08,0.08,0.19,0.126,0.303,0.126
			c0.114,0,0.225-0.045,0.304-0.126c0.08-0.079,0.126-0.19,0.126-0.303C21.036,30.203,20.991,30.092,20.91,30.014z"/>
		<path d="M29.675,32.723h-6.807c-0.237,0-0.43,0.192-0.43,0.43c0,0.238,0.192,0.43,0.43,0.43h6.807c0.237,0,0.43-0.191,0.43-0.43
			C30.104,32.915,29.912,32.723,29.675,32.723z"/>
		<path d="M20.91,32.849c-0.079-0.08-0.19-0.127-0.304-0.127c-0.112,0-0.223,0.046-0.303,0.127c-0.08,0.08-0.126,0.189-0.126,0.303
			c0,0.112,0.046,0.224,0.126,0.304c0.08,0.078,0.19,0.125,0.303,0.125c0.114,0,0.225-0.046,0.304-0.125
			c0.08-0.08,0.126-0.191,0.126-0.304C21.036,33.04,20.991,32.929,20.91,32.849z"/>
		<path d="M29.675,35.56h-6.807c-0.237,0-0.43,0.191-0.43,0.43c0,0.237,0.192,0.43,0.43,0.43h6.807c0.237,0,0.43-0.191,0.43-0.43
			S29.912,35.56,29.675,35.56z"/>
		<path d="M20.606,35.56c-0.112,0-0.223,0.045-0.303,0.125s-0.126,0.191-0.126,0.305c0,0.112,0.046,0.222,0.126,0.302
			s0.19,0.126,0.303,0.126c0.114,0,0.225-0.045,0.304-0.126c0.08-0.08,0.126-0.189,0.126-0.302c0-0.113-0.046-0.225-0.126-0.305
			C20.831,35.604,20.721,35.56,20.606,35.56z"/>
		<path d="M33.516,26.53c-0.033-0.009-0.065-0.012-0.098-0.012c-0.002,0-0.005,0.001-0.008,0.001
			c-0.176,0.003-0.336,0.123-0.381,0.303c-0.035,0.141,0.015,0.277,0.109,0.373c0.049,0.051,0.107,0.093,0.182,0.111
			c0.1,0.024,0.198,0.047,0.297,0.064c0.025,0.005,0.05,0.007,0.073,0.007c0.084,0,0.164-0.026,0.23-0.072
			c0.083-0.06,0.143-0.147,0.163-0.254c0.041-0.219-0.104-0.427-0.32-0.468C33.68,26.568,33.597,26.551,33.516,26.53z"/>
		<path d="M29.619,22.083c-0.04,0.059-0.069,0.125-0.072,0.2c-0.003,0.102-0.004,0.203-0.003,0.304
			c0.003,0.075,0.03,0.142,0.069,0.201c0.072,0.112,0.19,0.189,0.331,0.189c0.004,0,0.007,0,0.01,0
			c0.082-0.001,0.158-0.028,0.222-0.071c0.077-0.056,0.137-0.14,0.158-0.236c0.008-0.032,0.011-0.066,0.011-0.101
			c-0.003-0.085-0.003-0.171,0.003-0.255c0.001-0.035-0.009-0.067-0.018-0.102c-0.039-0.172-0.182-0.307-0.367-0.314
			c-0.006,0-0.011,0-0.016,0C29.808,21.898,29.69,21.974,29.619,22.083z"/>
		<path d="M30.05,21.42c0.042,0.015,0.085,0.021,0.126,0.021c0.084,0,0.164-0.026,0.23-0.073c0.041-0.028,0.072-0.066,0.101-0.108
			c0.02-0.028,0.038-0.059,0.049-0.093c0.026-0.081,0.057-0.161,0.087-0.239c0.082-0.206-0.018-0.438-0.222-0.52
			c-0.048-0.02-0.101-0.03-0.148-0.03c-0.159,0-0.31,0.097-0.372,0.253c-0.038,0.093-0.072,0.189-0.104,0.284
			c-0.024,0.073-0.021,0.146-0.004,0.215C29.823,21.26,29.914,21.375,30.05,21.42z"/>
		<path d="M30.731,25.703c0.048,0.058,0.112,0.092,0.18,0.114c0.042,0.015,0.082,0.027,0.125,0.027c0.081,0,0.16-0.024,0.229-0.073
			c0.011-0.008,0.021-0.015,0.029-0.022c0.142-0.119,0.171-0.313,0.097-0.473c-0.015-0.031-0.027-0.064-0.051-0.092
			c-0.054-0.064-0.107-0.131-0.158-0.199c-0.021-0.028-0.052-0.044-0.079-0.065c-0.071-0.056-0.153-0.094-0.242-0.094
			c-0.083,0-0.168,0.025-0.239,0.079c-0.116,0.088-0.165,0.228-0.151,0.362c0.008,0.07,0.025,0.139,0.071,0.198
			C30.603,25.547,30.666,25.628,30.731,25.703z"/>
		<path d="M31.639,26.462c0.03,0.063,0.071,0.122,0.135,0.164c0.084,0.057,0.171,0.11,0.258,0.16
			c0.063,0.036,0.132,0.054,0.199,0.054c0.002,0,0.004-0.001,0.006-0.001c0.081-0.001,0.159-0.025,0.226-0.072
			c0.045-0.032,0.086-0.075,0.116-0.127c0.092-0.16,0.056-0.353-0.069-0.479c-0.024-0.024-0.047-0.051-0.078-0.068
			c-0.073-0.042-0.146-0.087-0.217-0.133c-0.029-0.021-0.062-0.034-0.096-0.045c-0.041-0.015-0.082-0.022-0.124-0.022
			c-0.13,0-0.257,0.063-0.334,0.18C31.58,26.193,31.581,26.339,31.639,26.462z"/>
		<path d="M30.387,24.479c0.032-0.012,0.062-0.028,0.089-0.047c0.118-0.083,0.178-0.225,0.163-0.368
			c-0.004-0.033-0.008-0.067-0.021-0.101c-0.03-0.079-0.058-0.16-0.084-0.241c-0.01-0.033-0.027-0.063-0.045-0.091
			c-0.072-0.116-0.198-0.189-0.335-0.189c-0.041,0-0.08,0.006-0.12,0.019c-0.14,0.044-0.229,0.156-0.262,0.287
			c-0.018,0.069-0.024,0.142-0.001,0.215c0.03,0.096,0.063,0.191,0.1,0.286c0.026,0.07,0.073,0.127,0.129,0.17
			c0.07,0.056,0.155,0.088,0.244,0.088C30.291,24.506,30.34,24.497,30.387,24.479z"/>
		<path d="M38.703,19.783c-0.005-0.007-0.007-0.013-0.011-0.019c-0.035-0.054-0.069-0.105-0.105-0.157
			c-0.021-0.031-0.045-0.063-0.068-0.094c-0.006-0.007-0.012-0.014-0.018-0.021c-0.073-0.099-0.15-0.191-0.23-0.283
			c-0.188-0.219-0.395-0.418-0.616-0.598c-0.353-0.288-0.743-0.524-1.164-0.704c-0.234-0.1-0.474-0.185-0.724-0.249
			c-0.005-0.001-0.011-0.002-0.015-0.004c-0.001,0-0.001,0-0.003,0c-0.047-0.012-0.097-0.02-0.144-0.03
			c-0.076-0.017-0.155-0.036-0.234-0.05c-0.287-0.05-0.575-0.074-0.86-0.074c-0.979,0-1.935,0.288-2.762,0.844l-0.313-0.452
			c-0.039-0.057-0.081-0.084-0.121-0.084c-0.047,0-0.089,0.042-0.111,0.122l-0.365,1.313c-0.041,0.147,0.051,0.279,0.203,0.293
			l1.357,0.122c0.011,0.001,0.021,0.001,0.029,0.001c0.13,0,0.171-0.088,0.09-0.205l-0.313-0.452c0.709-0.473,1.514-0.7,2.312-0.7
			c0.322,0,0.644,0.038,0.956,0.112c0.504,0.117,0.988,0.327,1.42,0.626c0.005,0.004,0.011,0.006,0.015,0.01
			c0.288,0.202,0.557,0.442,0.793,0.722c0.081,0.095,0.159,0.195,0.234,0.3c1.325,1.883,0.873,4.492-1.01,5.819
			c-0.129,0.091-0.262,0.173-0.398,0.248h-0.001c-0.063,0.035-0.129,0.067-0.193,0.099c-0.011,0.006-0.021,0.012-0.033,0.017
			c-0.005,0.003-0.009,0.005-0.012,0.007c-0.26,0.122-0.533,0.208-0.814,0.274c-0.071,0.016-0.14,0.039-0.213,0.053
			c-0.217,0.038-0.361,0.246-0.322,0.464c0.034,0.193,0.203,0.329,0.392,0.329c0.024,0,0.047-0.001,0.072-0.006
			c0.024-0.005,0.046-0.013,0.071-0.018c0.296-0.057,0.582-0.143,0.859-0.25c0.369-0.144,0.723-0.329,1.054-0.563
			c0.229-0.162,0.442-0.34,0.637-0.533c0.002-0.001,0.002-0.001,0.002-0.002c0.003-0.001,0.005-0.003,0.007-0.005
			c0.729-0.722,1.214-1.648,1.393-2.68c0.017-0.1,0.03-0.201,0.042-0.302c0.001-0.007,0.003-0.014,0.003-0.019
			c0.011-0.101,0.02-0.202,0.024-0.303c0-0.004,0-0.007,0-0.011C39.538,21.665,39.268,20.655,38.703,19.783z"/>
		<path d="M35.089,19.567c0-0.179-0.145-0.323-0.324-0.323c-0.179,0-0.323,0.145-0.323,0.323v2.832l-2.6,1.344
			c-0.158,0.083-0.22,0.277-0.138,0.437c0.058,0.111,0.171,0.176,0.287,0.176c0.05,0,0.101-0.012,0.148-0.037l2.949-1.524V19.567
			L35.089,19.567z"/>
	</g>
</g>
</svg>
