<?xml version="1.0" encoding="utf-8"?>
<!-- Generator: Adobe Illustrator 15.0.0, SVG Export Plug-In . SVG Version: 6.00 Build 0)  -->
<!DOCTYPE svg PUBLIC "-//W3C//DTD SVG 1.1//EN" "http://www.w3.org/Graphics/SVG/1.1/DTD/svg11.dtd" [
	<!ENTITY ns_extend "http://ns.adobe.com/Extensibility/1.0/">
	<!ENTITY ns_ai "http://ns.adobe.com/AdobeIllustrator/10.0/">
	<!ENTITY ns_graphs "http://ns.adobe.com/Graphs/1.0/">
	<!ENTITY ns_vars "http://ns.adobe.com/Variables/1.0/">
	<!ENTITY ns_imrep "http://ns.adobe.com/ImageReplacement/1.0/">
	<!ENTITY ns_sfw "http://ns.adobe.com/SaveForWeb/1.0/">
	<!ENTITY ns_custom "http://ns.adobe.com/GenericCustomNamespace/1.0/">
	<!ENTITY ns_adobe_xpath "http://ns.adobe.com/XPath/1.0/">
]>
<svg version="1.1" id="Calque_1" xmlns:x="&ns_extend;" xmlns:i="&ns_ai;" xmlns:graph="&ns_graphs;"
	 xmlns="http://www.w3.org/2000/svg" xmlns:xlink="http://www.w3.org/1999/xlink" x="0px" y="0px" width="22px" height="22px"
	 viewBox="5 5 22 22" enable-background="new 5 5 22 22" xml:space="preserve">
<metadata>
	<sfw  xmlns="&ns_sfw;">
		<slices></slices>
		<sliceSourceBounds  height="18.309" width="22" y="171.346" x="168.5" bottomLeftOrigin="true"></sliceSourceBounds>
	</sfw>
</metadata>
<g>
	<polygon fill="#FFB300" points="13.36,11.826 17.505,11.826 17.154,14.357 13.777,14.219 13.36,13.218 13.083,11.826 	"/>
	<g>
		<g>
			<path d="M10,25.154c-0.212,0-0.384-0.174-0.384-0.385c0-0.213,0.172-0.387,0.384-0.387h1.461v-0.535
				c0-0.598,0.403-1.117,0.98-1.268l0.041-0.012l0.676-2.029h-6.38C5.798,20.539,5,19.74,5,18.762V8.624
				c0-0.98,0.798-1.778,1.777-1.778h18.444c0.98,0,1.778,0.798,1.778,1.778v10.138c0,0.979-0.798,1.775-1.778,1.775h-6.38
				l0.677,2.031l0.041,0.01c0.577,0.15,0.98,0.672,0.98,1.268v0.537h1.461c0.213,0,0.386,0.172,0.386,0.385S22.213,25.154,22,25.154
				H10L10,25.154z M12.769,23.307c-0.296,0-0.538,0.242-0.538,0.539v0.537h7.537v-0.537c0-0.297-0.241-0.539-0.537-0.539H12.769z
				 M13.305,22.537h5.392l-0.667-1.998h-4.06L13.305,22.537z M5.771,18.762c0,0.555,0.452,1.008,1.007,1.008h18.444
				c0.557,0,1.008-0.453,1.008-1.008V18.23H5.771V18.762z M5.771,17.461h20.459V9.463H5.771V17.461z M6.777,7.616
				c-0.55,0-1.001,0.448-1.007,0.998v0.077h20.459V8.614c-0.005-0.55-0.457-0.998-1.008-0.998H6.777z"/>
		</g>
		<g>
			<path d="M17.132,14.879l-3.438-0.229c-0.177-0.012-0.322-0.142-0.353-0.317l-0.415-2.326c-0.036-0.208,0.103-0.408,0.313-0.444
				c0.021-0.004,0.044-0.006,0.065-0.006h3.921l0.068-0.536c0.024-0.19,0.188-0.335,0.379-0.335l1.022,0.005
				c0.104,0,0.199,0.041,0.271,0.113c0.073,0.072,0.112,0.169,0.112,0.271c-0.002,0.212-0.172,0.382-0.385,0.382l-0.683-0.002
				l-0.393,3.096c-0.024,0.191-0.188,0.335-0.38,0.335L17.132,14.879z M14.046,13.904l2.859,0.188l0.224-1.767h-3.364L14.046,13.904
				z"/>
		</g>
		<g>
			<circle cx="14.416" cy="15.854" r="0.386"/>
		</g>
		<g>
			<circle cx="16.769" cy="15.854" r="0.386"/>
		</g>
	</g>
</g>
</svg>
