<?xml version="1.0" encoding="utf-8"?>
<!-- Generator: Adobe Illustrator 15.0.0, SVG Export Plug-In . SVG Version: 6.00 Build 0)  -->
<!DOCTYPE svg PUBLIC "-//W3C//DTD SVG 1.1//EN" "http://www.w3.org/Graphics/SVG/1.1/DTD/svg11.dtd" [
	<!ENTITY ns_extend "http://ns.adobe.com/Extensibility/1.0/">
	<!ENTITY ns_ai "http://ns.adobe.com/AdobeIllustrator/10.0/">
	<!ENTITY ns_graphs "http://ns.adobe.com/Graphs/1.0/">
	<!ENTITY ns_vars "http://ns.adobe.com/Variables/1.0/">
	<!ENTITY ns_imrep "http://ns.adobe.com/ImageReplacement/1.0/">
	<!ENTITY ns_sfw "http://ns.adobe.com/SaveForWeb/1.0/">
	<!ENTITY ns_custom "http://ns.adobe.com/GenericCustomNamespace/1.0/">
	<!ENTITY ns_adobe_xpath "http://ns.adobe.com/XPath/1.0/">
]>
<svg version="1.1" id="Capa_1" xmlns:x="&ns_extend;" xmlns:i="&ns_ai;" xmlns:graph="&ns_graphs;"
	 xmlns="http://www.w3.org/2000/svg" xmlns:xlink="http://www.w3.org/1999/xlink" x="0px" y="0px" width="32px" height="32px"
	 viewBox="-44.5 -135.5 32 32" enable-background="new -44.5 -135.5 32 32" xml:space="preserve">
<metadata>
	<sfw  xmlns="&ns_sfw;">
		<slices></slices>
		<sliceSourceBounds  x="107" y="312" width="32" height="32" bottomLeftOrigin="true"></sliceSourceBounds>
	</sfw>
</metadata>
<g>
	<polygon fill="#FFB300" points="-37.689,-127.522 -32.551,-127.521 -31.61,-121.484 -32.339,-121.201 -34.532,-120.755 
		-37.924,-121.201 -38.5,-121.848 -38.5,-125.611 -38.126,-127.716 	"/>
	<g>
		<g>
			<path d="M-13.125-122.453h-4c-0.345,0-0.625,0.28-0.625,0.625v8.871c0,0.345,0.279,0.625,0.625,0.625
				c0.345,0,0.625-0.28,0.625-0.625v-8.245h2.75v16.453h-1.374H-16.5v-9.234c0-0.345-0.28-0.625-0.625-0.625
				c-0.345,0-0.625,0.28-0.625,0.625v9.234H-19v-12.938c0-0.345-0.28-0.625-0.625-0.625h-4c-0.346,0-0.625,0.28-0.625,0.625v12.938
				H-25.5v-8.563c0-0.345-0.28-0.625-0.625-0.625h-4c-0.345,0-0.625,0.28-0.625,0.625v8.563H-32v-4.977
				c0-0.345-0.28-0.626-0.625-0.626h-4c-0.345,0-0.625,0.28-0.625,0.626v4.977h-5.375c-0.344,0-0.625-0.28-0.625-0.626v-28.249
				c0-0.345,0.281-0.625,0.625-0.625h16.124v4.125c0,1.034,0.841,1.875,1.874,1.875h4.126v7.688c0,0.345,0.279,0.625,0.625,0.625
				c0.345,0,0.625-0.28,0.625-0.625v-8.312c0-0.166-0.066-0.325-0.183-0.442l-6-6c-0.118-0.117-0.277-0.183-0.443-0.183h-16.749
				c-1.033,0-1.875,0.841-1.875,1.875v28.25c0,1.034,0.841,1.875,1.875,1.875h29.5c0.345,0,0.625-0.28,0.625-0.625v-17.703
				C-12.5-122.173-12.78-122.453-13.125-122.453z M-25.251-133.366l3.867,3.866h-3.242c-0.345,0-0.625-0.281-0.625-0.625V-133.366z
				 M-33.25-104.75H-36v-4.351h2.75V-104.75z M-26.75-104.75h-2.75v-7.938h2.75V-104.75z M-20.25-104.75H-23v-12.313h2.75V-104.75z"
				/>
		</g>
	</g>
	<g>
		<g>
			<path d="M-28.562-117.109H-40.5c-0.345,0-0.625,0.28-0.625,0.625c0,0.345,0.28,0.625,0.625,0.625h11.938
				c0.345,0,0.625-0.28,0.625-0.625S-28.217-117.109-28.562-117.109z"/>
		</g>
	</g>
	<g>
		<g>
			<path d="M-36.5-114.094h-4c-0.345,0-0.625,0.28-0.625,0.625c0,0.345,0.28,0.625,0.625,0.625h4c0.345,0,0.625-0.28,0.625-0.625
				S-36.155-114.094-36.5-114.094z"/>
		</g>
	</g>
	<g>
		<path d="M-31.427-127.769c-0.039-0.5-0.461-0.892-0.962-0.892h-0.584c-0.124-1.075-1.039-1.914-2.147-1.914
			c-1.098,0-2.007,0.822-2.144,1.914h-0.587c-0.501,0-0.924,0.392-0.962,0.89l-0.434,5.461c-0.039,0.516,0.14,1.03,0.491,1.41
			c0.353,0.38,0.851,0.598,1.369,0.598h4.533c0.519,0,1.018-0.218,1.369-0.598c0.352-0.38,0.532-0.895,0.491-1.412L-31.427-127.769z
			 M-36.711-126.537c0.314,0,0.57-0.255,0.57-0.57v-0.414h2.042v0.414c0,0.314,0.255,0.57,0.57,0.57c0.314,0,0.569-0.255,0.569-0.57
			v-0.414h0.409l0.42,5.298c0.016,0.204-0.052,0.399-0.19,0.548c-0.139,0.15-0.329,0.232-0.533,0.232h-4.532
			c-0.204,0-0.393-0.083-0.533-0.232c-0.139-0.15-0.207-0.345-0.191-0.547l0.421-5.3h0.408v0.415
			C-37.281-126.792-37.026-126.537-36.711-126.537z M-36.111-128.661c0.111-0.444,0.513-0.773,0.991-0.773
			c0.47,0,0.867,0.318,0.985,0.773H-36.111z"/>
		<path d="M-35.915-123.398c0.107,0.109,0.251,0.168,0.404,0.168c0.153,0,0.296-0.06,0.403-0.167l1.469-1.469
			c0.107-0.107,0.167-0.25,0.167-0.403c0-0.152-0.059-0.296-0.167-0.404c-0.215-0.215-0.59-0.215-0.805,0l-1.067,1.066l-0.286-0.286
			c-0.216-0.214-0.59-0.215-0.806,0c-0.107,0.107-0.167,0.251-0.167,0.403c0,0.152,0.059,0.295,0.167,0.403L-35.915-123.398z"/>
	</g>
</g>
</svg>
