<?xml version="1.0" encoding="utf-8"?>
<!-- Generator: Adobe Illustrator 15.0.0, SVG Export Plug-In . SVG Version: 6.00 Build 0)  -->
<!DOCTYPE svg PUBLIC "-//W3C//DTD SVG 1.1//EN" "http://www.w3.org/Graphics/SVG/1.1/DTD/svg11.dtd" [
	<!ENTITY ns_extend "http://ns.adobe.com/Extensibility/1.0/">
	<!ENTITY ns_ai "http://ns.adobe.com/AdobeIllustrator/10.0/">
	<!ENTITY ns_graphs "http://ns.adobe.com/Graphs/1.0/">
	<!ENTITY ns_vars "http://ns.adobe.com/Variables/1.0/">
	<!ENTITY ns_imrep "http://ns.adobe.com/ImageReplacement/1.0/">
	<!ENTITY ns_sfw "http://ns.adobe.com/SaveForWeb/1.0/">
	<!ENTITY ns_custom "http://ns.adobe.com/GenericCustomNamespace/1.0/">
	<!ENTITY ns_adobe_xpath "http://ns.adobe.com/XPath/1.0/">
]>
<svg version="1.1" id="Calque_1" xmlns:x="&ns_extend;" xmlns:i="&ns_ai;" xmlns:graph="&ns_graphs;"
	 xmlns="http://www.w3.org/2000/svg" xmlns:xlink="http://www.w3.org/1999/xlink" x="0px" y="0px" width="22px" height="22px"
	 viewBox="5 5 22 22" enable-background="new 5 5 22 22" xml:space="preserve">
<metadata>
	<sfw  xmlns="&ns_sfw;">
		<slices></slices>
		<sliceSourceBounds  height="22" width="20.801" y="169.5" x="169.1" bottomLeftOrigin="true"></sliceSourceBounds>
	</sfw>
</metadata>
<g>
	<g>
		<path d="M6.145,5.045C6.08,5.045,6.031,5.054,6,5.073L5.951,5.099C5.6,5.275,5.6,5.401,5.6,5.502c0,0.083,0.014,0.113,0.015,0.116
			l9.843,20.885c0.229,0.496,0.424,0.496,0.566,0.496c0.204,0,0.424-0.04,0.663-0.52l9.671-20.849
			C26.399,5.516,26.4,5.457,26.4,5.456c0-0.163-0.013-0.261-0.28-0.388l-0.075-0.04C26.01,5.008,25.964,5,25.903,5
			c-0.116,0-0.206,0.023-0.29,0.075c-0.061,0.038-0.09,0.073-0.119,0.144L16.03,25.946L6.484,5.268
			c-0.056-0.135-0.089-0.154-0.1-0.16C6.311,5.066,6.235,5.045,6.145,5.045z"/>
	</g>
	<g>
		<g>
			<path fill="#FFB300" d="M24.589,26.6c-0.415,0-0.705-0.12-1-0.415c-0.3-0.3-0.416-0.577-0.416-0.996
				c0-0.445,0.123-0.745,0.423-1.036c0.321-0.31,0.619-0.442,0.993-0.442c0.404,0,0.677,0.117,0.974,0.421
				c0.307,0.317,0.439,0.634,0.439,1.058c0,0.42-0.116,0.698-0.412,0.996C25.289,26.483,25.009,26.6,24.589,26.6z"/>
			<path d="M24.589,24.108c0.293,0,0.468,0.076,0.685,0.3c0.239,0.245,0.328,0.458,0.328,0.778c0,0.313-0.074,0.493-0.296,0.715
				c-0.223,0.223-0.403,0.299-0.717,0.299c-0.309,0-0.496-0.079-0.717-0.299c-0.223-0.224-0.298-0.403-0.298-0.713
				c0-0.333,0.081-0.536,0.299-0.747C24.158,24.164,24.358,24.108,24.589,24.108 M24.589,23.309c-0.483,0-0.874,0.173-1.272,0.557
				c-0.375,0.365-0.543,0.771-0.543,1.323c0,0.521,0.159,0.906,0.532,1.279C23.675,26.836,24.068,27,24.589,27
				c0.523,0,0.909-0.159,1.282-0.532s0.529-0.757,0.529-1.279c0-0.531-0.171-0.943-0.552-1.336
				C25.478,23.472,25.102,23.309,24.589,23.309L24.589,23.309z"/>
		</g>
	</g>
</g>
</svg>
