<?xml version="1.0" encoding="utf-8"?>
<!-- Generator: Adobe Illustrator 15.0.2, SVG Export Plug-In . SVG Version: 6.00 Build 0)  -->
<!DOCTYPE svg PUBLIC "-//W3C//DTD SVG 1.1//EN" "http://www.w3.org/Graphics/SVG/1.1/DTD/svg11.dtd">
<svg version="1.1" id="Calque_1" xmlns="http://www.w3.org/2000/svg" xmlns:xlink="http://www.w3.org/1999/xlink" x="0px" y="0px"
	 width="36px" height="1152px" viewBox="0 0 36 1152" enable-background="new 0 0 36 1152" xml:space="preserve">
<g>
	<path fill="#4CAF50" d="M32.774,27.458c0.328-0.435,0.302-1.051-0.096-1.449c-0.045-0.045-0.099-0.085-0.148-0.12l-0.002-0.009
		l-6.442-4.606l-0.009,0.005c-0.43-0.316-1.034-0.284-1.429,0.107c-0.037,0.038-0.07,0.081-0.101,0.125v0.001
		c-0.021,0.025-0.041,0.05-0.058,0.08c-0.433,0.619-0.429,0.697-0.778,1.235c-0.496,0.776-1.068,1.978-1.635,3.343
		c-1.811-0.279-4.505-1.851-7.451-4.798c-2.947-2.947-4.519-5.642-4.794-7.451c1.363-0.567,2.562-1.141,3.343-1.634
		c0.534-0.351,0.612-0.348,1.234-0.777c0.025-0.021,0.052-0.036,0.079-0.055c0,0,0.003,0,0.003-0.003
		c0.041-0.031,0.086-0.063,0.124-0.102c0.39-0.391,0.422-0.996,0.106-1.43V9.914L10.12,3.47h-0.01
		c-0.038-0.053-0.076-0.104-0.122-0.152C9.593,2.925,8.972,2.896,8.541,3.226c-3.085,2.117-5.876,4.439-5.51,7.19
		c0.392,2.951,3.907,9.45,8.504,14.046c4.599,4.598,11.101,8.115,14.047,8.504C28.334,33.336,30.658,30.546,32.774,27.458"/>
	<path fill="#4CAF50" d="M32.774,603.457c0.328-0.434,0.302-1.051-0.096-1.448c-0.045-0.045-0.099-0.085-0.148-0.12l-0.002-0.009
		l-6.442-4.606l-0.009,0.006c-0.43-0.315-1.034-0.285-1.429,0.107c-0.037,0.037-0.07,0.08-0.101,0.125v0.002
		c-0.021,0.023-0.041,0.05-0.058,0.079c-0.433,0.618-0.429,0.696-0.778,1.234c-0.496,0.777-1.068,1.979-1.635,3.344
		c-1.811-0.279-4.505-1.852-7.451-4.798c-2.947-2.947-4.519-5.643-4.794-7.451c1.363-0.566,2.562-1.142,3.343-1.636
		c0.534-0.35,0.612-0.346,1.234-0.776c0.025-0.021,0.052-0.035,0.079-0.055c0,0,0.003,0,0.003-0.004
		c0.041-0.029,0.086-0.063,0.124-0.101c0.39-0.391,0.422-0.996,0.106-1.431v-0.008l-4.602-6.442h-0.01
		c-0.038-0.054-0.076-0.104-0.122-0.152c-0.396-0.393-1.017-0.422-1.447-0.092c-3.085,2.117-5.876,4.439-5.51,7.189
		c0.392,2.95,3.907,9.45,8.504,14.047c4.599,4.598,11.101,8.114,14.047,8.504C28.334,609.336,30.658,606.546,32.774,603.457"/>
	<path fill="#4CAF50" d="M32.774,639.457c0.328-0.434,0.302-1.051-0.096-1.448c-0.045-0.045-0.099-0.085-0.148-0.12l-0.002-0.009
		l-6.442-4.606l-0.009,0.006c-0.43-0.315-1.034-0.285-1.429,0.107c-0.037,0.037-0.07,0.08-0.101,0.125v0.002
		c-0.021,0.023-0.041,0.05-0.058,0.079c-0.433,0.618-0.429,0.696-0.778,1.234c-0.496,0.777-1.068,1.979-1.635,3.344
		c-1.811-0.279-4.505-1.852-7.451-4.798c-2.947-2.947-4.519-5.643-4.794-7.451c1.363-0.566,2.562-1.142,3.343-1.636
		c0.534-0.35,0.612-0.346,1.234-0.776c0.025-0.021,0.052-0.035,0.079-0.055c0,0,0.003,0,0.003-0.004
		c0.041-0.029,0.086-0.063,0.124-0.101c0.39-0.391,0.422-0.996,0.106-1.431v-0.008l-4.602-6.442h-0.01
		c-0.038-0.054-0.076-0.104-0.122-0.152c-0.396-0.393-1.017-0.422-1.447-0.092c-3.085,2.117-5.876,4.439-5.51,7.189
		c0.392,2.95,3.907,9.45,8.504,14.047c4.599,4.598,11.101,8.114,14.047,8.504C28.334,645.336,30.658,642.546,32.774,639.457"/>
	<path fill="#4CAF50" d="M32.774,675.457c0.328-0.434,0.302-1.051-0.096-1.448c-0.045-0.045-0.099-0.085-0.148-0.12l-0.002-0.009
		l-6.442-4.606l-0.009,0.006c-0.43-0.315-1.034-0.285-1.429,0.107c-0.037,0.037-0.07,0.08-0.101,0.125v0.002
		c-0.021,0.023-0.041,0.05-0.058,0.079c-0.433,0.618-0.429,0.696-0.778,1.234c-0.496,0.777-1.068,1.979-1.635,3.344
		c-1.811-0.279-4.505-1.852-7.451-4.798c-2.947-2.947-4.519-5.643-4.794-7.451c1.363-0.566,2.562-1.142,3.343-1.636
		c0.534-0.35,0.612-0.346,1.234-0.776c0.025-0.021,0.052-0.035,0.079-0.055c0,0,0.003,0,0.003-0.004
		c0.041-0.029,0.086-0.063,0.124-0.101c0.39-0.391,0.422-0.996,0.106-1.431v-0.008l-4.602-6.442h-0.01
		c-0.038-0.054-0.076-0.104-0.122-0.152c-0.396-0.393-1.017-0.422-1.447-0.092c-3.085,2.117-5.876,4.439-5.51,7.189
		c0.392,2.95,3.907,9.45,8.504,14.047c4.599,4.598,11.101,8.114,14.047,8.504C28.334,681.336,30.658,678.546,32.774,675.457"/>
	<path fill="#4CAF50" d="M32.774,711.457c0.328-0.434,0.302-1.051-0.096-1.448c-0.045-0.045-0.099-0.085-0.148-0.12l-0.002-0.009
		l-6.442-4.606l-0.009,0.006c-0.43-0.315-1.034-0.285-1.429,0.107c-0.037,0.037-0.07,0.08-0.101,0.125v0.002
		c-0.021,0.023-0.041,0.05-0.058,0.079c-0.433,0.618-0.429,0.696-0.778,1.234c-0.496,0.777-1.068,1.979-1.635,3.344
		c-1.811-0.279-4.505-1.852-7.451-4.798c-2.947-2.947-4.519-5.643-4.794-7.451c1.363-0.566,2.562-1.142,3.343-1.636
		c0.534-0.35,0.612-0.346,1.234-0.776c0.025-0.021,0.052-0.035,0.079-0.055c0,0,0.003,0,0.003-0.004
		c0.041-0.029,0.086-0.063,0.124-0.101c0.39-0.391,0.422-0.996,0.106-1.431v-0.008l-4.602-6.442h-0.01
		c-0.038-0.054-0.076-0.104-0.122-0.152c-0.396-0.393-1.017-0.422-1.447-0.092c-3.085,2.117-5.876,4.439-5.51,7.189
		c0.392,2.95,3.907,9.45,8.504,14.047c4.599,4.598,11.101,8.114,14.047,8.504C28.334,717.336,30.658,714.546,32.774,711.457"/>
	<path fill="#4CAF50" d="M32.774,747.457c0.328-0.434,0.302-1.051-0.096-1.448c-0.045-0.045-0.099-0.085-0.148-0.12l-0.002-0.009
		l-6.442-4.606l-0.009,0.006c-0.43-0.315-1.034-0.285-1.429,0.107c-0.037,0.037-0.07,0.08-0.101,0.125v0.002
		c-0.021,0.023-0.041,0.05-0.058,0.079c-0.433,0.618-0.429,0.696-0.778,1.234c-0.496,0.777-1.068,1.979-1.635,3.344
		c-1.811-0.279-4.505-1.852-7.451-4.798c-2.947-2.947-4.519-5.643-4.794-7.451c1.363-0.566,2.562-1.142,3.343-1.636
		c0.534-0.35,0.612-0.346,1.234-0.776c0.025-0.021,0.052-0.035,0.079-0.055c0,0,0.003,0,0.003-0.004
		c0.041-0.029,0.086-0.063,0.124-0.101c0.39-0.391,0.422-0.996,0.106-1.431v-0.008l-4.602-6.442h-0.01
		c-0.038-0.054-0.076-0.104-0.122-0.152c-0.396-0.393-1.017-0.422-1.447-0.092c-3.085,2.117-5.876,4.439-5.51,7.189
		c0.392,2.95,3.907,9.45,8.504,14.047c4.599,4.598,11.101,8.114,14.047,8.504C28.334,753.336,30.658,750.546,32.774,747.457"/>
	<path fill="#4CAF50" d="M32.774,783.457c0.328-0.434,0.302-1.051-0.096-1.448c-0.045-0.045-0.099-0.085-0.148-0.12l-0.002-0.009
		l-6.442-4.606l-0.009,0.006c-0.43-0.315-1.034-0.285-1.429,0.107c-0.037,0.037-0.07,0.08-0.101,0.125v0.002
		c-0.021,0.023-0.041,0.05-0.058,0.079c-0.433,0.618-0.429,0.696-0.778,1.234c-0.496,0.777-1.068,1.979-1.635,3.344
		c-1.811-0.279-4.505-1.852-7.451-4.798c-2.947-2.947-4.519-5.643-4.794-7.451c1.363-0.566,2.562-1.142,3.343-1.636
		c0.534-0.35,0.612-0.346,1.234-0.776c0.025-0.021,0.052-0.035,0.079-0.055c0,0,0.003,0,0.003-0.004
		c0.041-0.029,0.086-0.063,0.124-0.101c0.39-0.391,0.422-0.996,0.106-1.431v-0.008l-4.602-6.442h-0.01
		c-0.038-0.054-0.076-0.104-0.122-0.152c-0.396-0.393-1.017-0.422-1.447-0.092c-3.085,2.117-5.876,4.439-5.51,7.189
		c0.392,2.95,3.907,9.45,8.504,14.047c4.599,4.598,11.101,8.114,14.047,8.504C28.334,789.336,30.658,786.546,32.774,783.457"/>
	<path fill="#4CAF50" d="M32.774,819.457c0.328-0.434,0.302-1.051-0.096-1.448c-0.045-0.045-0.099-0.085-0.148-0.12l-0.002-0.009
		l-6.442-4.606l-0.009,0.006c-0.43-0.315-1.034-0.285-1.429,0.107c-0.037,0.037-0.07,0.08-0.101,0.125v0.002
		c-0.021,0.023-0.041,0.05-0.058,0.079c-0.433,0.618-0.429,0.696-0.778,1.234c-0.496,0.777-1.068,1.979-1.635,3.344
		c-1.811-0.279-4.505-1.852-7.451-4.798c-2.947-2.947-4.519-5.643-4.794-7.451c1.363-0.566,2.562-1.142,3.343-1.636
		c0.534-0.35,0.612-0.346,1.234-0.776c0.025-0.021,0.052-0.035,0.079-0.055c0,0,0.003,0,0.003-0.004
		c0.041-0.029,0.086-0.063,0.124-0.101c0.39-0.391,0.422-0.996,0.106-1.431v-0.008l-4.602-6.442h-0.01
		c-0.038-0.054-0.076-0.104-0.122-0.152c-0.396-0.393-1.017-0.422-1.447-0.092c-3.085,2.117-5.876,4.439-5.51,7.189
		c0.392,2.95,3.907,9.45,8.504,14.047c4.599,4.598,11.101,8.114,14.047,8.504C28.334,825.336,30.658,822.546,32.774,819.457"/>
	<path fill="#4CAF50" d="M32.774,855.457c0.328-0.434,0.302-1.051-0.096-1.448c-0.045-0.045-0.099-0.085-0.148-0.12l-0.002-0.009
		l-6.442-4.606l-0.009,0.006c-0.43-0.315-1.034-0.285-1.429,0.107c-0.037,0.037-0.07,0.08-0.101,0.125v0.002
		c-0.021,0.023-0.041,0.05-0.058,0.079c-0.433,0.618-0.429,0.696-0.778,1.234c-0.496,0.777-1.068,1.979-1.635,3.344
		c-1.811-0.279-4.505-1.852-7.451-4.798c-2.947-2.947-4.519-5.643-4.794-7.451c1.363-0.566,2.562-1.142,3.343-1.636
		c0.534-0.35,0.612-0.346,1.234-0.776c0.025-0.021,0.052-0.035,0.079-0.055c0,0,0.003,0,0.003-0.004
		c0.041-0.029,0.086-0.063,0.124-0.101c0.39-0.391,0.422-0.996,0.106-1.431v-0.008l-4.602-6.442h-0.01
		c-0.038-0.054-0.076-0.104-0.122-0.152c-0.396-0.393-1.017-0.422-1.447-0.092c-3.085,2.117-5.876,4.439-5.51,7.189
		c0.392,2.95,3.907,9.45,8.504,14.047c4.599,4.598,11.101,8.114,14.047,8.504C28.334,861.336,30.658,858.546,32.774,855.457"/>
	<path fill="#4CAF50" d="M32.774,891.457c0.328-0.434,0.302-1.051-0.096-1.448c-0.045-0.045-0.099-0.085-0.148-0.12l-0.002-0.009
		l-6.442-4.606l-0.009,0.006c-0.43-0.315-1.034-0.285-1.429,0.107c-0.037,0.037-0.07,0.08-0.101,0.125v0.002
		c-0.021,0.023-0.041,0.05-0.058,0.079c-0.433,0.618-0.429,0.696-0.778,1.234c-0.496,0.777-1.068,1.979-1.635,3.344
		c-1.811-0.279-4.505-1.852-7.451-4.798c-2.947-2.947-4.519-5.643-4.794-7.451c1.363-0.566,2.562-1.142,3.343-1.636
		c0.534-0.35,0.612-0.346,1.234-0.776c0.025-0.021,0.052-0.035,0.079-0.055c0,0,0.003,0,0.003-0.004
		c0.041-0.029,0.086-0.063,0.124-0.101c0.39-0.391,0.422-0.996,0.106-1.431v-0.008l-4.602-6.442h-0.01
		c-0.038-0.054-0.076-0.104-0.122-0.152c-0.396-0.393-1.017-0.422-1.447-0.092c-3.085,2.117-5.876,4.439-5.51,7.189
		c0.392,2.95,3.907,9.45,8.504,14.047c4.599,4.598,11.101,8.114,14.047,8.504C28.334,897.336,30.658,894.546,32.774,891.457"/>
	<path fill="#4CAF50" d="M32.774,927.457c0.328-0.434,0.302-1.051-0.096-1.448c-0.045-0.045-0.099-0.085-0.148-0.12l-0.002-0.009
		l-6.442-4.606l-0.009,0.006c-0.43-0.315-1.034-0.285-1.429,0.107c-0.037,0.037-0.07,0.08-0.101,0.125v0.002
		c-0.021,0.023-0.041,0.05-0.058,0.079c-0.433,0.618-0.429,0.696-0.778,1.234c-0.496,0.777-1.068,1.979-1.635,3.344
		c-1.811-0.279-4.505-1.852-7.451-4.798c-2.947-2.947-4.519-5.643-4.794-7.451c1.363-0.566,2.562-1.142,3.343-1.636
		c0.534-0.35,0.612-0.346,1.234-0.776c0.025-0.021,0.052-0.035,0.079-0.056c0,0,0.003,0,0.003-0.003
		c0.041-0.029,0.086-0.063,0.124-0.101c0.39-0.392,0.422-0.996,0.106-1.431v-0.008l-4.602-6.442h-0.01
		c-0.038-0.054-0.076-0.104-0.122-0.152c-0.396-0.393-1.017-0.422-1.447-0.092c-3.085,2.117-5.876,4.438-5.51,7.188
		c0.392,2.951,3.907,9.451,8.504,14.047c4.599,4.599,11.101,8.115,14.047,8.505C28.334,933.336,30.658,930.546,32.774,927.457"/>
	<path fill="#4CAF50" d="M32.774,963.457c0.328-0.434,0.302-1.051-0.096-1.448c-0.045-0.045-0.099-0.085-0.148-0.12l-0.002-0.009
		l-6.442-4.606l-0.009,0.006c-0.43-0.315-1.034-0.285-1.429,0.107c-0.037,0.037-0.07,0.08-0.101,0.125v0.002
		c-0.021,0.023-0.041,0.05-0.058,0.079c-0.433,0.618-0.429,0.696-0.778,1.234c-0.496,0.777-1.068,1.979-1.635,3.344
		c-1.811-0.279-4.505-1.852-7.451-4.798c-2.947-2.947-4.519-5.643-4.794-7.451c1.363-0.566,2.562-1.142,3.343-1.636
		c0.534-0.35,0.612-0.346,1.234-0.776c0.025-0.021,0.052-0.035,0.079-0.056c0,0,0.003,0,0.003-0.003
		c0.041-0.029,0.086-0.063,0.124-0.101c0.39-0.392,0.422-0.996,0.106-1.431v-0.008l-4.602-6.442h-0.01
		c-0.038-0.054-0.076-0.104-0.122-0.152c-0.396-0.393-1.017-0.422-1.447-0.092c-3.085,2.117-5.876,4.438-5.51,7.188
		c0.392,2.951,3.907,9.451,8.504,14.047c4.599,4.599,11.101,8.115,14.047,8.505C28.334,969.336,30.658,966.546,32.774,963.457"/>
	<path fill="#4CAF50" d="M32.774,999.457c0.328-0.434,0.302-1.051-0.096-1.448c-0.045-0.045-0.099-0.085-0.148-0.12l-0.002-0.009
		l-6.442-4.606l-0.009,0.006c-0.43-0.315-1.034-0.285-1.429,0.107c-0.037,0.037-0.07,0.08-0.101,0.125v0.002
		c-0.021,0.023-0.041,0.05-0.058,0.079c-0.433,0.618-0.429,0.696-0.778,1.234c-0.496,0.777-1.068,1.979-1.635,3.344
		c-1.811-0.279-4.505-1.852-7.451-4.798c-2.947-2.947-4.519-5.643-4.794-7.451c1.363-0.566,2.562-1.142,3.343-1.636
		c0.534-0.35,0.612-0.346,1.234-0.776c0.025-0.021,0.052-0.035,0.079-0.056c0,0,0.003,0,0.003-0.003
		c0.041-0.029,0.086-0.063,0.124-0.101c0.39-0.392,0.422-0.996,0.106-1.431v-0.008l-4.602-6.442h-0.01
		c-0.038-0.054-0.076-0.104-0.122-0.152c-0.396-0.393-1.017-0.422-1.447-0.092c-3.085,2.117-5.876,4.438-5.51,7.188
		c0.392,2.951,3.907,9.451,8.504,14.047c4.599,4.599,11.101,8.115,14.047,8.505C28.334,1005.336,30.658,1002.546,32.774,999.457"/>
	<path fill="#4CAF50" d="M32.774,1035.457c0.328-0.434,0.302-1.051-0.096-1.448c-0.045-0.045-0.099-0.085-0.148-0.12l-0.002-0.009
		l-6.442-4.606l-0.009,0.006c-0.43-0.315-1.034-0.285-1.429,0.107c-0.037,0.037-0.07,0.08-0.101,0.125v0.002
		c-0.021,0.023-0.041,0.05-0.058,0.079c-0.433,0.618-0.429,0.696-0.778,1.234c-0.496,0.777-1.068,1.979-1.635,3.344
		c-1.811-0.279-4.505-1.852-7.451-4.798c-2.947-2.947-4.519-5.643-4.794-7.451c1.363-0.566,2.562-1.142,3.343-1.636
		c0.534-0.35,0.612-0.346,1.234-0.776c0.025-0.021,0.052-0.035,0.079-0.056c0,0,0.003,0,0.003-0.003
		c0.041-0.029,0.086-0.063,0.124-0.101c0.39-0.392,0.422-0.996,0.106-1.431v-0.008l-4.602-6.442h-0.01
		c-0.038-0.054-0.076-0.104-0.122-0.152c-0.396-0.393-1.017-0.422-1.447-0.092c-3.085,2.117-5.876,4.438-5.51,7.188
		c0.392,2.951,3.907,9.451,8.504,14.047c4.599,4.599,11.101,8.115,14.047,8.505C28.334,1041.336,30.658,1038.546,32.774,1035.457"/>
	<path fill="#4CAF50" d="M32.774,1071.457c0.328-0.434,0.302-1.051-0.096-1.448c-0.045-0.045-0.099-0.085-0.148-0.12l-0.002-0.009
		l-6.442-4.606l-0.009,0.006c-0.43-0.315-1.034-0.285-1.429,0.107c-0.037,0.037-0.07,0.08-0.101,0.125v0.002
		c-0.021,0.023-0.041,0.05-0.058,0.079c-0.433,0.618-0.429,0.696-0.778,1.234c-0.496,0.777-1.068,1.979-1.635,3.344
		c-1.811-0.279-4.505-1.852-7.451-4.798c-2.947-2.947-4.519-5.643-4.794-7.451c1.363-0.566,2.562-1.142,3.343-1.636
		c0.534-0.35,0.612-0.346,1.234-0.776c0.025-0.021,0.052-0.035,0.079-0.056c0,0,0.003,0,0.003-0.003
		c0.041-0.029,0.086-0.063,0.124-0.101c0.39-0.392,0.422-0.996,0.106-1.431v-0.008l-4.602-6.442h-0.01
		c-0.038-0.054-0.076-0.104-0.122-0.152c-0.396-0.393-1.017-0.422-1.447-0.092c-3.085,2.117-5.876,4.438-5.51,7.188
		c0.392,2.951,3.907,9.451,8.504,14.047c4.599,4.599,11.101,8.115,14.047,8.505C28.334,1077.336,30.658,1074.546,32.774,1071.457"/>
	<path fill="#4CAF50" d="M32.774,1107.457c0.328-0.434,0.302-1.051-0.096-1.448c-0.045-0.045-0.099-0.085-0.148-0.12l-0.002-0.009
		l-6.442-4.606l-0.009,0.006c-0.43-0.315-1.034-0.285-1.429,0.107c-0.037,0.037-0.07,0.08-0.101,0.125v0.002
		c-0.021,0.023-0.041,0.05-0.058,0.079c-0.433,0.618-0.429,0.696-0.778,1.234c-0.496,0.777-1.068,1.979-1.635,3.344
		c-1.811-0.279-4.505-1.852-7.451-4.798c-2.947-2.947-4.519-5.643-4.794-7.451c1.363-0.566,2.562-1.142,3.343-1.636
		c0.534-0.35,0.612-0.346,1.234-0.776c0.025-0.021,0.052-0.035,0.079-0.056c0,0,0.003,0,0.003-0.003
		c0.041-0.029,0.086-0.063,0.124-0.101c0.39-0.392,0.422-0.996,0.106-1.431v-0.008l-4.602-6.442h-0.01
		c-0.038-0.054-0.076-0.104-0.122-0.152c-0.396-0.393-1.017-0.422-1.447-0.092c-3.085,2.117-5.876,4.438-5.51,7.188
		c0.392,2.951,3.907,9.451,8.504,14.047c4.599,4.599,11.101,8.115,14.047,8.505C28.334,1113.336,30.658,1110.546,32.774,1107.457"/>
	<path fill="#4CAF50" d="M32.774,1143.457c0.328-0.434,0.302-1.051-0.096-1.448c-0.045-0.045-0.099-0.085-0.148-0.12l-0.002-0.009
		l-6.442-4.606l-0.009,0.006c-0.43-0.315-1.034-0.285-1.429,0.107c-0.037,0.037-0.07,0.08-0.101,0.125v0.002
		c-0.021,0.023-0.041,0.05-0.058,0.079c-0.433,0.618-0.429,0.696-0.778,1.234c-0.496,0.777-1.068,1.979-1.635,3.344
		c-1.811-0.279-4.505-1.852-7.451-4.798c-2.947-2.947-4.519-5.643-4.794-7.451c1.363-0.566,2.562-1.142,3.343-1.636
		c0.534-0.35,0.612-0.346,1.234-0.776c0.025-0.021,0.052-0.035,0.079-0.056c0,0,0.003,0,0.003-0.003
		c0.041-0.029,0.086-0.063,0.124-0.101c0.39-0.392,0.422-0.996,0.106-1.431v-0.008l-4.602-6.442h-0.01
		c-0.038-0.054-0.076-0.104-0.122-0.152c-0.396-0.393-1.017-0.422-1.447-0.092c-3.085,2.117-5.876,4.438-5.51,7.188
		c0.392,2.951,3.907,9.451,8.504,14.047c4.599,4.599,11.101,8.115,14.047,8.505C28.334,1149.336,30.658,1146.546,32.774,1143.457"/>
	<path fill="#4CAF50" d="M32.774,171.457c0.328-0.434,0.302-1.051-0.096-1.448c-0.045-0.045-0.099-0.085-0.148-0.12l-0.002-0.009
		l-6.442-4.606l-0.009,0.006c-0.43-0.315-1.034-0.285-1.429,0.107c-0.037,0.037-0.07,0.08-0.101,0.125v0.002
		c-0.021,0.023-0.041,0.05-0.058,0.079c-0.433,0.618-0.429,0.696-0.778,1.234c-0.496,0.777-1.068,1.979-1.635,3.344
		c-1.811-0.279-4.505-1.852-7.451-4.799c-2.947-2.946-4.519-5.642-4.794-7.45c1.363-0.566,2.562-1.142,3.343-1.636
		c0.534-0.35,0.612-0.346,1.234-0.776c0.025-0.021,0.052-0.035,0.079-0.056c0,0,0.003,0,0.003-0.003
		c0.041-0.029,0.086-0.063,0.124-0.101c0.39-0.391,0.422-0.996,0.106-1.431v-0.008l-4.602-6.442h-0.01
		c-0.038-0.054-0.076-0.104-0.122-0.152c-0.396-0.393-1.017-0.422-1.447-0.092c-3.085,2.117-5.876,4.439-5.51,7.188
		c0.392,2.951,3.907,9.451,8.504,14.048c4.599,4.598,11.101,8.114,14.047,8.504C28.334,177.336,30.658,174.546,32.774,171.457"/>
	<path fill="#4CAF50" d="M33.543,206.135c0.29-0.461,0.209-1.073-0.221-1.437c-0.05-0.041-0.106-0.076-0.16-0.105l-0.002-0.009
		l-6.819-4.027l-0.009,0.006c-0.455-0.277-1.055-0.193-1.414,0.232c-0.032,0.04-0.063,0.085-0.089,0.133v0.002
		c-0.02,0.025-0.035,0.053-0.049,0.084c-0.377,0.653-0.366,0.73-0.667,1.298c-0.427,0.818-0.892,2.063-1.337,3.473
		c-1.828-0.12-4.649-1.45-7.842-4.13s-4.992-5.227-5.424-7.005c1.309-0.684,2.451-1.358,3.188-1.92
		c0.501-0.395,0.58-0.397,1.162-0.882c0.023-0.021,0.048-0.04,0.074-0.063c0,0,0.002,0,0.002-0.003
		c0.039-0.034,0.08-0.069,0.115-0.11c0.354-0.424,0.334-1.029-0.018-1.436l-0.001-0.007l-5.146-6.018l-0.011,0.001
		c-0.042-0.052-0.085-0.098-0.135-0.143c-0.429-0.355-1.049-0.332-1.45,0.035c-2.889,2.378-5.467,4.936-4.863,7.643
		c0.647,2.905,4.717,9.074,9.696,13.253c4.981,4.179,11.765,7.115,14.735,7.247C29.632,212.377,31.703,209.395,33.543,206.135"/>
	<path fill="#4CAF50" d="M33.543,278.135c0.29-0.461,0.209-1.073-0.221-1.437c-0.05-0.041-0.106-0.076-0.16-0.105l-0.002-0.009
		l-6.819-4.027l-0.009,0.006c-0.455-0.277-1.055-0.193-1.414,0.232c-0.032,0.04-0.063,0.085-0.089,0.133v0.002
		c-0.02,0.025-0.035,0.053-0.049,0.084c-0.377,0.653-0.366,0.73-0.667,1.298c-0.427,0.818-0.892,2.063-1.337,3.473
		c-1.828-0.12-4.649-1.45-7.842-4.13s-4.992-5.227-5.424-7.005c1.309-0.684,2.451-1.358,3.188-1.92
		c0.501-0.395,0.58-0.397,1.162-0.882c0.023-0.021,0.048-0.04,0.074-0.063c0,0,0.002,0,0.002-0.003
		c0.039-0.034,0.08-0.069,0.115-0.11c0.354-0.424,0.334-1.029-0.018-1.436l-0.001-0.007l-5.146-6.018l-0.011,0.001
		c-0.042-0.052-0.085-0.098-0.135-0.143c-0.429-0.355-1.049-0.332-1.45,0.035c-2.889,2.378-5.467,4.936-4.863,7.643
		c0.647,2.905,4.717,9.074,9.696,13.253c4.981,4.179,11.765,7.115,14.735,7.247C29.632,284.377,31.703,281.395,33.543,278.135"/>
	<path fill="#4CAF50" d="M34.188,240.752c0.25-0.484,0.115-1.089-0.344-1.411c-0.053-0.036-0.112-0.066-0.17-0.093l-0.002-0.009
		l-7.145-3.418l-0.01,0.007c-0.478-0.235-1.066-0.101-1.389,0.354c-0.029,0.043-0.055,0.091-0.076,0.141v0.002
		c-0.017,0.027-0.029,0.057-0.041,0.088c-0.318,0.685-0.302,0.762-0.553,1.352c-0.354,0.853-0.708,2.134-1.029,3.576
		c-1.832,0.04-4.758-1.04-8.17-3.432c-3.414-2.392-5.43-4.771-6.016-6.506c1.244-0.795,2.324-1.566,3.008-2.189
		c0.465-0.438,0.543-0.446,1.081-0.979c0.021-0.022,0.044-0.044,0.068-0.066c0,0,0.003,0,0.003-0.004
		c0.035-0.037,0.074-0.076,0.104-0.12c0.316-0.452,0.243-1.056-0.143-1.429l-0.001-0.007l-5.649-5.546l-0.011,0.002
		c-0.047-0.047-0.093-0.089-0.146-0.13c-0.459-0.317-1.074-0.239-1.441,0.161c-2.67,2.621-5.018,5.393-4.18,8.037
		c0.898,2.838,5.49,8.629,10.814,12.356c5.328,3.729,12.34,6.063,15.311,5.936C30.837,247.312,32.64,244.158,34.188,240.752"/>
	<path fill="#4CAF50" d="M31.894,64.71c0.365-0.403,0.393-1.021,0.031-1.452c-0.041-0.049-0.091-0.093-0.139-0.133l-0.001-0.009
		l-6.017-5.15l-0.01,0.004c-0.399-0.353-1.004-0.374-1.433-0.018c-0.04,0.033-0.077,0.073-0.11,0.115v0.001
		c-0.023,0.023-0.045,0.048-0.063,0.074c-0.484,0.579-0.487,0.658-0.882,1.163c-0.563,0.731-1.237,1.877-1.92,3.188
		c-1.779-0.437-4.328-2.236-7.006-5.43c-2.679-3.192-4.01-6.014-4.125-7.84c1.406-0.446,2.65-0.913,3.472-1.337
		c0.563-0.302,0.64-0.292,1.297-0.667c0.026-0.018,0.055-0.032,0.084-0.048c0,0,0.003,0,0.003-0.002
		c0.043-0.027,0.091-0.055,0.132-0.09c0.423-0.355,0.507-0.956,0.231-1.416v-0.007l-4.021-6.82l-0.01-0.001
		c-0.033-0.057-0.066-0.11-0.107-0.162c-0.361-0.426-0.976-0.509-1.435-0.218c-3.259,1.84-6.241,3.91-6.116,6.682
		c0.133,2.974,3.069,9.755,7.248,14.734c4.18,4.98,10.35,9.052,13.252,9.695C26.958,70.178,29.517,67.601,31.894,64.71"/>
	<path fill="#4CAF50" d="M31.894,136.709c0.365-0.402,0.393-1.021,0.031-1.451c-0.041-0.049-0.091-0.094-0.139-0.133l-0.001-0.009
		l-6.017-5.149l-0.01,0.004c-0.399-0.354-1.004-0.373-1.433-0.018c-0.04,0.033-0.077,0.073-0.11,0.115v0.001
		c-0.023,0.023-0.045,0.048-0.063,0.074c-0.484,0.579-0.487,0.658-0.882,1.163c-0.563,0.731-1.237,1.877-1.92,3.188
		c-1.779-0.438-4.328-2.235-7.006-5.43c-2.679-3.192-4.01-6.014-4.125-7.841c1.406-0.446,2.65-0.913,3.472-1.337
		c0.563-0.303,0.64-0.292,1.297-0.666c0.026-0.019,0.055-0.032,0.084-0.049c0,0,0.003,0,0.003-0.002
		c0.043-0.027,0.091-0.055,0.132-0.09c0.423-0.355,0.507-0.956,0.231-1.416v-0.007l-4.021-6.82l-0.01-0.001
		c-0.033-0.058-0.066-0.109-0.107-0.162c-0.361-0.426-0.976-0.508-1.435-0.217c-3.259,1.84-6.241,3.91-6.116,6.682
		c0.133,2.975,3.069,9.755,7.248,14.734c4.18,4.979,10.35,9.052,13.252,9.694C26.958,142.178,29.517,139.602,31.894,136.709"/>
	<path fill="#4CAF50" d="M30.905,101.883c0.398-0.37,0.479-0.982,0.158-1.443c-0.036-0.052-0.082-0.101-0.127-0.145v-0.009
		l-5.545-5.655l-0.01,0.003c-0.367-0.386-0.969-0.459-1.426-0.142c-0.043,0.029-0.083,0.066-0.121,0.105v0.001
		c-0.025,0.021-0.048,0.043-0.07,0.068c-0.533,0.535-0.541,0.612-0.979,1.082c-0.624,0.679-1.396,1.762-2.19,3.008
		c-1.734-0.589-4.115-2.604-6.504-6.02c-2.392-3.413-3.471-6.34-3.428-8.17c1.439-0.321,2.721-0.678,3.575-1.028
		c0.587-0.252,0.664-0.235,1.351-0.552c0.029-0.016,0.059-0.026,0.088-0.041c0,0,0.004,0,0.004-0.002
		c0.045-0.022,0.096-0.046,0.14-0.077c0.452-0.317,0.588-0.908,0.354-1.391V81.47l-3.412-7.145l-0.01-0.003
		c-0.027-0.059-0.057-0.114-0.094-0.17c-0.322-0.456-0.928-0.592-1.409-0.342c-3.405,1.549-6.558,3.352-6.675,6.124
		c-0.126,2.975,2.208,9.985,5.938,15.311s9.521,9.919,12.356,10.813C25.513,106.901,28.285,104.556,30.905,101.883"/>
	<path fill="#4CAF50" d="M32.774,315.457c0.328-0.434,0.302-1.051-0.096-1.448c-0.045-0.045-0.099-0.085-0.148-0.12l-0.002-0.009
		l-6.442-4.606l-0.009,0.006c-0.43-0.315-1.034-0.285-1.429,0.107c-0.037,0.037-0.07,0.08-0.101,0.125v0.002
		c-0.021,0.023-0.041,0.05-0.058,0.079c-0.433,0.618-0.429,0.696-0.778,1.234c-0.496,0.777-1.068,1.979-1.635,3.344
		c-1.811-0.279-4.505-1.852-7.451-4.799c-2.947-2.946-4.519-5.642-4.794-7.45c1.363-0.566,2.562-1.142,3.343-1.636
		c0.534-0.35,0.612-0.346,1.234-0.776c0.025-0.021,0.052-0.035,0.079-0.056c0,0,0.003,0,0.003-0.003
		c0.041-0.029,0.086-0.063,0.124-0.101c0.39-0.391,0.422-0.996,0.106-1.431v-0.008l-4.602-6.442h-0.01
		c-0.038-0.054-0.076-0.104-0.122-0.152c-0.396-0.393-1.017-0.422-1.447-0.092c-3.085,2.117-5.876,4.438-5.51,7.188
		c0.392,2.951,3.907,9.451,8.504,14.048c4.599,4.598,11.101,8.114,14.047,8.504C28.334,321.336,30.658,318.546,32.774,315.457"/>
	<path fill="#4CAF50" d="M32.774,459.457c0.328-0.434,0.302-1.051-0.096-1.448c-0.045-0.045-0.099-0.085-0.148-0.12l-0.002-0.009
		l-6.442-4.606l-0.009,0.006c-0.43-0.315-1.034-0.285-1.429,0.107c-0.037,0.037-0.07,0.08-0.101,0.125v0.002
		c-0.021,0.023-0.041,0.05-0.058,0.079c-0.433,0.618-0.429,0.696-0.778,1.234c-0.496,0.777-1.068,1.979-1.635,3.344
		c-1.811-0.279-4.505-1.852-7.451-4.798c-2.947-2.947-4.519-5.643-4.794-7.451c1.363-0.566,2.562-1.142,3.343-1.636
		c0.534-0.35,0.612-0.346,1.234-0.776c0.025-0.021,0.052-0.035,0.079-0.055c0,0,0.003,0,0.003-0.004
		c0.041-0.029,0.086-0.063,0.124-0.101c0.39-0.391,0.422-0.996,0.106-1.431v-0.008l-4.602-6.442h-0.01
		c-0.038-0.054-0.076-0.104-0.122-0.152c-0.396-0.393-1.017-0.422-1.447-0.092c-3.085,2.117-5.876,4.439-5.51,7.189
		c0.392,2.95,3.907,9.45,8.504,14.047c4.599,4.598,11.101,8.114,14.047,8.504C28.334,465.336,30.658,462.546,32.774,459.457"/>
	<path fill="#4CAF50" d="M33.543,494.135c0.29-0.461,0.209-1.073-0.221-1.437c-0.05-0.041-0.106-0.075-0.16-0.105l-0.002-0.009
		l-6.819-4.027l-0.009,0.006c-0.455-0.277-1.055-0.193-1.414,0.232c-0.032,0.04-0.063,0.085-0.089,0.133v0.002
		c-0.02,0.025-0.035,0.053-0.049,0.084c-0.377,0.653-0.366,0.73-0.667,1.298c-0.427,0.818-0.892,2.063-1.337,3.473
		c-1.828-0.12-4.649-1.45-7.842-4.13s-4.992-5.227-5.424-7.005c1.309-0.684,2.451-1.358,3.188-1.92
		c0.501-0.395,0.58-0.396,1.162-0.882c0.023-0.021,0.048-0.04,0.074-0.063c0,0,0.002,0,0.002-0.003
		c0.039-0.034,0.08-0.069,0.115-0.11c0.354-0.424,0.334-1.029-0.018-1.436l-0.001-0.007l-5.146-6.018l-0.011,0.001
		c-0.042-0.052-0.085-0.098-0.135-0.143c-0.429-0.355-1.049-0.332-1.45,0.035c-2.889,2.378-5.467,4.935-4.863,7.642
		c0.647,2.906,4.717,9.075,9.696,13.253c4.981,4.18,11.765,7.116,14.735,7.247C29.632,500.377,31.703,497.395,33.543,494.135"/>
	<path fill="#4CAF50" d="M33.543,566.135c0.29-0.461,0.209-1.073-0.221-1.437c-0.05-0.041-0.106-0.075-0.16-0.105l-0.002-0.009
		l-6.819-4.027l-0.009,0.006c-0.455-0.277-1.055-0.193-1.414,0.232c-0.032,0.04-0.063,0.085-0.089,0.133v0.002
		c-0.02,0.025-0.035,0.053-0.049,0.084c-0.377,0.653-0.366,0.73-0.667,1.298c-0.427,0.818-0.892,2.063-1.337,3.473
		c-1.828-0.12-4.649-1.45-7.842-4.13s-4.992-5.227-5.424-7.005c1.309-0.684,2.451-1.358,3.188-1.92
		c0.501-0.395,0.58-0.396,1.162-0.882c0.023-0.021,0.048-0.04,0.074-0.063c0,0,0.002,0,0.002-0.003
		c0.039-0.034,0.08-0.069,0.115-0.11c0.354-0.424,0.334-1.029-0.018-1.436l-0.001-0.007l-5.146-6.018l-0.011,0.001
		c-0.042-0.052-0.085-0.098-0.135-0.143c-0.429-0.355-1.049-0.332-1.45,0.035c-2.889,2.378-5.467,4.935-4.863,7.642
		c0.647,2.906,4.717,9.075,9.696,13.253c4.981,4.18,11.765,7.116,14.735,7.247C29.632,572.377,31.703,569.395,33.543,566.135"/>
	<path fill="#4CAF50" d="M34.188,528.752c0.25-0.484,0.115-1.089-0.344-1.411c-0.053-0.036-0.112-0.066-0.17-0.093l-0.002-0.009
		l-7.145-3.418l-0.01,0.007c-0.478-0.235-1.066-0.101-1.389,0.354c-0.029,0.043-0.055,0.091-0.076,0.141v0.002
		c-0.017,0.027-0.029,0.057-0.041,0.089c-0.318,0.684-0.302,0.761-0.553,1.351c-0.354,0.853-0.708,2.134-1.029,3.576
		c-1.832,0.04-4.758-1.04-8.17-3.432c-3.414-2.392-5.43-4.771-6.016-6.506c1.244-0.795,2.324-1.566,3.008-2.189
		c0.465-0.438,0.543-0.446,1.081-0.979c0.021-0.022,0.044-0.044,0.068-0.066c0,0,0.003,0,0.003-0.004
		c0.035-0.037,0.074-0.076,0.104-0.12c0.316-0.452,0.243-1.056-0.143-1.429l-0.001-0.007l-5.649-5.546l-0.011,0.002
		c-0.047-0.047-0.093-0.089-0.146-0.13c-0.459-0.317-1.074-0.239-1.441,0.161c-2.67,2.621-5.018,5.393-4.18,8.037
		c0.898,2.838,5.49,8.629,10.814,12.356c5.328,3.729,12.34,6.063,15.311,5.936C30.837,535.312,32.64,532.158,34.188,528.752"/>
	<path fill="#4CAF50" d="M31.894,352.709c0.365-0.402,0.393-1.021,0.031-1.451c-0.041-0.049-0.091-0.095-0.139-0.133l-0.001-0.01
		l-6.017-5.148l-0.01,0.004c-0.399-0.354-1.004-0.373-1.433-0.019c-0.04,0.034-0.077,0.074-0.11,0.116v0.001
		c-0.023,0.023-0.045,0.047-0.063,0.074c-0.484,0.579-0.487,0.658-0.882,1.163c-0.563,0.73-1.237,1.877-1.92,3.188
		c-1.779-0.437-4.328-2.234-7.006-5.429c-2.679-3.192-4.01-6.014-4.125-7.841c1.406-0.446,2.65-0.913,3.472-1.337
		c0.563-0.303,0.64-0.292,1.297-0.666c0.026-0.02,0.055-0.032,0.084-0.049c0,0,0.003,0,0.003-0.002
		c0.043-0.027,0.091-0.056,0.132-0.091c0.423-0.354,0.507-0.955,0.231-1.416v-0.007l-4.021-6.819l-0.01-0.001
		c-0.033-0.058-0.066-0.109-0.107-0.162c-0.361-0.426-0.976-0.508-1.435-0.217c-3.259,1.84-6.241,3.909-6.116,6.682
		c0.133,2.974,3.069,9.755,7.248,14.734c4.18,4.979,10.35,9.052,13.252,9.694C26.958,358.178,29.517,355.602,31.894,352.709"/>
	<path fill="#4CAF50" d="M31.894,424.709c0.365-0.402,0.393-1.021,0.031-1.451c-0.041-0.049-0.091-0.095-0.139-0.133l-0.001-0.01
		l-6.017-5.148l-0.01,0.004c-0.399-0.354-1.004-0.373-1.433-0.019c-0.04,0.034-0.077,0.074-0.11,0.116v0.001
		c-0.023,0.023-0.045,0.047-0.063,0.074c-0.484,0.579-0.487,0.658-0.882,1.163c-0.563,0.73-1.237,1.877-1.92,3.188
		c-1.779-0.437-4.328-2.234-7.006-5.429c-2.679-3.192-4.01-6.014-4.125-7.841c1.406-0.446,2.65-0.913,3.472-1.337
		c0.563-0.303,0.64-0.292,1.297-0.666c0.026-0.02,0.055-0.032,0.084-0.049c0,0,0.003,0,0.003-0.002
		c0.043-0.027,0.091-0.056,0.132-0.091c0.423-0.354,0.507-0.955,0.231-1.416v-0.007l-4.021-6.819l-0.01-0.001
		c-0.033-0.058-0.066-0.109-0.107-0.162c-0.361-0.427-0.976-0.509-1.435-0.218c-3.259,1.841-6.241,3.91-6.116,6.683
		c0.133,2.974,3.069,9.755,7.248,14.733c4.18,4.98,10.35,9.053,13.252,9.695C26.958,430.178,29.517,427.602,31.894,424.709"/>
	<path fill="#4CAF50" d="M30.905,389.883c0.398-0.37,0.479-0.982,0.158-1.443c-0.036-0.053-0.082-0.102-0.127-0.145v-0.01
		l-5.545-5.654l-0.01,0.004c-0.367-0.388-0.969-0.459-1.426-0.144c-0.043,0.031-0.083,0.068-0.121,0.106v0.001
		c-0.025,0.021-0.048,0.043-0.07,0.067c-0.533,0.535-0.541,0.613-0.979,1.082c-0.624,0.681-1.396,1.763-2.19,3.009
		c-1.734-0.591-4.115-2.604-6.504-6.021c-2.392-3.414-3.471-6.34-3.428-8.17c1.439-0.321,2.721-0.678,3.575-1.029
		c0.587-0.252,0.664-0.233,1.351-0.551c0.029-0.016,0.059-0.025,0.088-0.041c0,0,0.004,0.001,0.004-0.002
		c0.045-0.023,0.096-0.047,0.14-0.078c0.452-0.315,0.588-0.907,0.354-1.39v-0.007l-3.412-7.146l-0.01-0.002
		c-0.027-0.059-0.057-0.115-0.094-0.17c-0.322-0.456-0.928-0.592-1.409-0.342c-3.405,1.549-6.558,3.351-6.675,6.123
		c-0.126,2.974,2.208,9.984,5.938,15.311s9.521,9.919,12.356,10.813C25.513,394.901,28.285,392.557,30.905,389.883"/>
	<g opacity="0.25">
		<path fill="#4CAF50" d="M20.457,22.345c-0.776-0.034-1.538-0.336-2.205-0.719c-0.68-0.379-1.286-0.866-1.85-1.386
			c-1.104-1.066-2.027-2.309-2.603-3.746c1.211,0.964,2.221,2.024,3.291,3.021c0.521,0.509,1.062,0.994,1.606,1.474
			C19.255,21.468,19.808,21.914,20.457,22.345z"/>
	</g>
	<g opacity="0.25">
		<path fill="#4CAF50" d="M13.177,28.912c-0.776-0.034-1.539-0.336-2.205-0.72c-0.681-0.379-1.287-0.865-1.851-1.386
			c-1.104-1.065-2.026-2.308-2.603-3.746c1.211,0.964,2.221,2.025,3.291,3.021c0.521,0.509,1.062,0.994,1.606,1.474
			C11.972,28.034,12.526,28.481,13.177,28.912z"/>
	</g>
	<g opacity="0.5">
		<path fill="#4CAF50" d="M20.462,58.954c-0.771-0.102-1.503-0.47-2.134-0.908c-0.646-0.438-1.206-0.975-1.722-1.542
			c-1.008-1.158-1.818-2.477-2.266-3.958c1.123,1.065,2.034,2.211,3.014,3.296c0.476,0.553,0.971,1.083,1.473,1.609
			C19.339,57.975,19.853,58.468,20.462,58.954z"/>
	</g>
	<g opacity="0.5">
		<path fill="#4CAF50" d="M12.636,64.861c-0.771-0.101-1.502-0.469-2.134-0.907c-0.645-0.438-1.206-0.976-1.722-1.542
			c-1.008-1.158-1.818-2.477-2.266-3.958c1.123,1.065,2.035,2.211,3.015,3.295c0.476,0.553,0.97,1.083,1.472,1.608
			C11.513,63.882,12.026,64.375,12.636,64.861z"/>
	</g>
	<g opacity="0.75">
		<path fill="#4CAF50" d="M20.414,95.561c-0.759-0.167-1.457-0.599-2.047-1.09c-0.604-0.492-1.116-1.076-1.581-1.687
			c-0.902-1.242-1.596-2.625-1.912-4.142c1.025,1.16,1.834,2.38,2.717,3.546c0.426,0.592,0.873,1.164,1.326,1.731
			C19.382,94.489,19.849,95.024,20.414,95.561z"/>
	</g>
	<g opacity="0.75">
		<path fill="#4CAF50" d="M12.103,100.763c-0.76-0.168-1.457-0.599-2.047-1.091c-0.604-0.492-1.117-1.076-1.582-1.688
			c-0.901-1.241-1.596-2.625-1.912-4.141c1.024,1.16,1.834,2.38,2.716,3.546c0.426,0.592,0.873,1.164,1.327,1.731
			C11.069,99.69,11.537,100.226,12.103,100.763z"/>
	</g>
	<g>
		<path fill="#4CAF50" d="M20.462,130.954c-0.771-0.103-1.503-0.471-2.134-0.908c-0.646-0.438-1.206-0.976-1.722-1.543
			c-1.008-1.158-1.819-2.477-2.266-3.958c1.123,1.065,2.034,2.212,3.014,3.296c0.477,0.553,0.972,1.083,1.474,1.609
			C19.339,129.976,19.853,130.468,20.462,130.954z"/>
	</g>
	<g>
		<path fill="#4CAF50" d="M12.636,136.862c-0.771-0.101-1.502-0.47-2.134-0.907c-0.645-0.438-1.206-0.976-1.722-1.543
			c-1.008-1.158-1.818-2.477-2.266-3.958c1.123,1.064,2.035,2.211,3.015,3.296c0.476,0.553,0.971,1.083,1.473,1.608
			C11.513,135.883,12.026,136.375,12.636,136.862z"/>
	</g>
	<g>
		<path fill="#4CAF50" d="M20.457,166.346c-0.776-0.033-1.538-0.337-2.205-0.719c-0.68-0.381-1.286-0.866-1.85-1.388
			c-1.104-1.065-2.027-2.309-2.603-3.746c1.211,0.964,2.219,2.025,3.291,3.021c0.521,0.51,1.061,0.994,1.606,1.475
			C19.255,165.468,19.808,165.913,20.457,166.346z"/>
	</g>
	<g>
		<path fill="#4CAF50" d="M13.177,172.911c-0.776-0.032-1.539-0.337-2.205-0.719c-0.681-0.38-1.287-0.866-1.851-1.387
			c-1.104-1.066-2.026-2.31-2.603-3.746c1.211,0.964,2.22,2.025,3.291,3.021c0.521,0.511,1.061,0.995,1.606,1.477
			C11.972,172.034,12.526,172.482,13.177,172.911z"/>
	</g>
	<g>
		<path fill="#4CAF50" d="M20.457,202.346c-0.776-0.033-1.538-0.337-2.205-0.719c-0.68-0.381-1.286-0.866-1.85-1.388
			c-1.104-1.065-2.027-2.309-2.603-3.746c1.211,0.964,2.219,2.025,3.291,3.021c0.521,0.51,1.061,0.994,1.606,1.475
			C19.255,201.468,19.808,201.913,20.457,202.346z"/>
	</g>
	<g>
		<path fill="#4CAF50" d="M13.177,208.911c-0.776-0.032-1.539-0.337-2.205-0.719c-0.681-0.38-1.287-0.866-1.851-1.387
			c-1.104-1.066-2.026-2.31-2.603-3.746c1.211,0.964,2.22,2.025,3.291,3.021c0.521,0.511,1.061,0.995,1.606,1.477
			C11.972,208.034,12.526,208.482,13.177,208.911z"/>
	</g>
	<g>
		<path fill="#4CAF50" d="M20.4,237.74c-0.776,0.034-1.562-0.201-2.259-0.522c-0.711-0.319-1.357-0.751-1.965-1.222
			c-1.192-0.966-2.221-2.123-2.918-3.505c1.291,0.854,2.387,1.824,3.541,2.724c0.564,0.462,1.144,0.897,1.729,1.329
			C19.124,236.971,19.716,237.365,20.4,237.74z"/>
	</g>
	<g>
		<path fill="#4CAF50" d="M13.72,244.915c-0.776,0.034-1.563-0.2-2.26-0.522c-0.711-0.319-1.357-0.751-1.964-1.221
			c-1.192-0.967-2.221-2.123-2.919-3.506c1.291,0.854,2.389,1.824,3.541,2.724c0.564,0.462,1.145,0.897,1.73,1.329
			C12.443,244.148,13.033,244.543,13.72,244.915z"/>
	</g>
	<g>
		<path fill="#4CAF50" d="M20.457,274.346c-0.776-0.034-1.538-0.337-2.205-0.719c-0.68-0.381-1.286-0.866-1.85-1.388
			c-1.104-1.065-2.027-2.309-2.603-3.746c1.211,0.964,2.219,2.025,3.291,3.021c0.521,0.51,1.061,0.994,1.606,1.475
			C19.255,273.468,19.808,273.913,20.457,274.346z"/>
	</g>
	<g>
		<path fill="#4CAF50" d="M13.177,280.911c-0.776-0.032-1.539-0.337-2.205-0.719c-0.681-0.38-1.287-0.866-1.851-1.387
			c-1.104-1.066-2.026-2.31-2.603-3.746c1.211,0.964,2.22,2.025,3.291,3.021c0.521,0.511,1.061,0.995,1.606,1.477
			C11.972,280.034,12.526,280.482,13.177,280.911z"/>
	</g>
	<g>
		<path fill="#4CAF50" d="M20.462,310.953c-0.771-0.102-1.503-0.47-2.134-0.907c-0.646-0.438-1.206-0.976-1.722-1.543
			c-1.008-1.158-1.819-2.477-2.266-3.958c1.123,1.065,2.034,2.211,3.014,3.296c0.476,0.553,0.971,1.083,1.473,1.608
			C19.339,309.975,19.853,310.468,20.462,310.953z"/>
	</g>
	<g>
		<path fill="#4CAF50" d="M12.636,316.862c-0.771-0.101-1.502-0.47-2.134-0.908c-0.645-0.438-1.206-0.975-1.722-1.543
			c-1.008-1.157-1.818-2.476-2.266-3.958c1.123,1.065,2.035,2.211,3.014,3.296c0.477,0.554,0.971,1.083,1.473,1.609
			C11.513,315.883,12.026,316.375,12.636,316.862z"/>
	</g>
	<g>
		<path fill="#4CAF50" d="M20.462,346.953c-0.771-0.102-1.503-0.47-2.134-0.907c-0.646-0.438-1.206-0.976-1.722-1.543
			c-1.008-1.158-1.819-2.477-2.266-3.958c1.123,1.065,2.034,2.211,3.014,3.296c0.476,0.553,0.971,1.083,1.473,1.608
			C19.339,345.975,19.853,346.468,20.462,346.953z"/>
	</g>
	<g>
		<path fill="#4CAF50" d="M12.636,352.862c-0.771-0.101-1.502-0.47-2.134-0.908c-0.645-0.438-1.206-0.975-1.722-1.543
			c-1.008-1.157-1.818-2.476-2.266-3.958c1.123,1.065,2.035,2.211,3.014,3.296c0.477,0.554,0.971,1.083,1.473,1.609
			C11.513,351.883,12.026,352.375,12.636,352.862z"/>
	</g>
	<g>
		<path fill="#4CAF50" d="M20.413,383.561c-0.759-0.168-1.457-0.599-2.046-1.091c-0.604-0.492-1.117-1.076-1.581-1.688
			c-0.902-1.242-1.596-2.625-1.912-4.141c1.025,1.16,1.834,2.38,2.715,3.546c0.426,0.593,0.873,1.163,1.327,1.731
			C19.38,382.488,19.849,383.024,20.413,383.561z"/>
	</g>
	<g>
		<path fill="#4CAF50" d="M12.103,388.764c-0.76-0.168-1.457-0.6-2.047-1.091c-0.604-0.492-1.115-1.076-1.58-1.688
			c-0.902-1.242-1.596-2.625-1.914-4.141c1.027,1.159,1.834,2.38,2.717,3.546c0.426,0.592,0.873,1.163,1.326,1.73
			C11.069,387.691,11.537,388.227,12.103,388.764z"/>
	</g>
	<g>
		<path fill="#4CAF50" d="M20.462,418.953c-0.771-0.102-1.503-0.47-2.134-0.907c-0.646-0.438-1.206-0.976-1.722-1.544
			c-1.008-1.157-1.819-2.476-2.266-3.957c1.123,1.065,2.034,2.211,3.014,3.296c0.476,0.553,0.971,1.083,1.473,1.608
			C19.339,417.975,19.853,418.468,20.462,418.953z"/>
	</g>
	<g>
		<path fill="#4CAF50" d="M12.636,424.862c-0.771-0.101-1.502-0.47-2.134-0.908c-0.645-0.438-1.206-0.975-1.722-1.543
			c-1.008-1.158-1.818-2.476-2.266-3.958c1.123,1.065,2.035,2.211,3.014,3.296c0.477,0.554,0.971,1.083,1.473,1.609
			C11.513,423.883,12.026,424.375,12.636,424.862z"/>
	</g>
	<g>
		<path fill="#4CAF50" d="M20.457,454.346c-0.776-0.034-1.538-0.337-2.205-0.719c-0.68-0.381-1.286-0.866-1.85-1.388
			c-1.104-1.065-2.027-2.309-2.603-3.746c1.211,0.964,2.221,2.025,3.291,3.021c0.521,0.51,1.062,0.994,1.606,1.475
			C19.253,453.468,19.808,453.913,20.457,454.346z"/>
	</g>
	<g>
		<path fill="#4CAF50" d="M13.177,460.911c-0.776-0.032-1.539-0.337-2.205-0.719c-0.681-0.38-1.287-0.866-1.851-1.387
			c-1.104-1.066-2.026-2.31-2.603-3.746c1.211,0.964,2.221,2.025,3.291,3.021c0.521,0.511,1.061,0.995,1.606,1.477
			C11.972,460.034,12.526,460.482,13.177,460.911z"/>
	</g>
	<g opacity="0.75">
		<path fill="#4CAF50" d="M20.457,490.346c-0.776-0.034-1.538-0.337-2.205-0.719c-0.68-0.381-1.286-0.866-1.85-1.388
			c-1.104-1.065-2.027-2.309-2.603-3.746c1.211,0.964,2.221,2.025,3.291,3.021c0.521,0.51,1.062,0.994,1.606,1.475
			C19.253,489.468,19.808,489.913,20.457,490.346z"/>
	</g>
	<g opacity="0.75">
		<path fill="#4CAF50" d="M13.177,496.911c-0.776-0.032-1.539-0.337-2.205-0.719c-0.681-0.38-1.287-0.866-1.851-1.387
			c-1.104-1.066-2.026-2.31-2.603-3.746c1.211,0.964,2.221,2.025,3.291,3.021c0.521,0.511,1.061,0.995,1.606,1.477
			C11.972,496.034,12.526,496.482,13.177,496.911z"/>
	</g>
	<g opacity="0.5">
		<path fill="#4CAF50" d="M20.399,525.74c-0.776,0.034-1.563-0.201-2.26-0.522c-0.711-0.319-1.356-0.751-1.963-1.222
			c-1.192-0.966-2.221-2.123-2.918-3.505c1.291,0.854,2.387,1.824,3.541,2.724c0.563,0.462,1.144,0.897,1.729,1.329
			C19.123,524.971,19.714,525.365,20.399,525.74z"/>
	</g>
	<g opacity="0.5">
		<path fill="#4CAF50" d="M13.72,532.916c-0.776,0.033-1.563-0.201-2.26-0.523c-0.711-0.319-1.357-0.751-1.963-1.221
			c-1.193-0.967-2.221-2.123-2.919-3.506c1.291,0.854,2.388,1.824,3.541,2.724c0.563,0.462,1.144,0.897,1.729,1.329
			C12.443,532.148,13.034,532.543,13.72,532.916z"/>
	</g>
	<g opacity="0.25">
		<path fill="#4CAF50" d="M20.457,562.346c-0.776-0.034-1.538-0.337-2.205-0.719c-0.68-0.381-1.286-0.866-1.85-1.388
			c-1.104-1.065-2.027-2.309-2.603-3.746c1.211,0.964,2.221,2.025,3.291,3.021c0.521,0.51,1.062,0.994,1.606,1.475
			C19.253,561.468,19.808,561.913,20.457,562.346z"/>
	</g>
	<g opacity="0.25">
		<path fill="#4CAF50" d="M13.177,568.911c-0.776-0.032-1.539-0.336-2.205-0.719c-0.681-0.38-1.287-0.865-1.851-1.387
			c-1.104-1.066-2.026-2.31-2.603-3.746c1.211,0.964,2.22,2.026,3.291,3.021c0.521,0.51,1.061,0.994,1.606,1.476
			C11.972,568.034,12.526,568.482,13.177,568.911z"/>
	</g>
	<rect y="0" fill="#607D8B" fill-opacity="0" width="36" height="1152"/>
</g>
</svg>
