<?xml version="1.0" encoding="utf-8"?>
<!-- Generator: Adobe Illustrator 15.0.2, SVG Export Plug-In . SVG Version: 6.00 Build 0)  -->
<!DOCTYPE svg PUBLIC "-//W3C//DTD SVG 1.1//EN" "http://www.w3.org/Graphics/SVG/1.1/DTD/svg11.dtd">
<svg version="1.1" id="Calque_1" xmlns="http://www.w3.org/2000/svg" xmlns:xlink="http://www.w3.org/1999/xlink" x="0px" y="0px"
	 width="36px" height="504px" viewBox="0 0 36 504" enable-background="new 0 0 36 504" xml:space="preserve">
<g>
	<rect y="0" fill="#607D8B" fill-opacity="0" width="36" height="504"/>
	<g>
		<path fill="#2D2D2D" d="M15.81,3.324c1.729,0,3.373,0.328,4.888,0.977c1.056,0.456,2.042,1.041,2.92,1.732
			c0.372,0.3,0.722,0.611,1.036,0.926c1.126,1.122,2.029,2.465,2.688,3.992c0.651,1.51,0.981,3.148,0.981,4.87
			c0,1.726-0.33,3.357-0.979,4.854c-0.658,1.516-1.563,2.857-2.69,3.984c-1.123,1.12-2.464,2.023-3.984,2.682
			c-1.508,0.653-3.144,0.984-4.86,0.984c-1.045,0-2.065-0.123-3.039-0.367c-0.076-0.021-0.153-0.039-0.23-0.063l-0.066-0.019
			l-0.023-0.004c-0.48-0.139-0.947-0.302-1.385-0.484l-0.027-0.012l-0.023-0.009c-0.027-0.013-0.055-0.023-0.082-0.035
			c-0.554-0.24-1.074-0.507-1.586-0.815l-0.067-0.04c-0.08-0.048-0.157-0.099-0.235-0.148L8.921,26.25
			c-0.677-0.451-1.326-0.986-1.928-1.586c-0.756-0.764-1.416-1.619-1.959-2.542c-0.543-0.927-0.968-1.931-1.266-2.986
			c-0.295-1.048-0.445-2.164-0.445-3.315c0-1.152,0.15-2.27,0.445-3.32c0.295-1.055,0.722-2.059,1.264-2.983
			C5.578,8.59,6.236,7.74,6.989,6.989c0.744-0.744,1.595-1.402,2.527-1.953c0.927-0.542,1.932-0.968,2.99-1.264
			C13.556,3.474,14.667,3.324,15.81,3.324 M15.81,2.324c-1.234,0-2.424,0.158-3.572,0.482c-1.146,0.321-2.225,0.777-3.225,1.362
			c-0.998,0.59-1.914,1.292-2.73,2.11C5.464,7.097,4.761,8.007,4.171,9.007c-0.587,1.001-1.041,2.073-1.363,3.221
			c-0.323,1.147-0.483,2.344-0.483,3.591c0,1.244,0.16,2.441,0.483,3.587c0.322,1.147,0.776,2.22,1.363,3.221
			c0.59,1.001,1.293,1.914,2.111,2.74c0.641,0.64,1.332,1.213,2.083,1.714c0.13,0.083,0.26,0.17,0.394,0.251
			c0.023,0.014,0.047,0.026,0.067,0.04c0.548,0.33,1.121,0.625,1.726,0.887c0.043,0.016,0.082,0.036,0.127,0.053
			c0.496,0.208,1.01,0.385,1.541,0.536c0.01,0.003,0.022,0.005,0.034,0.007c0.093,0.027,0.185,0.051,0.276,0.074
			c1.053,0.264,2.146,0.396,3.279,0.396c1.86,0,3.613-0.355,5.257-1.066c1.64-0.71,3.073-1.674,4.293-2.892
			c1.223-1.225,2.188-2.656,2.899-4.295c0.713-1.638,1.063-3.39,1.063-5.25c0-1.859-0.351-3.614-1.063-5.267
			c-0.711-1.65-1.678-3.086-2.899-4.305c-0.354-0.354-0.728-0.685-1.114-0.996c-0.949-0.747-1.999-1.375-3.152-1.872
			C19.447,2.678,17.683,2.324,15.81,2.324L15.81,2.324z"/>
	</g>
	
		<line fill="none" stroke="#2D2D2D" stroke-linecap="round" stroke-miterlimit="10" x1="25.587" y1="25.594" x2="32.201" y2="32.208"/>
	<g>
		<path fill="#2D2D2D" d="M15.81,39.824c1.66,0,3.238,0.315,4.691,0.937c1.014,0.438,1.959,1,2.803,1.663
			c0.363,0.293,0.689,0.584,0.996,0.89c1.082,1.078,1.949,2.368,2.58,3.833c0.625,1.45,0.942,3.023,0.942,4.676
			c0,1.655-0.315,3.223-0.942,4.659c-0.63,1.454-1.498,2.741-2.582,3.825c-1.076,1.076-2.363,1.942-3.824,2.575
			c-1.448,0.626-3.018,0.944-4.666,0.944c-1.004,0-1.983-0.118-2.912-0.352c-0.076-0.02-0.153-0.039-0.23-0.062l-0.063-0.019
			l-0.02-0.003c-0.465-0.134-0.912-0.29-1.328-0.465l-0.027-0.012L11.2,62.905c-0.029-0.013-0.059-0.024-0.059-0.024s0,0,0,0.001
			c-0.528-0.229-1.047-0.495-1.527-0.784l-0.078-0.046c-0.07-0.042-0.141-0.088-0.209-0.133l-0.132-0.085
			c-0.649-0.435-1.274-0.947-1.851-1.522c-0.727-0.733-1.359-1.556-1.881-2.44c-0.521-0.891-0.93-1.854-1.214-2.867
			c-0.284-1.006-0.428-2.076-0.428-3.183s0.144-2.18,0.429-3.188c0.283-1.011,0.691-1.976,1.213-2.864
			c0.523-0.89,1.154-1.706,1.879-2.427c0.713-0.716,1.531-1.348,2.426-1.876c0.891-0.521,1.855-0.929,2.871-1.212
			C13.647,39.969,14.714,39.824,15.81,39.824 M15.81,38.824c-1.188,0-2.334,0.152-3.44,0.466c-1.104,0.309-2.142,0.748-3.104,1.312
			c-0.961,0.568-1.842,1.244-2.629,2.033c-0.789,0.787-1.467,1.663-2.033,2.626c-0.565,0.964-1.004,1.996-1.313,3.102
			c-0.312,1.104-0.466,2.258-0.466,3.458c0,1.197,0.154,2.352,0.466,3.454c0.31,1.104,0.749,2.138,1.313,3.102
			c0.566,0.965,1.244,1.843,2.033,2.639c0.616,0.616,1.281,1.168,2.006,1.65c0.125,0.08,0.25,0.164,0.379,0.242
			c0.021,0.014,0.045,0.025,0.063,0.038c0.528,0.317,1.079,0.603,1.662,0.854c0.04,0.015,0.078,0.035,0.122,0.05
			c0.479,0.2,0.973,0.371,1.484,0.518c0.009,0.003,0.021,0.005,0.033,0.007c0.088,0.025,0.176,0.049,0.266,0.07
			c1.014,0.255,2.066,0.383,3.158,0.383c1.791,0,3.479-0.343,5.063-1.027c1.579-0.684,2.959-1.612,4.135-2.785
			c1.178-1.178,2.108-2.557,2.793-4.135c0.687-1.577,1.023-3.265,1.023-5.056s-0.338-3.481-1.023-5.072
			c-0.685-1.588-1.615-2.971-2.793-4.146c-0.342-0.34-0.701-0.657-1.074-0.959c-0.914-0.719-1.924-1.323-3.035-1.803
			C19.312,39.165,17.614,38.824,15.81,38.824L15.81,38.824z"/>
	</g>
	
		<line fill="none" stroke="#2D2D2D" stroke-linecap="round" stroke-miterlimit="10" x1="25.587" y1="61.594" x2="32.201" y2="68.208"/>
	<g>
		<path fill="#2D2D2D" d="M15.81,76.324c1.592,0,3.104,0.303,4.498,0.897c0.972,0.418,1.877,0.958,2.687,1.593
			c0.343,0.277,0.664,0.563,0.954,0.853c1.037,1.034,1.869,2.27,2.473,3.674c0.6,1.39,0.903,2.896,0.903,4.48
			c0,1.587-0.304,3.088-0.903,4.465c-0.604,1.394-1.437,2.627-2.474,3.666c-1.033,1.03-2.267,1.861-3.666,2.468
			c-1.388,0.6-2.892,0.905-4.47,0.905c-0.963,0-1.901-0.113-2.791-0.338c-0.073-0.018-0.146-0.036-0.219-0.058l-0.061-0.017
			l-0.018-0.003c-0.444-0.127-0.873-0.278-1.276-0.446l-0.026-0.012l-0.025-0.01c-0.028-0.012-0.055-0.023-0.057-0.023
			c0,0,0,0,0.002,0.001c-0.508-0.219-1.005-0.476-1.471-0.754l-0.068-0.042c-0.069-0.042-0.138-0.085-0.205-0.129l-0.123-0.079
			c-0.625-0.417-1.223-0.908-1.773-1.459c-0.697-0.703-1.305-1.491-1.803-2.339c-0.5-0.853-0.891-1.776-1.164-2.748
			c-0.271-0.965-0.41-1.99-0.41-3.05c0-1.061,0.139-2.088,0.411-3.055c0.272-0.97,0.663-1.894,1.161-2.745
			c0.502-0.852,1.107-1.634,1.802-2.326c0.685-0.687,1.468-1.292,2.325-1.798c0.853-0.5,1.777-0.89,2.752-1.162
			C13.738,76.463,14.759,76.324,15.81,76.324 M15.81,75.324c-1.143,0-2.243,0.146-3.308,0.447c-1.063,0.297-2.059,0.72-2.985,1.262
			c-0.924,0.546-1.771,1.195-2.527,1.954c-0.76,0.757-1.41,1.6-1.955,2.525c-0.543,0.927-0.965,1.919-1.264,2.982
			c-0.299,1.062-0.447,2.17-0.447,3.324c0,1.151,0.148,2.261,0.447,3.321c0.299,1.063,0.721,2.055,1.264,2.982
			c0.545,0.928,1.195,1.771,1.955,2.538c0.593,0.593,1.232,1.123,1.929,1.587c0.121,0.077,0.241,0.157,0.365,0.231
			c0.021,0.014,0.043,0.025,0.062,0.037c0.508,0.305,1.039,0.579,1.599,0.821c0.039,0.015,0.075,0.033,0.116,0.048
			c0.459,0.192,0.936,0.357,1.428,0.497c0.009,0.003,0.021,0.005,0.031,0.007c0.086,0.025,0.17,0.047,0.256,0.068
			c0.975,0.245,1.986,0.367,3.035,0.367c1.724,0,3.347-0.329,4.869-0.987c1.518-0.658,2.846-1.55,3.975-2.678
			c1.132-1.134,2.027-2.458,2.686-3.977c0.659-1.517,0.984-3.139,0.984-4.862c0-1.722-0.325-3.347-0.984-4.877
			c-0.658-1.526-1.554-2.856-2.686-3.985c-0.328-0.327-0.674-0.632-1.032-0.922c-0.878-0.691-1.851-1.273-2.918-1.733
			C19.179,75.652,17.546,75.324,15.81,75.324L15.81,75.324z"/>
	</g>
	
		<line fill="none" stroke="#2D2D2D" stroke-linecap="round" stroke-miterlimit="10" x1="25.587" y1="97.594" x2="32.201" y2="104.208"/>
	<g>
		<path fill="#2D2D2D" d="M15.81,112.824c1.521,0,2.969,0.289,4.302,0.859c0.93,0.399,1.797,0.915,2.569,1.522
			c0.336,0.271,0.635,0.537,0.912,0.813c0.991,0.988,1.787,2.171,2.365,3.517c0.573,1.327,0.864,2.77,0.864,4.284
			c0,1.518-0.29,2.953-0.864,4.271c-0.576,1.334-1.374,2.514-2.365,3.507c-0.988,0.985-2.168,1.78-3.507,2.36
			c-1.329,0.574-2.767,0.865-4.276,0.865c-0.922,0-1.819-0.107-2.67-0.321c-0.07-0.019-0.143-0.036-0.213-0.058l-0.054-0.015
			l-0.015-0.003c-0.424-0.121-0.834-0.265-1.223-0.428l-0.026-0.013l-0.023-0.008l-0.052-0.021
			c-0.492-0.212-0.967-0.457-1.396-0.716l-0.074-0.044c-0.062-0.036-0.123-0.076-0.184-0.116l-0.13-0.083
			c-0.603-0.403-1.174-0.874-1.696-1.397c-0.668-0.674-1.25-1.428-1.726-2.237c-0.478-0.813-0.853-1.697-1.112-2.629
			c-0.261-0.922-0.393-1.902-0.393-2.916c0-1.015,0.132-1.997,0.393-2.923c0.26-0.928,0.635-1.811,1.112-2.625
			c0.478-0.813,1.058-1.562,1.724-2.225c0.653-0.656,1.403-1.235,2.223-1.721c0.816-0.478,1.701-0.852,2.633-1.11
			C13.829,112.956,14.806,112.824,15.81,112.824 M15.81,111.824c-1.096,0-2.153,0.142-3.174,0.43
			c-1.021,0.285-1.978,0.689-2.867,1.211c-0.887,0.523-1.699,1.147-2.426,1.877c-0.729,0.726-1.354,1.533-1.877,2.424
			s-0.928,1.842-1.214,2.862c-0.286,1.02-0.43,2.083-0.43,3.191c0,1.105,0.144,2.171,0.43,3.188
			c0.286,1.021,0.691,1.974,1.214,2.863c0.522,0.891,1.147,1.699,1.877,2.436c0.568,0.57,1.184,1.078,1.852,1.524
			c0.115,0.072,0.23,0.15,0.35,0.224c0.02,0.012,0.041,0.023,0.061,0.035c0.486,0.293,0.996,0.555,1.533,0.787
			c0.037,0.015,0.072,0.032,0.112,0.047c0.441,0.185,0.897,0.343,1.37,0.477c0.01,0.003,0.021,0.005,0.031,0.007
			c0.082,0.023,0.164,0.046,0.244,0.065c0.937,0.235,1.908,0.354,2.916,0.354c1.654,0,3.211-0.316,4.673-0.948
			c1.458-0.632,2.731-1.488,3.815-2.57c1.088-1.088,1.946-2.36,2.577-3.817c0.634-1.454,0.946-3.013,0.946-4.667
			c0-1.652-0.313-3.214-0.946-4.682c-0.631-1.467-1.489-2.743-2.577-3.827c-0.314-0.313-0.646-0.605-0.99-0.885
			c-0.844-0.664-1.776-1.222-2.803-1.663C19.044,112.14,17.476,111.824,15.81,111.824L15.81,111.824z"/>
	</g>
	
		<line fill="none" stroke="#2D2D2D" stroke-linecap="round" stroke-miterlimit="10" x1="25.587" y1="133.594" x2="32.201" y2="140.208"/>
	<g>
		<path fill="#2D2D2D" d="M15.812,149.324c1.449,0,2.832,0.275,4.105,0.82c0.889,0.382,1.717,0.873,2.452,1.453
			c0.313,0.253,0.606,0.515,0.871,0.777c0.946,0.943,1.706,2.072,2.258,3.355c0.548,1.268,0.825,2.645,0.825,4.09
			c0,1.447-0.277,2.818-0.825,4.075c-0.552,1.274-1.312,2.401-2.257,3.348c-0.943,0.94-2.07,1.699-3.35,2.253
			c-1.269,0.55-2.642,0.827-4.08,0.827c-0.881,0-1.738-0.104-2.551-0.308c-0.066-0.019-0.134-0.034-0.201-0.054l-0.049-0.015
			l-0.015-0.003c-0.405-0.116-0.8-0.254-1.205-0.423l-0.388,0.922l0.326-0.948c-0.473-0.204-0.928-0.438-1.355-0.694l-0.047-0.027
			c-0.059-0.036-0.117-0.074-0.175-0.111l-0.125-0.081c-0.577-0.386-1.123-0.835-1.62-1.334c-0.639-0.645-1.193-1.363-1.646-2.136
			c-0.457-0.776-0.813-1.621-1.063-2.51c-0.248-0.88-0.374-1.816-0.374-2.783c0-0.968,0.126-1.905,0.375-2.789
			c0.249-0.887,0.605-1.729,1.063-2.506s1.008-1.491,1.645-2.124c0.625-0.626,1.34-1.179,2.123-1.642
			c0.775-0.455,1.621-0.813,2.513-1.063C13.919,149.45,14.853,149.324,15.812,149.324 M15.812,148.324
			c-1.051,0-2.064,0.136-3.043,0.411c-0.979,0.273-1.895,0.661-2.746,1.16c-0.852,0.503-1.629,1.102-2.326,1.799
			c-0.698,0.695-1.297,1.47-1.799,2.323c-0.5,0.853-0.889,1.765-1.163,2.742c-0.275,0.978-0.412,1.997-0.412,3.06
			c0,1.061,0.137,2.08,0.412,3.056c0.274,0.979,0.661,1.892,1.163,2.743c0.5,0.854,1.101,1.629,1.799,2.334
			c0.545,0.548,1.134,1.033,1.773,1.461c0.111,0.07,0.223,0.146,0.336,0.216c0.019,0.011,0.039,0.021,0.057,0.032
			c0.466,0.281,0.955,0.531,1.47,0.754c0.036,0.016,0.069,0.031,0.106,0.046c0.424,0.178,0.861,0.328,1.313,0.457
			c0.009,0.003,0.021,0.005,0.03,0.007c0.078,0.021,0.156,0.043,0.234,0.063c0.896,0.227,1.828,0.338,2.793,0.338
			c1.586,0,3.08-0.304,4.479-0.909c1.396-0.604,2.618-1.426,3.658-2.463c1.042-1.042,1.865-2.262,2.469-3.657
			c0.607-1.396,0.907-2.888,0.907-4.474c0-1.584-0.3-3.08-0.907-4.485c-0.604-1.406-1.428-2.629-2.469-3.668
			c-0.303-0.3-0.619-0.581-0.95-0.849c-0.808-0.637-1.702-1.171-2.685-1.594C18.909,148.627,17.408,148.324,15.812,148.324
			L15.812,148.324z"/>
	</g>
	
		<line fill="none" stroke="#2D2D2D" stroke-linecap="round" stroke-miterlimit="10" x1="25.587" y1="169.594" x2="32.201" y2="176.207"/>
	<g>
		<path fill="#2D2D2D" d="M15.812,185.823c1.38,0,2.697,0.265,3.91,0.782c0.846,0.363,1.635,0.831,2.336,1.384
			c0.295,0.239,0.576,0.488,0.83,0.74c0.9,0.899,1.625,1.975,2.149,3.197c0.521,1.207,0.786,2.518,0.786,3.895
			c0,1.378-0.264,2.685-0.786,3.881c-0.524,1.216-1.249,2.288-2.149,3.188c-0.897,0.896-1.971,1.617-3.189,2.146
			c-1.206,0.523-2.514,0.788-3.887,0.788c-0.838,0-1.654-0.099-2.43-0.294c-0.063-0.016-0.125-0.032-0.188-0.05l-0.046-0.013
			l-0.014-0.003c-0.39-0.11-0.765-0.242-1.152-0.404l-0.393,0.92l0.336-0.944c-0.461-0.198-0.882-0.415-1.322-0.681l-0.026-0.015
			c-0.051-0.032-0.103-0.065-0.151-0.099l-0.121-0.078c-0.552-0.367-1.07-0.796-1.543-1.271c-0.608-0.613-1.137-1.298-1.568-2.035
			c-0.434-0.738-0.774-1.542-1.012-2.39c-0.236-0.838-0.356-1.729-0.356-2.65s0.12-1.813,0.356-2.656
			c0.236-0.845,0.578-1.646,1.012-2.386c0.435-0.741,0.961-1.421,1.566-2.022c0.594-0.597,1.274-1.123,2.021-1.563
			c0.736-0.433,1.542-0.771,2.393-1.011C14.011,185.945,14.897,185.823,15.812,185.823 M15.812,184.823
			c-1.006,0-1.976,0.13-2.911,0.396c-0.935,0.262-1.812,0.632-2.626,1.108c-0.814,0.481-1.559,1.054-2.225,1.722
			c-0.668,0.665-1.242,1.405-1.722,2.223c-0.479,0.815-0.851,1.688-1.112,2.622c-0.263,0.936-0.394,1.911-0.394,2.927
			c0,1.015,0.131,1.99,0.394,2.922c0.264,0.938,0.633,1.811,1.112,2.625c0.479,0.816,1.054,1.56,1.722,2.232
			c0.521,0.522,1.084,0.988,1.696,1.396c0.106,0.067,0.212,0.141,0.321,0.206c0.018,0.011,0.037,0.021,0.055,0.031
			c0.446,0.271,0.913,0.508,1.406,0.721c0.033,0.016,0.066,0.03,0.104,0.043c0.404,0.172,0.822,0.315,1.254,0.438
			c0.01,0.003,0.021,0.005,0.029,0.007c0.075,0.021,0.15,0.041,0.225,0.061c0.857,0.216,1.748,0.322,2.672,0.322
			c1.517,0,2.945-0.29,4.283-0.87c1.336-0.578,2.504-1.362,3.498-2.354c0.996-0.996,1.783-2.163,2.361-3.499
			c0.581-1.334,0.868-2.761,0.868-4.278c0-1.515-0.287-2.945-0.868-4.291c-0.578-1.346-1.365-2.515-2.361-3.509
			c-0.289-0.286-0.592-0.556-0.908-0.811c-0.773-0.609-1.629-1.12-2.568-1.524C18.775,185.115,17.339,184.823,15.812,184.823
			L15.812,184.823z"/>
	</g>
	
		<line fill="none" stroke="#2D2D2D" stroke-linecap="round" stroke-miterlimit="10" x1="25.587" y1="205.594" x2="32.201" y2="212.207"/>
	<g>
		<path fill="#2D2D2D" d="M15.812,222.323c1.312,0,2.562,0.25,3.716,0.743c0.804,0.346,1.553,0.79,2.219,1.315
			c0.281,0.226,0.547,0.463,0.788,0.702c0.855,0.854,1.543,1.876,2.042,3.037c0.496,1.147,0.747,2.393,0.747,3.699
			c0,1.31-0.251,2.549-0.747,3.688c-0.499,1.153-1.187,2.174-2.042,3.028c-0.854,0.852-1.873,1.536-3.032,2.038
			c-1.146,0.497-2.388,0.749-3.69,0.749c-0.797,0-1.572-0.094-2.312-0.278c-0.059-0.016-0.118-0.03-0.21-0.057
			c-0.385-0.107-0.738-0.23-1.12-0.392l-0.051-0.022c-0.433-0.187-0.844-0.396-1.222-0.626l-0.053-0.029v-0.001
			c-0.055-0.032-0.106-0.066-0.158-0.102l-0.107-0.069c-0.525-0.352-1.02-0.758-1.465-1.207c-0.579-0.584-1.081-1.233-1.491-1.934
			c-0.412-0.701-0.735-1.465-0.962-2.271c-0.225-0.797-0.338-1.644-0.338-2.519c0-0.874,0.113-1.723,0.338-2.522
			c0.227-0.803,0.55-1.564,0.962-2.269c0.412-0.702,0.912-1.348,1.488-1.921c0.563-0.565,1.211-1.066,1.921-1.486
			c0.701-0.41,1.465-0.732,2.273-0.959C14.101,222.439,14.944,222.323,15.812,222.323 M15.812,221.323
			c-0.959,0-1.885,0.124-2.777,0.377c-0.893,0.249-1.729,0.604-2.507,1.06c-0.778,0.46-1.488,1.005-2.124,1.643
			c-0.639,0.635-1.186,1.342-1.643,2.121c-0.459,0.779-0.812,1.611-1.063,2.503c-0.25,0.895-0.375,1.824-0.375,2.794
			c0,0.968,0.125,1.9,0.375,2.789c0.251,0.896,0.604,1.729,1.063,2.506c0.457,0.779,1.004,1.487,1.643,2.131
			c0.498,0.5,1.035,0.943,1.619,1.334c0.103,0.064,0.203,0.135,0.307,0.196c0.018,0.01,0.035,0.021,0.053,0.03
			c0.424,0.257,0.871,0.484,1.342,0.688c0.033,0.016,0.063,0.029,0.098,0.041c0.387,0.164,0.786,0.303,1.197,0.418
			c0.01,0.004,0.02,0.006,0.029,0.008c0.07,0.021,0.143,0.039,0.213,0.057c0.818,0.206,1.668,0.309,2.551,0.309
			c1.447,0,2.811-0.276,4.088-0.831c1.275-0.553,2.391-1.301,3.34-2.247c0.951-0.951,1.702-2.064,2.253-3.341
			c0.556-1.272,0.829-2.636,0.829-4.084c0-1.444-0.273-2.813-0.829-4.096c-0.552-1.285-1.304-2.4-2.253-3.35
			c-0.275-0.273-0.564-0.53-0.868-0.773c-0.737-0.582-1.554-1.069-2.452-1.455C18.642,221.602,17.271,221.323,15.812,221.323
			L15.812,221.323z"/>
	</g>
	
		<line fill="none" stroke="#2D2D2D" stroke-linecap="round" stroke-miterlimit="10" x1="25.587" y1="241.594" x2="32.201" y2="248.207"/>
	<g>
		<path fill="#2D2D2D" d="M15.812,258.823c1.244,0,2.428,0.237,3.52,0.704c0.762,0.327,1.473,0.748,2.104,1.246
			c0.269,0.216,0.52,0.44,0.746,0.664c0.813,0.813,1.463,1.779,1.935,2.88c0.47,1.087,0.708,2.267,0.708,3.504
			c0,1.239-0.238,2.413-0.708,3.493c-0.472,1.092-1.123,2.059-1.935,2.869c-0.808,0.806-1.773,1.455-2.873,1.931
			c-1.086,0.473-2.262,0.71-3.496,0.71c-0.754,0-1.489-0.089-2.19-0.266c-0.055-0.013-0.11-0.027-0.198-0.052
			c-0.354-0.101-0.699-0.221-1.06-0.37l-0.042-0.021l-0.006-0.002c-0.41-0.177-0.799-0.376-1.158-0.593l-0.055-0.031l-0.004-0.003
			c-0.049-0.028-0.1-0.063-0.148-0.095l-0.096-0.063c-0.5-0.334-0.967-0.719-1.389-1.144c-0.55-0.555-1.024-1.171-1.412-1.832
			c-0.391-0.663-0.697-1.387-0.912-2.151c-0.211-0.753-0.319-1.556-0.319-2.385c0-0.827,0.108-1.632,0.319-2.39
			c0.216-0.763,0.521-1.485,0.912-2.149s0.863-1.274,1.41-1.818c0.534-0.535,1.147-1.011,1.82-1.408
			c0.666-0.391,1.389-0.695,2.154-0.908C14.192,258.933,14.99,258.823,15.812,258.823 M15.812,257.823
			c-0.912,0-1.795,0.118-2.646,0.359c-0.85,0.236-1.646,0.573-2.387,1.008c-0.741,0.438-1.417,0.957-2.022,1.564
			c-0.606,0.604-1.129,1.276-1.563,2.02c-0.437,0.742-0.772,1.535-1.013,2.384c-0.237,0.853-0.356,1.737-0.356,2.661
			c0,0.922,0.119,1.812,0.356,2.656c0.24,0.853,0.576,1.646,1.013,2.387c0.437,0.742,0.957,1.416,1.563,2.029
			c0.475,0.477,0.986,0.897,1.543,1.271c0.098,0.063,0.192,0.128,0.293,0.188c0.016,0.01,0.032,0.02,0.049,0.029
			c0.406,0.243,0.83,0.461,1.279,0.653c0.03,0.016,0.059,0.028,0.092,0.039c0.369,0.156,0.75,0.288,1.142,0.398
			c0.009,0.003,0.019,0.005,0.026,0.007c0.068,0.02,0.137,0.037,0.205,0.054c0.778,0.196,1.588,0.294,2.428,0.294
			c1.379,0,2.677-0.265,3.894-0.792c1.216-0.525,2.277-1.237,3.183-2.141c0.904-0.906,1.621-1.966,2.146-3.181
			c0.528-1.214,0.79-2.512,0.79-3.891c0-1.376-0.262-2.679-0.79-3.899c-0.524-1.226-1.239-2.286-2.146-3.19
			c-0.264-0.261-0.539-0.505-0.828-0.736c-0.702-0.555-1.479-1.019-2.334-1.386C18.507,258.088,17.201,257.823,15.812,257.823
			L15.812,257.823z"/>
	</g>
	
		<line fill="none" stroke="#2D2D2D" stroke-linecap="round" stroke-miterlimit="10" x1="25.587" y1="277.594" x2="32.201" y2="284.207"/>
	<g>
		<path fill="#2D2D2D" d="M15.812,294.323c1.313,0,2.563,0.25,3.716,0.743c0.804,0.346,1.553,0.79,2.219,1.315
			c0.29,0.231,0.548,0.463,0.788,0.702c0.857,0.854,1.544,1.877,2.042,3.037c0.496,1.147,0.747,2.393,0.747,3.699
			c0,1.31-0.251,2.549-0.747,3.688c-0.498,1.151-1.187,2.172-2.042,3.028c-0.854,0.852-1.873,1.536-3.032,2.037
			c-1.147,0.498-2.389,0.75-3.69,0.75c-0.797,0-1.572-0.094-2.312-0.278c-0.059-0.016-0.118-0.03-0.21-0.057
			c-0.375-0.104-0.738-0.231-1.08-0.377l-0.046-0.02l-0.013-0.004l-0.023-0.012l-0.01-0.005c-0.425-0.183-0.836-0.393-1.205-0.614
			l-0.074-0.045c-0.056-0.031-0.107-0.066-0.16-0.103l-0.101-0.063c-0.524-0.352-1.019-0.758-1.465-1.205
			c-0.581-0.588-1.082-1.237-1.491-1.936c-0.412-0.701-0.736-1.465-0.962-2.271c-0.224-0.797-0.338-1.644-0.338-2.519
			c0-0.874,0.114-1.723,0.338-2.522c0.228-0.804,0.55-1.566,0.962-2.27c0.411-0.7,0.911-1.346,1.488-1.92
			c0.564-0.565,1.211-1.066,1.921-1.486c0.704-0.412,1.467-0.733,2.272-0.959C14.101,294.439,14.944,294.323,15.812,294.323
			 M15.812,293.323c-0.959,0-1.885,0.124-2.777,0.377c-0.893,0.248-1.729,0.604-2.507,1.06c-0.778,0.46-1.488,1.005-2.124,1.643
			c-0.639,0.635-1.186,1.341-1.643,2.12c-0.459,0.779-0.812,1.612-1.063,2.504c-0.25,0.895-0.375,1.823-0.375,2.794
			c0,0.968,0.125,1.9,0.375,2.789c0.251,0.896,0.604,1.729,1.063,2.506c0.457,0.779,1.004,1.486,1.643,2.131
			c0.498,0.5,1.035,0.943,1.619,1.334c0.103,0.064,0.203,0.135,0.307,0.195c0.018,0.011,0.035,0.021,0.053,0.031
			c0.424,0.256,0.871,0.484,1.342,0.687c0.033,0.017,0.063,0.03,0.098,0.041c0.387,0.164,0.786,0.304,1.197,0.419
			c0.01,0.004,0.02,0.006,0.029,0.008c0.07,0.021,0.143,0.039,0.213,0.057c0.818,0.206,1.668,0.309,2.551,0.309
			c1.447,0,2.811-0.277,4.088-0.832c1.275-0.552,2.391-1.3,3.34-2.246c0.951-0.952,1.702-2.064,2.253-3.341
			c0.556-1.272,0.829-2.637,0.829-4.084c0-1.444-0.273-2.813-0.829-4.096c-0.552-1.286-1.304-2.4-2.253-3.35
			c-0.275-0.274-0.564-0.53-0.868-0.773c-0.737-0.582-1.554-1.069-2.452-1.455C18.642,293.601,17.271,293.323,15.812,293.323
			L15.812,293.323z"/>
	</g>
	
		<line fill="none" stroke="#2D2D2D" stroke-linecap="round" stroke-miterlimit="10" x1="25.587" y1="313.594" x2="32.201" y2="320.207"/>
	<g>
		<path fill="#2D2D2D" d="M15.812,329.823c1.383,0,2.699,0.265,3.91,0.782c0.846,0.363,1.635,0.831,2.336,1.384
			c0.307,0.248,0.578,0.49,0.83,0.74c0.902,0.9,1.625,1.976,2.149,3.197c0.521,1.207,0.786,2.518,0.786,3.895
			c0,1.378-0.264,2.685-0.786,3.881c-0.524,1.212-1.248,2.285-2.149,3.188c-0.898,0.896-1.972,1.617-3.189,2.144
			c-1.209,0.524-2.518,0.79-3.887,0.79c-0.838,0-1.654-0.099-2.43-0.294c-0.063-0.016-0.125-0.032-0.188-0.05l-0.046-0.013
			l-0.014-0.003c-0.386-0.109-0.76-0.241-1.111-0.392l-0.055-0.021l-0.011-0.003l-0.013-0.007l-0.021-0.01
			c-0.441-0.188-0.873-0.409-1.246-0.632c-0.025-0.018-0.053-0.033-0.1-0.062c-0.059-0.034-0.115-0.072-0.171-0.108l-0.103-0.066
			c-0.552-0.367-1.07-0.796-1.543-1.27c-0.619-0.627-1.133-1.293-1.568-2.036c-0.434-0.738-0.774-1.542-1.012-2.39
			c-0.236-0.838-0.356-1.729-0.356-2.65s0.12-1.813,0.356-2.656c0.236-0.845,0.578-1.647,1.012-2.388
			c0.433-0.737,0.959-1.417,1.566-2.021c0.594-0.597,1.274-1.123,2.021-1.564c0.742-0.435,1.547-0.773,2.393-1.01
			C14.011,329.945,14.897,329.823,15.812,329.823 M15.812,328.823c-1.006,0-1.976,0.13-2.911,0.396
			c-0.935,0.26-1.812,0.632-2.626,1.108c-0.814,0.481-1.559,1.054-2.225,1.722c-0.668,0.665-1.242,1.403-1.722,2.221
			c-0.479,0.816-0.851,1.689-1.112,2.624c-0.263,0.936-0.394,1.909-0.394,2.927c0,1.015,0.131,1.99,0.394,2.922
			c0.264,0.938,0.633,1.811,1.112,2.625c0.479,0.816,1.054,1.558,1.722,2.232c0.521,0.522,1.084,0.988,1.696,1.396
			c0.106,0.067,0.212,0.141,0.321,0.204c0.018,0.013,0.037,0.021,0.055,0.033c0.446,0.269,0.913,0.508,1.406,0.719
			c0.033,0.018,0.066,0.032,0.104,0.043c0.404,0.173,0.822,0.317,1.254,0.439c0.01,0.003,0.021,0.005,0.029,0.007
			c0.075,0.021,0.15,0.041,0.225,0.061c0.857,0.216,1.748,0.322,2.672,0.322c1.517,0,2.945-0.292,4.283-0.872
			c1.336-0.577,2.504-1.36,3.498-2.354c0.996-0.998,1.783-2.163,2.361-3.499c0.581-1.334,0.868-2.763,0.868-4.278
			c0-1.515-0.287-2.946-0.868-4.291c-0.578-1.348-1.365-2.515-2.361-3.509c-0.289-0.288-0.592-0.556-0.908-0.811
			c-0.773-0.609-1.629-1.12-2.568-1.524C18.775,329.114,17.339,328.823,15.812,328.823L15.812,328.823z"/>
	</g>
	
		<line fill="none" stroke="#2D2D2D" stroke-linecap="round" stroke-miterlimit="10" x1="25.587" y1="349.594" x2="32.201" y2="356.207"/>
	<g>
		<path fill="#2D2D2D" d="M15.812,365.323c1.453,0,2.834,0.276,4.105,0.821c0.889,0.382,1.717,0.873,2.452,1.453
			c0.325,0.262,0.61,0.517,0.871,0.777c0.948,0.945,1.708,2.073,2.258,3.355c0.548,1.268,0.825,2.645,0.825,4.09
			c0,1.447-0.277,2.818-0.825,4.075c-0.55,1.271-1.31,2.398-2.257,3.348c-0.943,0.942-2.071,1.699-3.35,2.25
			c-1.271,0.552-2.644,0.83-4.08,0.83c-0.881,0-1.738-0.104-2.551-0.308c-0.066-0.018-0.134-0.034-0.201-0.054l-0.049-0.015
			l-0.015-0.003c-0.405-0.114-0.796-0.254-1.165-0.409l-0.061-0.025l-0.01-0.002l-0.011-0.006l-0.024-0.012
			c-0.451-0.191-0.898-0.42-1.332-0.679c-0.016-0.01-0.027-0.018-0.033-0.02l-0.021-0.016l-0.023-0.014
			c-0.063-0.036-0.122-0.076-0.182-0.115l-0.107-0.067c-0.577-0.387-1.123-0.836-1.619-1.333c-0.65-0.659-1.189-1.358-1.648-2.138
			c-0.455-0.776-0.813-1.621-1.063-2.51c-0.248-0.88-0.374-1.816-0.374-2.783c0-0.968,0.126-1.905,0.375-2.789
			c0.249-0.887,0.606-1.73,1.062-2.508c0.455-0.773,1.008-1.487,1.646-2.122c0.625-0.626,1.34-1.179,2.123-1.642
			c0.782-0.458,1.626-0.814,2.513-1.063C13.919,365.449,14.853,365.323,15.812,365.323 M15.812,364.323
			c-1.051,0-2.064,0.137-3.043,0.412c-0.979,0.271-1.895,0.661-2.746,1.16c-0.852,0.503-1.629,1.101-2.326,1.799
			c-0.698,0.695-1.297,1.468-1.799,2.321c-0.5,0.854-0.889,1.767-1.163,2.744c-0.275,0.978-0.412,1.995-0.412,3.06
			c0,1.061,0.137,2.08,0.412,3.056c0.274,0.979,0.661,1.892,1.163,2.743c0.5,0.854,1.101,1.627,1.799,2.334
			c0.545,0.548,1.134,1.033,1.773,1.461c0.111,0.07,0.223,0.146,0.336,0.214c0.019,0.013,0.039,0.021,0.057,0.034
			c0.466,0.279,0.955,0.531,1.47,0.751c0.036,0.019,0.069,0.034,0.106,0.045c0.424,0.181,0.861,0.332,1.313,0.461
			c0.009,0.003,0.021,0.005,0.03,0.007c0.078,0.021,0.156,0.043,0.234,0.063c0.896,0.227,1.828,0.338,2.793,0.338
			c1.586,0,3.08-0.306,4.479-0.912c1.396-0.603,2.618-1.423,3.658-2.46c1.042-1.044,1.865-2.262,2.469-3.657
			c0.607-1.396,0.907-2.89,0.907-4.474s-0.3-3.08-0.907-4.486c-0.604-1.408-1.428-2.629-2.469-3.668
			c-0.303-0.302-0.619-0.58-0.95-0.848c-0.808-0.637-1.702-1.171-2.685-1.594C18.909,364.626,17.408,364.323,15.812,364.323
			L15.812,364.323z"/>
	</g>
	
		<line fill="none" stroke="#2D2D2D" stroke-linecap="round" stroke-miterlimit="10" x1="25.587" y1="385.594" x2="32.201" y2="392.207"/>
	<g>
		<path fill="#2D2D2D" d="M15.81,400.823c1.522,0,2.971,0.289,4.302,0.86c0.93,0.398,1.797,0.915,2.569,1.521
			c0.342,0.276,0.641,0.542,0.912,0.814c0.994,0.991,1.789,2.174,2.365,3.516c0.573,1.328,0.864,2.771,0.864,4.285
			c0,1.518-0.29,2.953-0.864,4.271c-0.576,1.331-1.373,2.511-2.365,3.507c-0.99,0.986-2.168,1.78-3.508,2.355
			c-1.332,0.577-2.771,0.87-4.275,0.87c-0.922,0-1.819-0.107-2.67-0.321c-0.07-0.019-0.143-0.036-0.213-0.058l-0.054-0.015
			l-0.015-0.003c-0.424-0.121-0.833-0.267-1.217-0.43l-0.066-0.027l-0.009-0.003l-0.009-0.004l-0.028-0.013
			c-0.464-0.197-0.933-0.436-1.39-0.709c-0.016-0.01-0.026-0.016-0.03-0.018l-0.026-0.019l-0.027-0.017
			c-0.065-0.039-0.129-0.08-0.193-0.122l-0.111-0.07c-0.604-0.402-1.174-0.874-1.695-1.396c-0.683-0.692-1.248-1.425-1.727-2.239
			s-0.852-1.698-1.113-2.629c-0.26-0.922-0.392-1.903-0.392-2.916c0-1.016,0.132-1.997,0.394-2.923
			c0.26-0.929,0.635-1.813,1.111-2.627c0.477-0.812,1.055-1.559,1.723-2.224c0.654-0.655,1.404-1.234,2.225-1.72
			c0.82-0.479,1.705-0.854,2.632-1.111C13.829,400.955,14.806,400.823,15.81,400.823 M15.81,399.823
			c-1.096,0-2.153,0.143-3.174,0.431c-1.021,0.282-1.978,0.689-2.867,1.211c-0.887,0.523-1.699,1.147-2.426,1.877
			c-0.729,0.726-1.354,1.53-1.877,2.422c-0.522,0.891-0.928,1.844-1.214,2.864c-0.286,1.02-0.43,2.081-0.43,3.191
			c0,1.105,0.144,2.17,0.43,3.188c0.286,1.021,0.691,1.974,1.214,2.862c0.522,0.892,1.147,1.697,1.877,2.437
			c0.568,0.57,1.184,1.078,1.852,1.523c0.115,0.073,0.23,0.151,0.35,0.223c0.02,0.014,0.041,0.022,0.061,0.037
			c0.486,0.291,0.996,0.555,1.533,0.782c0.037,0.02,0.072,0.036,0.112,0.048c0.441,0.188,0.897,0.347,1.37,0.479
			c0.01,0.003,0.021,0.005,0.031,0.007c0.082,0.023,0.164,0.045,0.244,0.065c0.937,0.234,1.908,0.353,2.916,0.353
			c1.654,0,3.211-0.318,4.673-0.952c1.458-0.628,2.731-1.483,3.815-2.565c1.088-1.09,1.946-2.36,2.577-3.817
			c0.634-1.455,0.946-3.015,0.946-4.667s-0.313-3.214-0.946-4.682c-0.631-1.471-1.489-2.743-2.577-3.827
			c-0.314-0.315-0.646-0.606-0.99-0.885c-0.844-0.664-1.776-1.223-2.803-1.663C19.044,400.139,17.476,399.823,15.81,399.823
			L15.81,399.823z"/>
	</g>
	
		<line fill="none" stroke="#2D2D2D" stroke-linecap="round" stroke-miterlimit="10" x1="25.587" y1="421.594" x2="32.201" y2="428.207"/>
	<g>
		<path fill="#2D2D2D" d="M15.81,436.323c1.593,0,3.106,0.304,4.498,0.898c0.972,0.419,1.877,0.957,2.686,1.592
			c0.359,0.291,0.671,0.569,0.954,0.853c1.04,1.037,1.872,2.272,2.473,3.676c0.601,1.389,0.903,2.896,0.903,4.479
			c0,1.586-0.305,3.088-0.903,4.464c-0.602,1.391-1.435,2.624-2.474,3.666c-1.035,1.033-2.268,1.861-3.666,2.463
			c-1.395,0.604-2.896,0.91-4.471,0.91c-0.963,0-1.902-0.112-2.791-0.337c-0.074-0.019-0.149-0.038-0.224-0.06l-0.058-0.017
			l-0.016-0.003c-0.442-0.127-0.869-0.277-1.271-0.447l-0.07-0.03l-0.01-0.003l-0.007-0.003l-0.031-0.015
			c-0.485-0.206-0.96-0.446-1.45-0.737c-0.017-0.012-0.033-0.021-0.051-0.031l-0.007-0.006l-0.032-0.02
			c-0.068-0.041-0.137-0.085-0.203-0.128l-0.115-0.072c-0.629-0.42-1.227-0.912-1.772-1.459c-0.714-0.725-1.304-1.49-1.804-2.342
			s-0.891-1.775-1.164-2.748c-0.272-0.965-0.41-1.989-0.41-3.049c0-1.061,0.138-2.089,0.411-3.056
			c0.272-0.97,0.663-1.896,1.163-2.747c0.498-0.847,1.103-1.628,1.801-2.323c0.686-0.687,1.468-1.292,2.324-1.798
			c0.861-0.503,1.785-0.894,2.752-1.162C13.738,436.462,14.761,436.323,15.81,436.323 M15.81,435.323
			c-1.143,0-2.243,0.147-3.308,0.447c-1.063,0.295-2.059,0.72-2.985,1.262c-0.924,0.546-1.771,1.196-2.527,1.955
			c-0.76,0.756-1.41,1.595-1.955,2.522c-0.543,0.928-0.965,1.921-1.264,2.983s-0.447,2.167-0.447,3.325
			c0,1.151,0.148,2.26,0.447,3.32c0.299,1.063,0.721,2.056,1.264,2.981c0.545,0.929,1.195,1.769,1.955,2.537
			c0.593,0.595,1.232,1.123,1.929,1.588c0.121,0.076,0.241,0.157,0.365,0.23c0.021,0.015,0.043,0.024,0.062,0.039
			c0.508,0.303,1.039,0.578,1.599,0.814c0.039,0.021,0.075,0.038,0.116,0.05c0.459,0.194,0.936,0.36,1.428,0.501
			c0.009,0.003,0.021,0.005,0.031,0.007c0.086,0.023,0.17,0.047,0.256,0.067c0.975,0.245,1.986,0.367,3.035,0.367
			c1.724,0,3.347-0.333,4.869-0.992c1.518-0.652,2.846-1.546,3.975-2.673c1.132-1.136,2.027-2.459,2.686-3.977
			c0.659-1.516,0.984-3.141,0.984-4.861c0-1.723-0.325-3.348-0.984-4.877c-0.658-1.532-1.554-2.856-2.686-3.986
			c-0.329-0.328-0.674-0.632-1.032-0.922c-0.878-0.69-1.851-1.271-2.918-1.731C19.179,435.652,17.546,435.323,15.81,435.323
			L15.81,435.323z"/>
	</g>
	
		<line fill="none" stroke="#2D2D2D" stroke-linecap="round" stroke-miterlimit="10" x1="25.587" y1="457.594" x2="32.201" y2="464.207"/>
	<g>
		<path fill="#2D2D2D" d="M15.81,471.823c1.662,0,3.242,0.315,4.691,0.938c1.014,0.438,1.96,0.999,2.803,1.661
			c0.381,0.309,0.707,0.599,0.996,0.89c1.086,1.082,1.952,2.371,2.58,3.834c0.625,1.448,0.942,3.021,0.942,4.676
			c0,1.656-0.315,3.224-0.942,4.658c-0.628,1.45-1.496,2.738-2.582,3.825c-1.078,1.077-2.365,1.94-3.824,2.57
			c-1.453,0.63-3.022,0.948-4.666,0.948c-1.004,0-1.984-0.117-2.9-0.348l-0.074-0.021l-0.172-0.046l-0.059-0.017l-0.012-0.002
			c-0.468-0.135-0.916-0.292-1.332-0.469l-0.066-0.028l-0.006-0.002l-0.008-0.004l-0.043-0.02c-0.506-0.215-1.016-0.474-1.513-0.77
			c-0.021-0.015-0.042-0.026-0.063-0.039l-0.002-0.002l-0.027-0.018c-0.07-0.041-0.139-0.086-0.206-0.13l-0.128-0.081
			c-0.656-0.438-1.279-0.952-1.85-1.521c-0.744-0.756-1.36-1.557-1.883-2.442c-0.521-0.888-0.929-1.853-1.214-2.868
			c-0.284-1.006-0.428-2.076-0.428-3.181c0-1.107,0.144-2.18,0.428-3.188c0.284-1.015,0.693-1.979,1.214-2.865
			c0.518-0.885,1.149-1.699,1.879-2.426c0.709-0.713,1.527-1.345,2.426-1.876c0.896-0.524,1.859-0.933,2.869-1.213
			C13.647,471.968,14.714,471.823,15.81,471.823 M15.81,470.823c-1.188,0-2.334,0.153-3.44,0.465
			c-1.104,0.308-2.142,0.748-3.104,1.313c-0.961,0.568-1.842,1.243-2.629,2.033c-0.789,0.786-1.466,1.658-2.033,2.624
			c-0.564,0.964-1.004,1.997-1.313,3.104c-0.312,1.104-0.465,2.254-0.465,3.458c0,1.197,0.153,2.351,0.465,3.452
			c0.31,1.105,0.749,2.139,1.313,3.104c0.567,0.965,1.244,1.838,2.033,2.639c0.617,0.617,1.282,1.168,2.006,1.651
			c0.127,0.078,0.252,0.164,0.379,0.239c0.021,0.016,0.045,0.024,0.064,0.04c0.527,0.315,1.079,0.602,1.662,0.849
			c0.04,0.021,0.078,0.04,0.122,0.052c0.478,0.203,0.972,0.375,1.483,0.521c0.01,0.005,0.021,0.007,0.033,0.009
			c0.088,0.024,0.178,0.048,0.267,0.07c1.014,0.254,2.065,0.381,3.157,0.381c1.793,0,3.48-0.346,5.063-1.031
			c1.579-0.681,2.959-1.607,4.134-2.779c1.178-1.181,2.109-2.557,2.793-4.136c0.688-1.576,1.024-3.267,1.024-5.057
			c0-1.791-0.338-3.481-1.024-5.071c-0.684-1.595-1.615-2.973-2.793-4.146c-0.341-0.343-0.699-0.657-1.072-0.959
			c-0.914-0.719-1.926-1.323-3.035-1.802C19.312,471.163,17.614,470.823,15.81,470.823L15.81,470.823z"/>
	</g>
	
		<line fill="none" stroke="#2D2D2D" stroke-linecap="round" stroke-miterlimit="10" x1="25.587" y1="493.594" x2="32.201" y2="500.207"/>
</g>
</svg>
