<?xml version="1.0" encoding="utf-8"?>
<!-- Generator: Adobe Illustrator 15.0.2, SVG Export Plug-In . SVG Version: 6.00 Build 0)  -->
<!DOCTYPE svg PUBLIC "-//W3C//DTD SVG 1.1//EN" "http://www.w3.org/Graphics/SVG/1.1/DTD/svg11.dtd">
<svg version="1.1" id="Calque_1" xmlns="http://www.w3.org/2000/svg" xmlns:xlink="http://www.w3.org/1999/xlink" x="0px" y="0px"
	 width="36px" height="324px" viewBox="0 0 36 324" enable-background="new 0 0 36 324" xml:space="preserve">
<g>
	<rect y="0" fill="#607D8B" fill-opacity="0" width="36" height="324"/>
	<g>
		<path fill="#2D2D2D" d="M15.496,2.685l1.487,3.311c0.162,0.357,0.517,0.588,0.908,0.59c0.959,0.003,1.922,0.13,2.865,0.377
			c0.084,0.021,0.169,0.033,0.253,0.033c0.298,0,0.587-0.135,0.779-0.374l2.375-2.953L27.39,5.65l-1.414,3.426
			c-0.147,0.36-0.072,0.775,0.192,1.063c0.594,0.639,1.103,1.314,1.51,2.008c0.181,0.309,0.511,0.493,0.862,0.493
			c0.035,0,0.07-0.002,0.105-0.006l3.813-0.408l0.873,3.677l-3.394,1.415c-0.363,0.151-0.604,0.501-0.615,0.896
			c-0.023,0.873-0.137,1.725-0.332,2.534c-0.09,0.376,0.043,0.771,0.345,1.014l2.952,2.379l-1.986,3.23l-3.322-1.375
			c-0.123-0.052-0.254-0.076-0.383-0.076c-0.26,0-0.517,0.102-0.708,0.293c-0.562,0.563-1.256,1.099-2.062,1.592
			c-0.33,0.201-0.514,0.574-0.473,0.958l0.391,3.688l-3.676,0.881l-1.336-3.235c-0.154-0.372-0.516-0.615-0.918-0.618
			c-0.881-0.006-1.785-0.123-2.688-0.347c-0.08-0.021-0.161-0.029-0.241-0.029c-0.298,0-0.585,0.133-0.777,0.372l-2.265,2.803
			l-3.217-1.979l1.308-3.168c0.152-0.369,0.071-0.793-0.207-1.079c-0.625-0.644-1.181-1.385-1.65-2.208
			c-0.178-0.314-0.512-0.505-0.868-0.505c-0.036,0-0.071,0.002-0.106,0.006l-3.554,0.381l-0.88-3.681l3.186-1.324
			c0.367-0.153,0.609-0.51,0.615-0.909c0.014-0.876,0.145-1.789,0.391-2.712c0.102-0.381-0.031-0.787-0.338-1.035l-2.798-2.265
			l1.979-3.221l3.264,1.349c0.124,0.051,0.253,0.076,0.382,0.076c0.253,0,0.5-0.096,0.689-0.275
			c0.563-0.535,1.183-1.013,1.844-1.421c0.337-0.208,0.521-0.596,0.465-0.989l-0.506-3.644L15.496,2.685 M16.06,1.498l-5.328,1.438
			l0.629,4.519c-0.736,0.454-1.406,0.975-2.01,1.548L5.299,7.328l-2.886,4.694l3.48,2.817c-0.257,0.964-0.408,1.953-0.424,2.955
			l-3.972,1.65l1.282,5.365l4.429-0.476c0.508,0.892,1.11,1.701,1.802,2.411l-1.633,3.955l4.691,2.887l2.815-3.487
			c0.953,0.236,1.927,0.369,2.923,0.376l1.664,4.024l5.36-1.283l-0.483-4.562c0.826-0.506,1.594-1.083,2.249-1.738l4.11,1.7
			l2.895-4.706l-3.638-2.933c0.217-0.896,0.334-1.815,0.36-2.74l4.177-1.742l-1.272-5.36l-4.688,0.502
			c-0.474-0.806-1.031-1.528-1.64-2.183l1.737-4.213l-4.702-2.89L21.01,5.994c-1.011-0.266-2.06-0.406-3.114-0.41L16.06,1.498
			L16.06,1.498z"/>
	</g>
	<g>
		<path fill="#2D2D2D" d="M17.987,11.26L17.987,11.26c2.528,0,4.815,1.4,5.97,3.657c0.817,1.592,0.968,3.407,0.419,5.11
			c-0.549,1.705-1.73,3.096-3.326,3.915c-0.957,0.491-1.982,0.74-3.049,0.74c-2.528,0-4.813-1.398-5.965-3.652
			c-1.685-3.292-0.38-7.344,2.907-9.03C15.898,11.51,16.921,11.26,17.987,11.26 M17.987,10.26c-1.181,0-2.378,0.273-3.5,0.851
			c-3.778,1.939-5.276,6.592-3.341,10.376c1.363,2.667,4.062,4.196,6.855,4.196c1.183,0,2.382-0.272,3.505-0.851
			c3.793-1.947,5.285-6.59,3.34-10.373C23.481,11.794,20.782,10.26,17.987,10.26L17.987,10.26z"/>
	</g>
	<g>
		<path fill="#2D2D2D" d="M17.987,47.26L17.987,47.26c2.528,0,4.815,1.4,5.97,3.657c0.817,1.592,0.968,3.407,0.419,5.11
			c-0.549,1.705-1.73,3.096-3.326,3.915c-0.957,0.491-1.982,0.74-3.049,0.74c-2.528,0-4.813-1.398-5.965-3.652
			c-1.685-3.292-0.38-7.344,2.907-9.03C15.898,47.51,16.921,47.26,17.987,47.26 M17.987,46.26c-1.181,0-2.378,0.273-3.5,0.851
			c-3.778,1.939-5.276,6.592-3.341,10.376c1.363,2.667,4.062,4.196,6.855,4.196c1.183,0,2.382-0.272,3.505-0.851
			c3.793-1.947,5.285-6.59,3.34-10.373C23.481,47.794,20.782,46.26,17.987,46.26L17.987,46.26z"/>
	</g>
	<g>
		<path fill="#2D2D2D" d="M17.987,83.26L17.987,83.26c2.528,0,4.815,1.4,5.97,3.657c0.817,1.592,0.968,3.407,0.419,5.11
			c-0.549,1.705-1.73,3.096-3.326,3.915c-0.957,0.491-1.982,0.74-3.049,0.74c-2.528,0-4.813-1.398-5.965-3.652
			c-1.685-3.292-0.38-7.344,2.907-9.03C15.898,83.51,16.921,83.26,17.987,83.26 M17.987,82.26c-1.181,0-2.378,0.273-3.5,0.851
			c-3.778,1.939-5.276,6.592-3.341,10.376c1.363,2.667,4.062,4.196,6.855,4.196c1.183,0,2.382-0.272,3.505-0.851
			c3.793-1.947,5.285-6.59,3.34-10.373C23.481,83.794,20.782,82.26,17.987,82.26L17.987,82.26z"/>
	</g>
	<g>
		<path fill="#2D2D2D" d="M17.987,119.26L17.987,119.26c2.528,0,4.815,1.4,5.97,3.657c0.817,1.592,0.968,3.407,0.419,5.11
			c-0.549,1.704-1.73,3.096-3.326,3.915c-0.957,0.49-1.982,0.74-3.049,0.74c-2.528,0-4.813-1.398-5.965-3.652
			c-1.685-3.293-0.38-7.344,2.907-9.03C15.898,119.51,16.921,119.26,17.987,119.26 M17.987,118.26c-1.181,0-2.378,0.273-3.5,0.852
			c-3.778,1.939-5.276,6.591-3.341,10.375c1.363,2.668,4.062,4.197,6.855,4.197c1.183,0,2.382-0.272,3.505-0.852
			c3.793-1.947,5.285-6.59,3.34-10.373C23.481,119.794,20.782,118.26,17.987,118.26L17.987,118.26z"/>
	</g>
	<g>
		<path fill="#2D2D2D" d="M17.987,155.26L17.987,155.26c2.528,0,4.815,1.399,5.97,3.657c0.817,1.592,0.968,3.406,0.419,5.11
			s-1.73,3.095-3.326,3.915c-0.957,0.49-1.982,0.74-3.049,0.74c-2.528,0-4.813-1.399-5.965-3.652
			c-1.685-3.293-0.38-7.344,2.907-9.03C15.898,155.51,16.921,155.26,17.987,155.26 M17.987,154.26c-1.181,0-2.378,0.272-3.5,0.852
			c-3.778,1.939-5.276,6.59-3.341,10.375c1.363,2.668,4.062,4.197,6.855,4.197c1.183,0,2.382-0.273,3.505-0.853
			c3.793-1.946,5.285-6.59,3.34-10.372C23.481,155.794,20.782,154.26,17.987,154.26L17.987,154.26z"/>
	</g>
	<g>
		<path fill="#2D2D2D" d="M17.987,191.26L17.987,191.26c2.528,0,4.815,1.399,5.97,3.657c0.817,1.592,0.968,3.406,0.419,5.11
			s-1.73,3.095-3.326,3.915c-0.957,0.49-1.982,0.74-3.049,0.74c-2.528,0-4.813-1.399-5.965-3.652
			c-1.685-3.293-0.38-7.344,2.907-9.03C15.898,191.51,16.921,191.26,17.987,191.26 M17.987,190.26c-1.181,0-2.378,0.272-3.5,0.852
			c-3.778,1.939-5.276,6.59-3.341,10.375c1.363,2.668,4.062,4.197,6.855,4.197c1.183,0,2.382-0.273,3.505-0.853
			c3.793-1.946,5.285-6.59,3.34-10.372C23.481,191.794,20.782,190.26,17.987,190.26L17.987,190.26z"/>
	</g>
	<g>
		<path fill="#2D2D2D" d="M17.987,227.26L17.987,227.26c2.528,0,4.815,1.399,5.97,3.657c0.817,1.592,0.968,3.406,0.419,5.11
			s-1.73,3.095-3.326,3.915c-0.957,0.49-1.982,0.74-3.049,0.74c-2.528,0-4.813-1.399-5.965-3.652
			c-1.685-3.293-0.38-7.344,2.907-9.03C15.898,227.51,16.921,227.26,17.987,227.26 M17.987,226.26c-1.181,0-2.378,0.272-3.5,0.852
			c-3.778,1.939-5.276,6.59-3.341,10.375c1.363,2.668,4.062,4.197,6.855,4.197c1.183,0,2.382-0.273,3.505-0.853
			c3.793-1.946,5.285-6.59,3.34-10.372C23.481,227.794,20.782,226.26,17.987,226.26L17.987,226.26z"/>
	</g>
	<g>
		<path fill="#2D2D2D" d="M17.987,263.26L17.987,263.26c2.528,0,4.815,1.399,5.97,3.657c0.817,1.592,0.968,3.406,0.419,5.11
			s-1.73,3.095-3.326,3.915c-0.957,0.49-1.982,0.74-3.049,0.74c-2.528,0-4.813-1.399-5.965-3.652
			c-1.685-3.293-0.38-7.344,2.907-9.03C15.898,263.51,16.921,263.26,17.987,263.26 M17.987,262.26c-1.181,0-2.378,0.272-3.5,0.852
			c-3.778,1.939-5.276,6.59-3.341,10.375c1.363,2.668,4.062,4.197,6.855,4.197c1.183,0,2.382-0.273,3.505-0.853
			c3.793-1.946,5.285-6.59,3.34-10.372C23.481,263.794,20.782,262.26,17.987,262.26L17.987,262.26z"/>
	</g>
	<g>
		<path fill="#2D2D2D" d="M17.987,299.26L17.987,299.26c2.528,0,4.815,1.399,5.97,3.657c0.817,1.592,0.968,3.406,0.419,5.11
			s-1.73,3.095-3.326,3.915c-0.957,0.49-1.982,0.74-3.049,0.74c-2.528,0-4.813-1.399-5.965-3.652
			c-1.685-3.293-0.38-7.344,2.907-9.03C15.898,299.51,16.921,299.26,17.987,299.26 M17.987,298.26c-1.181,0-2.378,0.272-3.5,0.852
			c-3.778,1.939-5.276,6.59-3.341,10.375c1.363,2.668,4.062,4.197,6.855,4.197c1.183,0,2.382-0.273,3.505-0.853
			c3.793-1.946,5.285-6.59,3.34-10.372C23.481,299.794,20.782,298.26,17.987,298.26L17.987,298.26z"/>
	</g>
	<g>
		<path fill="#2D2D2D" d="M18.191,38.485l0.888,3.518c0.096,0.379,0.405,0.668,0.79,0.739c0.964,0.176,1.893,0.467,2.759,0.864
			c0.133,0.063,0.274,0.091,0.417,0.091c0.238,0,0.473-0.085,0.659-0.247l2.851-2.495l2.827,2.516l-1.985,3.127
			c-0.211,0.333-0.207,0.759,0.013,1.088c0.45,0.681,0.832,1.432,1.133,2.229c0.138,0.367,0.478,0.619,0.868,0.646l3.824,0.259
			l0.224,3.777L29.866,55.4c-0.39,0.087-0.688,0.396-0.765,0.788c-0.156,0.819-0.412,1.634-0.759,2.421
			c-0.155,0.355-0.094,0.769,0.161,1.062l2.493,2.857l-2.515,2.83l-3.034-1.924c-0.163-0.104-0.351-0.155-0.535-0.155
			c-0.2,0-0.399,0.061-0.571,0.18c-0.656,0.457-1.435,0.863-2.313,1.21c-0.359,0.142-0.604,0.477-0.631,0.861l-0.254,3.698
			l-3.773,0.227l-0.758-3.416c-0.088-0.392-0.399-0.693-0.793-0.767c-0.866-0.161-1.736-0.435-2.588-0.812
			c-0.129-0.059-0.269-0.086-0.405-0.086c-0.237,0-0.472,0.084-0.658,0.247L9.455,66.99l-2.823-2.513l1.838-2.893
			c0.214-0.338,0.207-0.771-0.02-1.103c-0.503-0.732-0.923-1.56-1.246-2.455c-0.136-0.373-0.478-0.63-0.873-0.656l-3.563-0.242
			l-0.224-3.782l3.36-0.748c0.386-0.086,0.686-0.392,0.763-0.78c0.177-0.883,0.465-1.762,0.858-2.613
			c0.166-0.357,0.105-0.779-0.152-1.076l-2.362-2.713l2.515-2.829l2.978,1.889c0.164,0.104,0.351,0.156,0.536,0.156
			c0.191,0,0.385-0.056,0.552-0.166c0.629-0.417,1.325-0.779,2.069-1.079c0.365-0.146,0.611-0.496,0.626-0.891l0.136-3.681
			L18.191,38.485 M18.952,37.414l-5.495,0.483l-0.169,4.563c-0.804,0.323-1.558,0.715-2.249,1.172l-3.696-2.345L3.68,45.41
			l2.939,3.376c-0.416,0.898-0.735,1.854-0.932,2.837l-4.192,0.933l0.327,5.512l4.441,0.302c0.35,0.963,0.801,1.86,1.361,2.68
			L5.332,64.66l4.115,3.663l3.379-2.948c0.898,0.398,1.833,0.698,2.81,0.881l0.943,4.248l5.503-0.329l0.313-4.576
			c0.904-0.355,1.758-0.791,2.519-1.32l3.753,2.381l3.663-4.125l-3.071-3.521c0.372-0.844,0.652-1.727,0.826-2.637l4.421-0.99
			l-0.324-5.505l-4.704-0.319c-0.326-0.87-0.738-1.682-1.234-2.43l2.439-3.845l-4.121-3.667l-3.515,3.076
			c-0.953-0.438-1.958-0.75-2.997-0.939L18.952,37.414L18.952,37.414z"/>
	</g>
	<g>
		<path fill="#2D2D2D" d="M17.109,74.427l3.769,0.327l0.265,3.618c0.028,0.391,0.283,0.729,0.65,0.864
			c0.92,0.341,1.784,0.788,2.566,1.33c0.171,0.118,0.369,0.179,0.568,0.179c0.18,0,0.358-0.049,0.52-0.146l3.238-1.963l2.347,2.967
			l-2.496,2.735c-0.267,0.291-0.336,0.71-0.181,1.072c0.328,0.756,0.574,1.562,0.729,2.396c0.072,0.385,0.363,0.693,0.743,0.787
			l3.723,0.919l-0.438,3.756l-3.678,0.169c-0.397,0.02-0.748,0.272-0.89,0.646c-0.292,0.772-0.687,1.532-1.168,2.253
			c-0.215,0.323-0.226,0.74-0.024,1.072l1.959,3.245l-2.965,2.353l-2.654-2.423c-0.188-0.172-0.43-0.263-0.674-0.263
			c-0.142,0-0.285,0.03-0.42,0.093c-0.731,0.339-1.569,0.604-2.488,0.792c-0.379,0.077-0.68,0.364-0.771,0.739l-0.892,3.6
			l-3.757-0.435l-0.152-3.495c-0.018-0.4-0.271-0.752-0.648-0.894c-0.828-0.311-1.639-0.73-2.406-1.249
			c-0.168-0.114-0.364-0.171-0.559-0.171c-0.18,0-0.359,0.048-0.519,0.144l-3.083,1.864L4.98,98.344l2.313-2.53
			c0.27-0.295,0.338-0.723,0.174-1.087c-0.369-0.812-0.639-1.699-0.802-2.636c-0.067-0.391-0.36-0.704-0.746-0.799l-3.467-0.855
			l0.437-3.764l3.439-0.153c0.396-0.018,0.744-0.267,0.889-0.637c0.325-0.838,0.762-1.653,1.299-2.423
			c0.226-0.324,0.239-0.75,0.037-1.087L6.696,79.29l2.967-2.352l2.604,2.378c0.188,0.173,0.43,0.263,0.674,0.263
			c0.135,0,0.271-0.027,0.398-0.083c0.691-0.302,1.439-0.537,2.225-0.701c0.387-0.081,0.689-0.382,0.772-0.77L17.109,74.427
			 M16.318,73.355l-0.959,4.463c-0.848,0.178-1.659,0.433-2.418,0.764l-3.233-2.952l-4.323,3.425l2.311,3.836
			c-0.566,0.813-1.047,1.698-1.411,2.632l-4.291,0.19l-0.636,5.484l4.322,1.066c0.176,1.011,0.465,1.972,0.875,2.877l-2.886,3.158
			l3.417,4.324l3.838-2.32c0.817,0.551,1.686,1.008,2.615,1.356l0.189,4.348l5.478,0.633l1.103-4.453
			c0.953-0.192,1.869-0.475,2.711-0.864l3.281,2.997l4.322-3.428l-2.413-3.999c0.513-0.768,0.943-1.588,1.271-2.455l4.527-0.208
			l0.635-5.475l-4.576-1.131c-0.17-0.914-0.437-1.785-0.793-2.61l3.068-3.363l-3.421-4.325l-3.993,2.42
			c-0.863-0.599-1.8-1.08-2.789-1.446l-0.328-4.468L16.318,73.355L16.318,73.355z"/>
	</g>
	<g>
		<path fill="#2D2D2D" d="M19.826,110.51l3.654,0.978l-0.368,3.609c-0.04,0.39,0.151,0.767,0.489,0.965
			c0.85,0.497,1.623,1.087,2.299,1.755c0.189,0.188,0.443,0.289,0.703,0.289c0.121,0,0.244-0.021,0.361-0.066l3.53-1.371
			l1.795,3.329l-2.935,2.262c-0.312,0.24-0.453,0.641-0.361,1.023c0.191,0.805,0.293,1.641,0.301,2.484
			c0.004,0.393,0.236,0.746,0.596,0.904l3.506,1.552l-1.082,3.625l-3.648-0.473c-0.043-0.006-0.087-0.009-0.129-0.009
			c-0.35,0-0.678,0.183-0.859,0.487c-0.426,0.715-0.943,1.395-1.541,2.019c-0.269,0.279-0.351,0.688-0.211,1.052l1.364,3.538
			l-3.33,1.802l-2.192-2.848c-0.191-0.249-0.486-0.391-0.791-0.391c-0.086,0-0.172,0.012-0.256,0.033
			c-0.779,0.206-1.649,0.322-2.586,0.345c-0.388,0.011-0.733,0.241-0.891,0.596l-1.503,3.389l-3.624-1.079l0.457-3.467
			c0.052-0.397-0.139-0.787-0.482-0.991c-0.763-0.452-1.488-1.007-2.156-1.649c-0.189-0.184-0.439-0.279-0.693-0.279
			c-0.122,0-0.244,0.021-0.361,0.066l-3.359,1.3l-1.793-3.327l2.717-2.092c0.316-0.244,0.458-0.653,0.359-1.041
			c-0.222-0.861-0.334-1.78-0.332-2.731c0.002-0.396-0.232-0.756-0.594-0.916l-3.268-1.445l1.083-3.632l3.415,0.446
			c0.043,0.006,0.086,0.009,0.13,0.009c0.346,0,0.671-0.18,0.854-0.479c0.467-0.771,1.039-1.496,1.701-2.161
			c0.276-0.279,0.364-0.696,0.223-1.064l-1.291-3.358l3.33-1.801l2.152,2.796c0.192,0.249,0.486,0.39,0.792,0.39
			c0.078,0,0.156-0.009,0.233-0.027c0.738-0.178,1.516-0.279,2.311-0.304c0.396-0.013,0.747-0.257,0.896-0.624L19.826,110.51
			 M19.23,109.316l-1.719,4.23c-0.865,0.025-1.709,0.138-2.514,0.331l-2.672-3.469l-4.852,2.621l1.606,4.182
			c-0.698,0.703-1.326,1.491-1.846,2.347l-4.259-0.557l-1.58,5.291l4.072,1.802c-0.002,1.025,0.115,2.021,0.362,2.982l-3.39,2.609
			l2.615,4.853l4.182-1.617c0.709,0.683,1.484,1.283,2.34,1.79l-0.566,4.313l5.283,1.573l1.859-4.192
			c0.971-0.022,1.922-0.141,2.818-0.378l2.711,3.521l4.853-2.625l-1.683-4.359c0.638-0.665,1.205-1.399,1.68-2.197l4.492,0.583
			l1.578-5.284l-4.313-1.907c-0.009-0.929-0.12-1.834-0.328-2.707l3.606-2.78l-2.617-4.854l-4.354,1.689
			c-0.746-0.737-1.584-1.374-2.496-1.907l0.455-4.455L19.23,109.316L19.23,109.316z"/>
	</g>
	<g>
		<path fill="#2D2D2D" d="M14.615,146.881l1.636,3.126c0.172,0.331,0.516,0.536,0.885,0.536c0.021,0,0.043-0.001,0.063-0.002
			c0.222-0.016,0.444-0.021,0.668-0.021c0.54,0,1.099,0.041,1.659,0.122c0.047,0.007,0.096,0.01,0.143,0.01
			c0.34,0,0.662-0.175,0.847-0.469l1.958-3.119l3.428,1.598l-0.988,3.489c-0.106,0.377,0.016,0.781,0.314,1.034
			c0.748,0.636,1.406,1.353,1.957,2.13c0.189,0.27,0.496,0.423,0.816,0.423c0.063,0,0.129-0.006,0.193-0.02l3.715-0.736l1.189,3.591
			l-3.28,1.717c-0.351,0.182-0.56,0.553-0.535,0.944c0.05,0.824,0.005,1.666-0.135,2.501c-0.063,0.387,0.104,0.775,0.429,0.994
			l3.184,2.137l-1.693,3.381l-3.514-1.097c-0.098-0.031-0.198-0.046-0.299-0.046c-0.285,0-0.563,0.122-0.756,0.346
			c-0.543,0.628-1.173,1.206-1.869,1.719c-0.313,0.229-0.465,0.617-0.391,0.998l0.73,3.722l-3.594,1.196l-1.664-3.187
			c-0.174-0.332-0.517-0.537-0.887-0.537c-0.027,0-0.057,0.001-0.086,0.004c-0.262,0.022-0.535,0.033-0.813,0.033
			c-0.566,0-1.17-0.047-1.795-0.141c-0.051-0.007-0.1-0.011-0.148-0.011c-0.33,0-0.643,0.162-0.83,0.441l-2.068,3.075l-3.381-1.691
			l1.051-3.338c0.121-0.383,0.002-0.801-0.304-1.062c-0.669-0.572-1.286-1.243-1.834-1.996c-0.19-0.261-0.493-0.411-0.809-0.411
			c-0.063,0-0.13,0.006-0.193,0.019l-3.534,0.697l-1.188-3.588l3.039-1.587c0.354-0.187,0.564-0.564,0.533-0.964
			c-0.067-0.89-0.019-1.813,0.148-2.75c0.07-0.392-0.098-0.785-0.427-1.006l-2.966-1.991l1.697-3.387l3.283,1.032
			c0.1,0.031,0.2,0.046,0.301,0.046c0.282,0,0.559-0.119,0.75-0.341c0.594-0.676,1.283-1.293,2.051-1.834
			c0.322-0.228,0.479-0.622,0.404-1.009l-0.688-3.531L14.615,146.881 M15.107,145.664l-5.233,1.736l0.857,4.396
			c-0.811,0.571-1.564,1.238-2.225,1.991l-4.098-1.288l-2.473,4.937l3.697,2.48c-0.18,1.012-0.237,2.014-0.161,3.004L1.681,164.9
			l1.732,5.232l4.399-0.867c0.58,0.797,1.239,1.522,1.994,2.168l-1.308,4.151l4.93,2.467l2.56-3.807
			c0.653,0.099,1.304,0.151,1.943,0.151c0.302,0,0.602-0.012,0.897-0.037l2.059,3.94l5.236-1.743l-0.898-4.585
			c0.742-0.545,1.428-1.169,2.033-1.869l4.324,1.351l2.471-4.928l-3.914-2.628c0.152-0.917,0.199-1.828,0.146-2.725l4.033-2.109
			l-1.734-5.235l-4.58,0.908c-0.607-0.857-1.322-1.632-2.127-2.313l1.222-4.311l-5-2.328l-2.427,3.866
			c-0.606-0.087-1.209-0.132-1.801-0.132c-0.246,0-0.49,0.008-0.732,0.023L15.107,145.664L15.107,145.664z"/>
	</g>
	<g>
		<path fill="#2D2D2D" d="M17.292,182.526l1.067,3.361c0.119,0.376,0.448,0.646,0.84,0.689c0.75,0.086,1.517,0.256,2.278,0.505
			c0.102,0.033,0.207,0.051,0.311,0.051c0.278,0,0.549-0.116,0.742-0.329l2.469-2.729l3.101,2.167l-1.58,3.266
			c-0.17,0.353-0.119,0.771,0.13,1.072c0.626,0.758,1.15,1.577,1.561,2.438c0.166,0.349,0.52,0.57,0.903,0.57
			c0.007,0,0.015,0,0.021,0l3.789-0.078l0.547,3.743l-3.529,1.119c-0.375,0.119-0.646,0.447-0.689,0.839
			c-0.097,0.821-0.287,1.643-0.567,2.438c-0.131,0.37-0.033,0.782,0.249,1.054l2.764,2.656l-2.256,3.037l-3.268-1.691
			c-0.146-0.074-0.303-0.111-0.461-0.111c-0.225,0-0.447,0.075-0.631,0.224c-0.649,0.528-1.371,0.988-2.14,1.367
			c-0.349,0.172-0.565,0.528-0.56,0.917l0.074,3.79l-3.746,0.555l-1.086-3.425c-0.123-0.383-0.461-0.656-0.861-0.693
			c-0.809-0.073-1.666-0.263-2.551-0.561c-0.104-0.035-0.211-0.053-0.318-0.053c-0.268,0-0.529,0.106-0.721,0.307l-2.571,2.671
			l-3.036-2.255l1.616-3.103c0.185-0.354,0.14-0.786-0.115-1.097c-0.562-0.683-1.053-1.452-1.462-2.287
			c-0.168-0.343-0.518-0.56-0.898-0.56c-0.006,0-0.013,0-0.02,0l-3.602,0.07l-0.547-3.738l3.268-1.035
			c0.381-0.121,0.654-0.457,0.693-0.855c0.086-0.887,0.297-1.788,0.625-2.684c0.135-0.372,0.039-0.79-0.246-1.063l-2.576-2.476
			l2.261-3.042l3.056,1.588c0.145,0.075,0.303,0.112,0.461,0.112c0.223,0,0.443-0.074,0.625-0.22
			c0.698-0.562,1.484-1.048,2.338-1.448c0.356-0.168,0.582-0.529,0.574-0.924l-0.066-3.599L17.292,182.526 M17.987,181.411
			l-5.457,0.807l0.082,4.477c-0.896,0.422-1.756,0.946-2.538,1.573l-3.811-1.98l-3.294,4.434l3.211,3.085
			c-0.354,0.964-0.584,1.941-0.682,2.93l-4.078,1.292l0.797,5.452l4.484-0.088c0.434,0.885,0.956,1.714,1.586,2.48l-2.009,3.858
			l4.427,3.287l3.183-3.305c0.921,0.311,1.854,0.523,2.778,0.608l1.344,4.236l5.457-0.81l-0.09-4.67
			c0.828-0.406,1.612-0.904,2.33-1.487l4.023,2.083l3.288-4.428l-3.397-3.267c0.31-0.876,0.514-1.764,0.617-2.657l4.34-1.377
			l-0.799-5.458l-4.67,0.097c-0.45-0.945-1.02-1.831-1.693-2.646l1.951-4.031l-4.521-3.161l-3.062,3.385
			c-0.824-0.271-1.654-0.454-2.477-0.549L17.987,181.411L17.987,181.411z"/>
	</g>
	<g>
		<path fill="#2D2D2D" d="M16.201,218.535l3.784,0.106l0.468,3.496c0.051,0.391,0.33,0.714,0.707,0.826
			c0.717,0.212,1.442,0.513,2.155,0.893c0.147,0.079,0.31,0.118,0.472,0.118c0.217,0,0.435-0.071,0.613-0.211l2.907-2.262
			l2.675,2.674l-2.123,2.941c-0.229,0.317-0.252,0.74-0.058,1.081c0.485,0.853,0.86,1.749,1.112,2.669
			c0.104,0.38,0.422,0.664,0.813,0.725l3.742,0.577l-0.11,3.78l-3.671,0.491c-0.391,0.052-0.713,0.328-0.824,0.705
			c-0.236,0.793-0.566,1.567-0.981,2.303c-0.192,0.343-0.169,0.765,0.063,1.081l2.261,3.098l-2.75,2.6l-2.924-2.235
			c-0.179-0.136-0.393-0.205-0.607-0.205c-0.167,0-0.336,0.042-0.487,0.127c-0.729,0.407-1.521,0.736-2.344,0.978
			c-0.372,0.107-0.647,0.422-0.708,0.805l-0.587,3.746l-3.784-0.104l-0.477-3.563c-0.053-0.397-0.34-0.727-0.729-0.832
			c-0.785-0.214-1.596-0.548-2.413-0.994c-0.149-0.082-0.315-0.122-0.479-0.122c-0.207,0-0.414,0.064-0.588,0.192l-2.998,2.186
			l-2.598-2.747l2.129-2.776c0.244-0.318,0.274-0.751,0.078-1.101c-0.433-0.767-0.783-1.608-1.042-2.505
			c-0.108-0.374-0.423-0.649-0.807-0.711l-3.56-0.556l0.11-3.776l3.397-0.453c0.396-0.053,0.724-0.337,0.832-0.722
			c0.24-0.858,0.604-1.711,1.082-2.533c0.198-0.344,0.176-0.771-0.059-1.092l-2.105-2.884l2.752-2.604l2.733,2.094
			c0.179,0.137,0.394,0.206,0.608,0.206c0.164,0,0.33-0.04,0.479-0.122c0.79-0.433,1.649-0.776,2.557-1.023
			c0.38-0.104,0.662-0.42,0.725-0.809L16.201,218.535 M15.35,217.512l-0.697,4.421c-0.955,0.261-1.893,0.63-2.771,1.11l-3.409-2.61
			l-4.013,3.794l2.625,3.595c-0.515,0.889-0.912,1.812-1.178,2.767l-4.242,0.564l-0.16,5.508l4.431,0.691
			c0.272,0.946,0.644,1.854,1.132,2.719l-2.648,3.454l3.789,4.005l3.709-2.704c0.853,0.466,1.735,0.838,2.629,1.081l0.589,4.406
			l5.514,0.152l0.724-4.614c0.885-0.258,1.744-0.612,2.553-1.063l3.601,2.751l4.009-3.787l-2.779-3.81
			c0.455-0.809,0.812-1.646,1.068-2.508l4.512-0.604l0.162-5.514l-4.615-0.712c-0.278-1.014-0.687-1.983-1.209-2.9l2.621-3.633
			l-3.901-3.898l-3.603,2.804c-0.764-0.407-1.551-0.735-2.342-0.97l-0.58-4.339L15.35,217.512L15.35,217.512z"/>
	</g>
	<g>
		<path fill="#2D2D2D" d="M18.915,254.463l3.707,0.763l-0.146,3.522c-0.018,0.396,0.199,0.763,0.553,0.938
			c0.682,0.339,1.342,0.76,1.967,1.252c0.18,0.144,0.397,0.215,0.618,0.215c0.16,0,0.32-0.038,0.468-0.116l3.256-1.723l2.172,3.097
			l-2.603,2.526c-0.28,0.273-0.377,0.686-0.245,1.055c0.33,0.924,0.543,1.873,0.631,2.823c0.037,0.394,0.302,0.728,0.674,0.854
			l3.586,1.222l-0.766,3.703l-3.699-0.152c-0.015-0.001-0.027-0.001-0.041-0.001c-0.379,0-0.726,0.213-0.896,0.553
			c-0.364,0.731-0.825,1.438-1.366,2.096c-0.248,0.303-0.298,0.723-0.125,1.074l1.688,3.442l-3.158,2.083l-2.493-2.708
			c-0.192-0.21-0.461-0.323-0.735-0.323c-0.11,0-0.221,0.02-0.33,0.057c-0.786,0.273-1.619,0.461-2.475,0.554
			c-0.386,0.042-0.713,0.303-0.839,0.67l-1.229,3.586l-3.709-0.76l0.15-3.591c0.018-0.403-0.21-0.776-0.574-0.947
			c-0.728-0.341-1.469-0.812-2.203-1.396c-0.181-0.145-0.4-0.219-0.623-0.219c-0.15,0-0.301,0.033-0.44,0.103l-3.33,1.632
			l-2.082-3.156l2.58-2.365c0.295-0.271,0.399-0.691,0.267-1.069c-0.291-0.828-0.492-1.721-0.592-2.648
			c-0.041-0.386-0.303-0.713-0.67-0.839l-3.408-1.165l0.765-3.7l3.425,0.146c0.014,0.001,0.027,0.001,0.042,0.001
			c0.384,0,0.735-0.221,0.901-0.568c0.386-0.806,0.892-1.582,1.502-2.306c0.257-0.305,0.31-0.729,0.135-1.086l-1.574-3.208
			l3.164-2.085l2.328,2.535c0.193,0.211,0.461,0.324,0.736,0.324c0.108,0,0.217-0.018,0.322-0.053
			c0.846-0.288,1.752-0.479,2.693-0.563c0.393-0.035,0.727-0.299,0.854-0.671L18.915,254.463 M18.253,253.307l-1.455,4.232
			c-0.986,0.092-1.975,0.29-2.922,0.612l-2.904-3.164l-4.61,3.038l1.961,3.999c-0.661,0.782-1.212,1.623-1.641,2.521l-4.274-0.183
			l-1.115,5.396l4.242,1.45c0.105,0.979,0.313,1.938,0.644,2.873l-3.208,2.941l3.035,4.604l4.121-2.02
			c0.76,0.606,1.563,1.128,2.401,1.521l-0.187,4.44l5.406,1.107l1.514-4.418c0.916-0.101,1.822-0.3,2.697-0.604l3.068,3.334
			l4.604-3.035l-2.074-4.232c0.59-0.718,1.087-1.479,1.488-2.282l4.547,0.188l1.117-5.399l-4.422-1.506
			c-0.098-1.046-0.328-2.071-0.686-3.067l3.213-3.12l-3.167-4.518l-4.035,2.136c-0.68-0.536-1.397-0.993-2.139-1.362l0.183-4.374
			L18.253,253.307L18.253,253.307z"/>
	</g>
	<g>
		<path fill="#2D2D2D" d="M21.596,290.863l3.519,1.396l-0.756,3.442c-0.085,0.387,0.064,0.784,0.383,1.02
			c0.61,0.452,1.188,0.981,1.715,1.575c0.193,0.217,0.467,0.335,0.748,0.335c0.103,0,0.205-0.017,0.308-0.05l3.505-1.132
			l1.602,3.428l-3.002,2.037c-0.324,0.221-0.49,0.609-0.424,0.996c0.164,0.963,0.209,1.936,0.131,2.889
			c-0.031,0.393,0.17,0.768,0.516,0.957l3.32,1.824l-1.396,3.518l-3.618-0.793c-0.071-0.017-0.144-0.023-0.214-0.023
			c-0.313,0-0.611,0.146-0.803,0.404c-0.492,0.663-1.067,1.277-1.709,1.825c-0.299,0.255-0.42,0.66-0.312,1.037l1.063,3.684
			l-3.473,1.502l-1.982-3.099c-0.187-0.29-0.506-0.461-0.842-0.461c-0.053,0-0.105,0.004-0.158,0.013
			c-0.579,0.093-1.178,0.14-1.78,0.14c-0.253,0-0.507-0.008-0.759-0.023c-0.021-0.001-0.042-0.002-0.064-0.002
			c-0.361,0-0.697,0.195-0.875,0.517l-1.833,3.319l-3.521-1.394l0.771-3.511c0.087-0.394-0.071-0.801-0.401-1.032
			c-0.657-0.464-1.307-1.056-1.926-1.76c-0.193-0.219-0.469-0.339-0.75-0.339c-0.093,0-0.187,0.013-0.277,0.039l-3.563,1.027
			l-1.502-3.471l2.95-1.879c0.338-0.216,0.516-0.611,0.449-1.008c-0.145-0.866-0.186-1.778-0.123-2.71
			c0.025-0.388-0.174-0.756-0.516-0.943l-3.154-1.738l1.396-3.513l3.349,0.737c0.07,0.016,0.144,0.023,0.215,0.023
			c0.318,0,0.623-0.152,0.814-0.419c0.514-0.72,1.146-1.396,1.881-2.013c0.303-0.255,0.428-0.664,0.317-1.044L9.82,292.76
			l3.478-1.504l1.853,2.902c0.187,0.29,0.505,0.462,0.843,0.462c0.051,0,0.102-0.004,0.152-0.012
			c0.564-0.087,1.148-0.131,1.739-0.131c0.334,0,0.675,0.015,1.012,0.042c0.028,0.003,0.056,0.004,0.083,0.004
			c0.361,0,0.698-0.195,0.875-0.516L21.596,290.863 M21.146,289.609l-2.168,3.917c-0.362-0.03-0.728-0.046-1.095-0.046
			c-0.631,0-1.264,0.046-1.891,0.143l-2.311-3.62l-5.066,2.19l1.236,4.277c-0.787,0.659-1.477,1.389-2.053,2.197l-4.178-0.921
			l-2.035,5.121l3.926,2.165c-0.066,0.981-0.029,1.963,0.134,2.941l-3.669,2.338l2.191,5.06l4.408-1.271
			c0.643,0.729,1.344,1.383,2.102,1.916l-0.954,4.342l5.13,2.03l2.258-4.09c0.274,0.018,0.549,0.025,0.823,0.025
			c0.647,0,1.296-0.05,1.938-0.151l2.441,3.813l5.063-2.188l-1.31-4.529c0.706-0.604,1.326-1.269,1.861-1.989l4.446,0.977
			l2.037-5.127l-4.094-2.25c0.086-1.046,0.035-2.099-0.143-3.139l3.706-2.517l-2.335-4.998l-4.346,1.403
			c-0.576-0.647-1.203-1.223-1.867-1.714l0.938-4.274L21.146,289.609L21.146,289.609z"/>
	</g>
</g>
</svg>
