<?xml version="1.0" encoding="utf-8"?>
<!-- Generator: Adobe Illustrator 15.0.2, SVG Export Plug-In . SVG Version: 6.00 Build 0)  -->
<!DOCTYPE svg PUBLIC "-//W3C//DTD SVG 1.1//EN" "http://www.w3.org/Graphics/SVG/1.1/DTD/svg11.dtd">
<svg version="1.1" id="Calque_1" xmlns="http://www.w3.org/2000/svg" xmlns:xlink="http://www.w3.org/1999/xlink" x="0px" y="0px"
	 width="36px" height="216px" viewBox="0 0 36 216" enable-background="new 0 0 36 216" xml:space="preserve">
<g>
	<rect fill="#607D8B" fill-opacity="0" width="36" height="216"/>
	<g>
		<path fill="#607D8B" d="M19.001,4c4.411,0,8,3.589,8,8v12c0,4.411-3.589,8-8,8h-2c-4.41,0-8-3.589-8-8V12c0-4.411,3.59-8,8-8
			H19.001 M19.001,2h-2c-5.5,0-10,4.5-10,10v12c0,5.5,4.5,10,10,10h2c5.5,0,10-4.5,10-10V12C29.001,6.5,24.501,2,19.001,2L19.001,2z
			"/>
	</g>
	<path fill="#607D8B" d="M19.501,12c0,0.55-0.449,1-1,1h-1c-0.55,0-1-0.45-1-1V8c0-0.55,0.45-1,1-1h1c0.551,0,1,0.45,1,1V12z"/>
	<g>
		<path fill="#607D8B" d="M19.001,40c4.411,0,8,3.589,8,8v12c0,4.411-3.589,8-8,8h-2c-4.41,0-8-3.589-8-8V48c0-4.411,3.59-8,8-8
			H19.001 M19.001,38h-2c-5.5,0-10,4.5-10,10v12c0,5.5,4.5,10,10,10h2c5.5,0,10-4.5,10-10V48C29.001,42.5,24.501,38,19.001,38
			L19.001,38z"/>
	</g>
	<path opacity="0.8" fill="#607D8B" enable-background="new    " d="M19.501,51c0,0.55-0.449,1-1,1h-1c-0.55,0-1-0.45-1-1v-4
		c0-0.55,0.45-1,1-1h1c0.551,0,1,0.45,1,1V51z"/>
	<g>
		<path fill="#607D8B" d="M19.001,76c4.411,0,8,3.589,8,8v12c0,4.411-3.589,8-8,8h-2c-4.41,0-8-3.589-8-8V84c0-4.411,3.59-8,8-8
			H19.001 M19.001,74h-2c-5.5,0-10,4.5-10,10v12c0,5.5,4.5,10,10,10h2c5.5,0,10-4.5,10-10V84C29.001,78.5,24.501,74,19.001,74
			L19.001,74z"/>
	</g>
	<path opacity="0.6" fill="#607D8B" enable-background="new    " d="M19.501,90c0,0.55-0.449,1-1,1h-1c-0.55,0-1-0.45-1-1v-4
		c0-0.55,0.45-1,1-1h1c0.551,0,1,0.45,1,1V90z"/>
	<g>
		<path fill="#607D8B" d="M19.001,112c4.411,0,8,3.589,8,8v12c0,4.411-3.589,8-8,8h-2c-4.41,0-8-3.589-8-8v-12c0-4.411,3.59-8,8-8
			H19.001 M19.001,110h-2c-5.5,0-10,4.5-10,10v12c0,5.5,4.5,10,10,10h2c5.5,0,10-4.5,10-10v-12C29.001,114.5,24.501,110,19.001,110
			L19.001,110z"/>
	</g>
	<path opacity="0.4" fill="#607D8B" enable-background="new    " d="M19.501,129c0,0.549-0.449,1-1,1h-1c-0.55,0-1-0.451-1-1v-4
		c0-0.551,0.45-1,1-1h1c0.551,0,1,0.449,1,1V129z"/>
	<g>
		<path fill="#607D8B" d="M19.001,148c4.411,0,8,3.589,8,8v12c0,4.41-3.589,8-8,8h-2c-4.41,0-8-3.59-8-8v-12c0-4.411,3.59-8,8-8
			H19.001 M19.001,146h-2c-5.5,0-10,4.5-10,10v12c0,5.5,4.5,10,10,10h2c5.5,0,10-4.5,10-10v-12C29.001,150.5,24.501,146,19.001,146
			L19.001,146z"/>
	</g>
	<path opacity="0.2" fill="#607D8B" enable-background="new    " d="M19.501,168c0,0.549-0.449,1-1,1h-1c-0.55,0-1-0.451-1-1v-4
		c0-0.551,0.45-1,1-1h1c0.551,0,1,0.449,1,1V168z"/>
	<g>
		<path fill="#607D8B" d="M19.001,184c4.411,0,8,3.59,8,8v12c0,4.41-3.589,8-8,8h-2c-4.41,0-8-3.59-8-8v-12c0-4.41,3.59-8,8-8
			H19.001 M19.001,182h-2c-5.5,0-10,4.5-10,10v12c0,5.5,4.5,10,10,10h2c5.5,0,10-4.5,10-10v-12C29.001,186.5,24.501,182,19.001,182
			L19.001,182z"/>
	</g>
	<path fill="#607D8B" fill-opacity="0" d="M19.501,207c0,0.549-0.449,1-1,1h-1c-0.55,0-1-0.451-1-1v-4c0-0.551,0.45-1,1-1h1
		c0.551,0,1,0.449,1,1V207z"/>
</g>
</svg>
