<?xml version="1.0" encoding="utf-8"?>
<!-- Generator: Adobe Illustrator 15.0.2, SVG Export Plug-In . SVG Version: 6.00 Build 0)  -->
<!DOCTYPE svg PUBLIC "-//W3C//DTD SVG 1.1//EN" "http://www.w3.org/Graphics/SVG/1.1/DTD/svg11.dtd">
<svg version="1.1" id="Calque_1" xmlns="http://www.w3.org/2000/svg" xmlns:xlink="http://www.w3.org/1999/xlink" x="0px" y="0px"
	 width="36px" height="432px" viewBox="0 0 36 432" enable-background="new 0 0 36 432" xml:space="preserve">
<g>
	<rect y="0" fill="#607D8B" fill-opacity="0" width="36" height="432"/>
	<g>
		<path fill="#2D2D2D" d="M18,2c5.327,0,9.5,4.172,9.5,9.499c0,6.149-7.142,15.161-9.5,17.968c-2.357-2.807-9.5-11.818-9.5-17.968
			C8.5,6.172,12.674,2,18,2 M18,1C12.15,1,7.5,5.649,7.5,11.499C7.5,19.302,18,31,18,31s10.5-11.699,10.5-19.501
			C28.5,5.649,23.854,1,18,1L18,1z"/>
	</g>
	<g>
		<path fill="#2D2D2D" d="M18,7.501c2.244,0,4.001,1.756,4.001,3.997c0,2.24-1.757,3.996-4.001,3.996
			c-2.242,0-3.999-1.756-3.999-3.996C14.001,9.257,15.758,7.501,18,7.501 M18,6.501c-2.798,0-4.999,2.194-4.999,4.997
			c0,2.798,2.201,4.996,4.999,4.996c2.795,0,5.001-2.194,5.001-4.996C23.001,8.696,20.795,6.501,18,6.501L18,6.501z"/>
	</g>
	<g>
		<path fill="#2D2D2D" d="M18,39c5.327,0,9.5,4.172,9.5,9.499c0,6.149-7.142,15.161-9.5,17.968c-2.357-2.807-9.5-11.818-9.5-17.968
			C8.5,43.172,12.674,39,18,39 M18,38c-5.85,0-10.5,4.648-10.5,10.499C7.5,56.302,18,68,18,68s10.5-11.699,10.5-19.501
			C28.5,42.649,23.854,38,18,38L18,38z"/>
	</g>
	<g>
		<path fill="#2D2D2D" d="M18,44.501c2.244,0,4.001,1.756,4.001,3.998c0,2.241-1.757,3.996-4.001,3.996
			c-2.242,0-3.999-1.755-3.999-3.996C14.001,46.257,15.758,44.501,18,44.501 M18,43.501c-2.8,0-4.999,2.195-4.999,4.998
			c0,2.798,2.199,4.996,4.999,4.996c2.795,0,5.001-2.195,5.001-4.996C23.001,45.697,20.795,43.501,18,43.501L18,43.501z"/>
	</g>
	<g>
		<path fill="#2D2D2D" d="M18,76c5.327,0,9.5,4.172,9.5,9.499c0,6.149-7.142,15.161-9.5,17.968c-2.357-2.807-9.5-11.818-9.5-17.968
			C8.5,80.172,12.674,76,18,76 M18,75c-5.85,0-10.5,4.648-10.5,10.499C7.5,93.302,18,105,18,105s10.5-11.699,10.5-19.501
			C28.5,79.649,23.854,75,18,75L18,75z"/>
	</g>
	<g>
		<path fill="#2D2D2D" d="M18,81.501c2.244,0,4.001,1.756,4.001,3.998c0,2.241-1.757,3.996-4.001,3.996
			c-2.242,0-3.999-1.755-3.999-3.996C14.001,83.257,15.758,81.501,18,81.501 M18,80.501c-2.8,0-4.999,2.195-4.999,4.998
			c0,2.798,2.199,4.996,4.999,4.996c2.795,0,5.001-2.195,5.001-4.996C23.001,82.697,20.795,80.501,18,80.501L18,80.501z"/>
	</g>
	<g>
		<path fill="#2D2D2D" d="M18,113c5.327,0,9.5,4.172,9.5,9.498c0,6.148-7.142,15.161-9.5,17.968c-2.357-2.807-9.5-11.818-9.5-17.968
			C8.5,117.172,12.674,113,18,113 M18,112c-5.85,0-10.5,4.647-10.5,10.498C7.5,130.301,18,142,18,142s10.5-11.699,10.5-19.502
			C28.5,116.649,23.854,112,18,112L18,112z"/>
	</g>
	<g>
		<path fill="#2D2D2D" d="M17.999,118.501c2.244,0,4.001,1.756,4.001,3.997c0,2.24-1.758,3.996-4.001,3.996
			c-2.241,0-3.999-1.756-3.999-3.996C14,120.257,15.758,118.501,17.999,118.501 M17.999,117.501c-2.799,0-4.999,2.194-4.999,4.997
			c0,2.799,2.2,4.996,4.999,4.996c2.796,0,5.001-2.195,5.001-4.996C23.001,119.697,20.795,117.501,17.999,117.501L17.999,117.501z"
			/>
	</g>
	<g>
		<path fill="#2D2D2D" d="M18,150c5.327,0,9.5,4.172,9.5,9.497c0,6.149-7.142,15.161-9.5,17.969c-2.357-2.808-9.5-11.818-9.5-17.969
			C8.5,154.172,12.674,150,18,150 M18,149c-5.85,0-10.5,4.647-10.5,10.497C7.5,167.301,18,179,18,179s10.5-11.699,10.5-19.503
			C28.5,153.649,23.854,149,18,149L18,149z"/>
	</g>
	<g>
		<path fill="#2D2D2D" d="M17.999,155.501c2.244,0,4.001,1.756,4.001,3.996c0,2.241-1.758,3.996-4.001,3.996
			c-2.241,0-3.999-1.755-3.999-3.996C14,157.257,15.758,155.501,17.999,155.501 M17.999,154.501c-2.799,0-4.999,2.194-4.999,4.996
			c0,2.8,2.2,4.996,4.999,4.996c2.796,0,5.001-2.194,5.001-4.996C23.001,156.697,20.795,154.501,17.999,154.501L17.999,154.501z"/>
	</g>
	<g>
		<path fill="#2D2D2D" d="M18,186c5.327,0,9.5,4.172,9.5,9.497c0,6.149-7.142,15.161-9.5,17.969c-2.357-2.808-9.5-11.818-9.5-17.969
			C8.5,190.172,12.674,186,18,186 M18,185c-5.85,0-10.5,4.647-10.5,10.497C7.5,203.301,18,215,18,215s10.5-11.699,10.5-19.503
			C28.5,189.649,23.854,185,18,185L18,185z"/>
	</g>
	<g>
		<path fill="#2D2D2D" d="M17.999,191.501c2.244,0,4.001,1.756,4.001,3.996c0,2.241-1.758,3.996-4.001,3.996
			c-2.241,0-3.999-1.755-3.999-3.996C14,193.257,15.758,191.501,17.999,191.501 M17.999,190.501c-2.799,0-4.999,2.194-4.999,4.996
			c0,2.8,2.2,4.996,4.999,4.996c2.796,0,5.001-2.194,5.001-4.996C23.001,192.697,20.795,190.501,17.999,190.501L17.999,190.501z"/>
	</g>
	<g>
		<path fill="#2D2D2D" d="M18,221c5.327,0,9.5,4.172,9.5,9.497c0,6.149-7.142,15.161-9.5,17.969c-2.357-2.808-9.5-11.818-9.5-17.969
			C8.5,225.172,12.674,221,18,221 M18,220c-5.85,0-10.5,4.647-10.5,10.497C7.5,238.301,18,250,18,250s10.5-11.699,10.5-19.503
			C28.5,224.649,23.854,220,18,220L18,220z"/>
	</g>
	<g>
		<path fill="#2D2D2D" d="M17.999,226.501c2.244,0,4.001,1.756,4.001,3.996c0,2.241-1.758,3.996-4.001,3.996
			c-2.241,0-3.999-1.755-3.999-3.996C14,228.257,15.758,226.501,17.999,226.501 M17.999,225.501c-2.799,0-4.999,2.194-4.999,4.996
			c0,2.799,2.2,4.996,4.999,4.996c2.796,0,5.001-2.194,5.001-4.996C23.001,227.697,20.795,225.501,17.999,225.501L17.999,225.501z"
			/>
	</g>
	<g>
		<path fill="#2D2D2D" d="M18,257c5.327,0,9.5,4.172,9.5,9.497c0,6.149-7.142,15.161-9.5,17.969c-2.357-2.808-9.5-11.818-9.5-17.969
			C8.5,261.172,12.674,257,18,257 M18,256c-5.85,0-10.5,4.647-10.5,10.497C7.5,274.301,18,286,18,286s10.5-11.699,10.5-19.503
			C28.5,260.649,23.854,256,18,256L18,256z"/>
	</g>
	<g>
		<path fill="#2D2D2D" d="M17.999,262.501c2.244,0,4.001,1.756,4.001,3.996c0,2.241-1.758,3.996-4.001,3.996
			c-2.241,0-3.999-1.755-3.999-3.996C14,264.257,15.758,262.501,17.999,262.501 M17.999,261.501c-2.799,0-4.999,2.194-4.999,4.996
			c0,2.8,2.2,4.996,4.999,4.996c2.796,0,5.001-2.194,5.001-4.996C23.001,263.697,20.795,261.501,17.999,261.501L17.999,261.501z"/>
	</g>
	<g>
		<path fill="#2D2D2D" d="M18,292c5.327,0,9.5,4.172,9.5,9.497c0,6.149-7.142,15.161-9.5,17.969c-2.357-2.808-9.5-11.818-9.5-17.969
			C8.5,296.172,12.674,292,18,292 M18,291c-5.85,0-10.5,4.647-10.5,10.497C7.5,309.301,18,321,18,321s10.5-11.699,10.5-19.503
			C28.5,295.649,23.854,291,18,291L18,291z"/>
	</g>
	<g>
		<path fill="#2D2D2D" d="M17.999,297.501c2.244,0,4.001,1.756,4.001,3.996c0,2.241-1.758,3.996-4.001,3.996
			c-2.241,0-3.999-1.755-3.999-3.996C14,299.257,15.758,297.501,17.999,297.501 M17.999,296.501c-2.799,0-4.999,2.194-4.999,4.996
			c0,2.8,2.2,4.996,4.999,4.996c2.796,0,5.001-2.194,5.001-4.996C23.001,298.697,20.795,296.501,17.999,296.501L17.999,296.501z"/>
	</g>
	<g>
		<path fill="#2D2D2D" d="M18,328c5.327,0,9.5,4.172,9.5,9.497c0,6.149-7.142,15.161-9.5,17.969c-2.357-2.808-9.5-11.818-9.5-17.969
			C8.5,332.172,12.674,328,18,328 M18,327c-5.85,0-10.5,4.647-10.5,10.497C7.5,345.301,18,357,18,357s10.5-11.699,10.5-19.503
			C28.5,331.649,23.854,327,18,327L18,327z"/>
	</g>
	<g>
		<path fill="#2D2D2D" d="M17.999,333.501c2.244,0,4.001,1.756,4.001,3.996c0,2.241-1.758,3.996-4.001,3.996
			c-2.241,0-3.999-1.755-3.999-3.996C14,335.257,15.758,333.501,17.999,333.501 M17.999,332.501c-2.799,0-4.999,2.194-4.999,4.996
			c0,2.8,2.2,4.996,4.999,4.996c2.796,0,5.001-2.194,5.001-4.996C23.001,334.697,20.795,332.501,17.999,332.501L17.999,332.501z"/>
	</g>
	<g>
		<path fill="#2D2D2D" d="M18,363c5.327,0,9.5,4.172,9.5,9.497c0,6.149-7.142,15.161-9.5,17.969c-2.357-2.808-9.5-11.818-9.5-17.969
			C8.5,367.172,12.674,363,18,363 M18,362c-5.85,0-10.5,4.647-10.5,10.497C7.5,380.301,18,392,18,392s10.5-11.699,10.5-19.503
			C28.5,366.649,23.854,362,18,362L18,362z"/>
	</g>
	<g>
		<path fill="#2D2D2D" d="M17.999,368.5c2.244,0,4.001,1.757,4.001,3.997c0,2.241-1.758,3.996-4.001,3.996
			c-2.241,0-3.999-1.755-3.999-3.996C14,370.257,15.758,368.5,17.999,368.5 M17.999,367.5c-2.799,0-4.999,2.195-4.999,4.997
			c0,2.8,2.2,4.996,4.999,4.996c2.796,0,5.001-2.194,5.001-4.996C23.001,369.697,20.795,367.5,17.999,367.5L17.999,367.5z"/>
	</g>
	<g>
		<path fill="#2D2D2D" d="M18,399c5.327,0,9.5,4.172,9.5,9.497c0,6.149-7.142,15.161-9.5,17.969c-2.357-2.808-9.5-11.818-9.5-17.969
			C8.5,403.172,12.674,399,18,399 M18,398c-5.85,0-10.5,4.647-10.5,10.497C7.5,416.301,18,428,18,428s10.5-11.699,10.5-19.503
			C28.5,402.649,23.854,398,18,398L18,398z"/>
	</g>
	<g>
		<path fill="#2D2D2D" d="M17.999,404.5c2.244,0,4.001,1.757,4.001,3.997c0,2.241-1.758,3.996-4.001,3.996
			c-2.241,0-3.999-1.755-3.999-3.996C14,406.257,15.758,404.5,17.999,404.5 M17.999,403.5c-2.799,0-4.999,2.195-4.999,4.997
			c0,2.8,2.2,4.996,4.999,4.996c2.796,0,5.001-2.194,5.001-4.996C23.001,405.697,20.795,403.5,17.999,403.5L17.999,403.5z"/>
	</g>
</g>
</svg>
