<?xml version="1.0" encoding="utf-8"?>
<!-- Generator: Adobe Illustrator 15.0.0, SVG Export Plug-In . SVG Version: 6.00 Build 0)  -->
<!DOCTYPE svg PUBLIC "-//W3C//DTD SVG 1.1//EN" "http://www.w3.org/Graphics/SVG/1.1/DTD/svg11.dtd" [
	<!ENTITY ns_extend "http://ns.adobe.com/Extensibility/1.0/">
	<!ENTITY ns_ai "http://ns.adobe.com/AdobeIllustrator/10.0/">
	<!ENTITY ns_graphs "http://ns.adobe.com/Graphs/1.0/">
	<!ENTITY ns_vars "http://ns.adobe.com/Variables/1.0/">
	<!ENTITY ns_imrep "http://ns.adobe.com/ImageReplacement/1.0/">
	<!ENTITY ns_sfw "http://ns.adobe.com/SaveForWeb/1.0/">
	<!ENTITY ns_custom "http://ns.adobe.com/GenericCustomNamespace/1.0/">
	<!ENTITY ns_adobe_xpath "http://ns.adobe.com/XPath/1.0/">
]>
<svg version="1.1" xmlns:x="&ns_extend;" xmlns:i="&ns_ai;" xmlns:graph="&ns_graphs;"
	 xmlns="http://www.w3.org/2000/svg" xmlns:xlink="http://www.w3.org/1999/xlink" x="0px" y="0px" width="480px" height="24px"
	 viewBox="0 0 480 24" enable-background="new 0 0 480 24" xml:space="preserve">
<metadata>
	<sfw  xmlns="&ns_sfw;">
		<slices></slices>
		<sliceSourceBounds  height="22.008" width="478" y="545.93" x="384.984" bottomLeftOrigin="true"></sliceSourceBounds>
	</sfw>
</metadata>
<g id="_x30_1">
</g>
<g id="_x30_2">
</g>
<g id="_x30_3_5_">
</g>
<g id="_x30_4">
</g>
<g id="_x30_5">
	<g>
		<circle fill="#FFC10E" cx="12" cy="12" r="11"/>
		<g>
			<path fill="#333333" d="M17.557,17.437c-3.074-3.139-8.089-3.125-11.146,0.033c-0.39,0.402,0.225,1.017,0.614,0.614
				c2.732-2.824,7.166-2.841,9.917-0.033C17.335,18.452,17.949,17.837,17.557,17.437L17.557,17.437z"/>
			<circle fill="#333333" cx="8.656" cy="8.206" r="1.728"/>
			<circle fill="#333333" cx="15.188" cy="8.206" r="1.728"/>
		</g>
		<path fill="#0091E2" d="M16.93,9.755c0,0-1.277,1.572-1.277,3.194c0,0.706,0.571,1.278,1.277,1.278s1.277-0.572,1.277-1.278
			C18.207,12.164,16.93,9.755,16.93,9.755z"/>
	</g>
	<g>
		<path fill="#9C9E9F" d="M36,1.75c5.652,0,10.25,4.598,10.25,10.25S41.652,22.25,36,22.25S25.75,17.652,25.75,12
			S30.348,1.75,36,1.75 M36,1c-6.075,0-11,4.925-11,11s4.925,11,11,11s11-4.925,11-11S42.075,1,36,1L36,1z"/>
		<g>
			<path fill="#9C9E9F" d="M41.557,17.437c-3.074-3.139-8.089-3.125-11.146,0.033c-0.39,0.402,0.225,1.017,0.614,0.614
				c2.732-2.824,7.166-2.841,9.917-0.033C41.335,18.452,41.949,17.837,41.557,17.437L41.557,17.437z"/>
			<circle fill="#9C9E9F" cx="32.656" cy="8.206" r="1.728"/>
			<circle fill="#9C9E9F" cx="39.188" cy="8.206" r="1.728"/>
		</g>
		<path fill="#9C9E9F" d="M40.93,9.755c0,0-1.277,1.572-1.277,3.194c0,0.706,0.571,1.278,1.277,1.278s1.277-0.572,1.277-1.278
			C42.207,12.164,40.93,9.755,40.93,9.755z"/>
	</g>
	<g>
		<circle fill="#FFC10E" cx="60" cy="12" r="11"/>
		<g>
			<path fill="#333333" d="M65.557,17.437c-3.074-3.139-8.089-3.125-11.146,0.033c-0.39,0.402,0.225,1.017,0.614,0.614
				c2.732-2.824,7.166-2.841,9.917-0.033C65.335,18.452,65.949,17.837,65.557,17.437L65.557,17.437z"/>
			<circle fill="#333333" cx="56.656" cy="8.206" r="1.728"/>
			<circle fill="#333333" cx="63.188" cy="8.206" r="1.728"/>
		</g>
		<path fill="#0091E2" d="M64.93,9.755c0,0-1.277,1.572-1.277,3.194c0,0.706,0.571,1.278,1.277,1.278s1.277-0.572,1.277-1.278
			C66.207,12.164,64.93,9.755,64.93,9.755z"/>
	</g>
	<circle opacity="0.2" cx="84" cy="12" r="11"/>
	<path opacity="0.2" d="M89.557,17.437c-3.074-3.139-8.089-3.125-11.146,0.033c-0.39,0.402,0.225,1.017,0.614,0.614
		c2.732-2.824,7.166-2.841,9.917-0.033C89.335,18.452,89.949,17.837,89.557,17.437L89.557,17.437z"/>
	<circle opacity="0.2" cx="80.656" cy="8.206" r="1.728"/>
	<circle opacity="0.2" cx="87.188" cy="8.206" r="1.728"/>
	<path opacity="0.2" d="M88.93,9.755c0,0-1.277,1.572-1.277,3.194c0,0.706,0.571,1.278,1.277,1.278s1.277-0.572,1.277-1.278
		C90.207,12.164,88.93,9.755,88.93,9.755z"/>
	<g>
		<circle fill="#FFC10E" cx="108" cy="12" r="11"/>
		<g>
			<path fill="#333333" d="M113.557,17.437c-3.074-3.139-8.089-3.125-11.146,0.033c-0.39,0.402,0.225,1.017,0.614,0.614
				c2.732-2.824,7.166-2.841,9.917-0.033C113.335,18.452,113.949,17.837,113.557,17.437L113.557,17.437z"/>
			<circle fill="#333333" cx="104.656" cy="8.206" r="1.728"/>
			<circle fill="#333333" cx="111.188" cy="8.206" r="1.728"/>
		</g>
	</g>
	<g>
		<path fill="#9C9E9F" d="M132,1.75c5.652,0,10.25,4.598,10.25,10.25S137.652,22.25,132,22.25S121.75,17.652,121.75,12
			S126.348,1.75,132,1.75 M132,1c-6.075,0-11,4.925-11,11s4.925,11,11,11s11-4.925,11-11S138.075,1,132,1L132,1z"/>
		<g>
			<path fill="#9C9E9F" d="M137.557,17.437c-3.074-3.139-8.089-3.125-11.146,0.033c-0.39,0.402,0.225,1.017,0.614,0.614
				c2.732-2.824,7.166-2.841,9.917-0.033C137.335,18.452,137.949,17.837,137.557,17.437L137.557,17.437z"/>
			<circle fill="#9C9E9F" cx="128.656" cy="8.206" r="1.728"/>
			<circle fill="#9C9E9F" cx="135.188" cy="8.206" r="1.728"/>
		</g>
	</g>
	<g>
		<circle fill="#FFC10E" cx="156" cy="12" r="11"/>
		<g>
			<path fill="#333333" d="M161.557,17.437c-3.074-3.139-8.089-3.125-11.146,0.033c-0.39,0.402,0.225,1.017,0.614,0.614
				c2.732-2.824,7.166-2.841,9.917-0.033C161.335,18.452,161.949,17.837,161.557,17.437L161.557,17.437z"/>
			<circle fill="#333333" cx="152.656" cy="8.206" r="1.728"/>
			<circle fill="#333333" cx="159.188" cy="8.206" r="1.728"/>
		</g>
	</g>
	<circle opacity="0.2" cx="180" cy="12" r="11"/>
	<path opacity="0.2" d="M185.557,17.437c-3.074-3.139-8.089-3.125-11.146,0.033c-0.39,0.402,0.225,1.017,0.614,0.614
		c2.732-2.824,7.166-2.841,9.917-0.033C185.335,18.452,185.949,17.837,185.557,17.437L185.557,17.437z"/>
	<circle opacity="0.2" cx="176.656" cy="8.206" r="1.728"/>
	<circle opacity="0.2" cx="183.188" cy="8.206" r="1.728"/>
	<g>
		<path fill="#9C9E9F" d="M227.98,1.742c5.652,0,10.25,4.598,10.25,10.25s-4.598,10.25-10.25,10.25s-10.25-4.598-10.25-10.25
			S222.328,1.742,227.98,1.742 M227.98,0.992c-6.075,0-11,4.925-11,11s4.925,11,11,11s11-4.925,11-11S234.056,0.992,227.98,0.992
			L227.98,0.992z"/>
		<g>
			<circle fill="#9C9E9F" cx="231.324" cy="8.198" r="1.728"/>
			<circle fill="#9C9E9F" cx="224.791" cy="8.198" r="1.728"/>
			<path fill="#9C9E9F" d="M234.094,16.152c0.56,0,0.56-0.869,0-0.869c-4.01,0-8.021,0-12.03,0c-0.561,0-0.561,0.869,0,0.869
				C226.073,16.152,230.084,16.152,234.094,16.152L234.094,16.152z"/>
		</g>
	</g>
	<g>
		<circle fill="#FFC10E" cx="204.001" cy="11.992" r="11"/>
		<g>
			<circle fill="#333333" cx="207.345" cy="8.198" r="1.728"/>
			<circle fill="#333333" cx="200.812" cy="8.198" r="1.728"/>
			<path fill="#333333" d="M210.114,16.152c0.56,0,0.56-0.869,0-0.869c-4.01,0-8.021,0-12.03,0c-0.561,0-0.561,0.869,0,0.869
				C202.094,16.152,206.104,16.152,210.114,16.152L210.114,16.152z"/>
		</g>
	</g>
	<g>
		<circle fill="#FFC10E" cx="251.979" cy="11.992" r="11"/>
		<g>
			<circle fill="#333333" cx="248.636" cy="8.198" r="1.728"/>
			<circle fill="#333333" cx="255.168" cy="8.198" r="1.728"/>
			<path fill="#333333" d="M245.866,16.152c4.01,0,8.021,0,12.03,0c0.561,0,0.561-0.869,0-0.869c-4.01,0-8.021,0-12.03,0
				C245.307,15.283,245.307,16.152,245.866,16.152L245.866,16.152z"/>
		</g>
	</g>
	<circle opacity="0.2" cx="276" cy="11.992" r="11"/>
	<circle opacity="0.2" cx="272.656" cy="8.198" r="1.728"/>
	<circle opacity="0.2" cx="279.188" cy="8.198" r="1.728"/>
	<path opacity="0.2" d="M269.887,16.152c4.01,0,8.021,0,12.03,0c0.561,0,0.561-0.869,0-0.869c-4.01,0-8.021,0-12.03,0
		C269.327,15.283,269.327,16.152,269.887,16.152L269.887,16.152z"/>
	<g>
		<circle fill="#FFC10E" cx="300.002" cy="12" r="11"/>
		<g>
			<path fill="#333333" d="M306.789,12.007c-0.063,3.746-3.042,6.725-6.788,6.787c-3.746,0.062-6.727-3.134-6.786-6.787
				c-0.01-0.56-0.878-0.561-0.869,0c0.07,4.221,3.435,7.586,7.655,7.655s7.588-3.54,7.656-7.655
				C307.666,11.447,306.798,11.448,306.789,12.007L306.789,12.007z"/>
			<circle fill="#333333" cx="296.658" cy="8.206" r="1.728"/>
			<circle fill="#333333" cx="303.19" cy="8.206" r="1.728"/>
		</g>
	</g>
	<g>
		<path fill="#9C9E9F" d="M324.002,1.75c5.652,0,10.25,4.598,10.25,10.25s-4.598,10.25-10.25,10.25s-10.25-4.598-10.25-10.25
			S318.35,1.75,324.002,1.75 M324.002,1c-6.075,0-11,4.925-11,11s4.925,11,11,11s11-4.925,11-11S330.077,1,324.002,1L324.002,1z"/>
		<g>
			<path fill="#9C9E9F" d="M330.789,12.007c-0.063,3.746-3.042,6.725-6.788,6.787c-3.746,0.062-6.727-3.134-6.786-6.787
				c-0.01-0.56-0.878-0.561-0.869,0c0.07,4.221,3.435,7.586,7.655,7.655s7.588-3.54,7.656-7.655
				C331.666,11.447,330.798,11.448,330.789,12.007L330.789,12.007z"/>
			<circle fill="#9C9E9F" cx="320.658" cy="8.206" r="1.728"/>
			<circle fill="#9C9E9F" cx="327.19" cy="8.206" r="1.728"/>
		</g>
	</g>
	<g>
		<circle fill="#FFC10E" cx="348.002" cy="12" r="11"/>
		<g>
			<path fill="#333333" d="M354.789,12.007c-0.063,3.746-3.042,6.725-6.788,6.787c-3.746,0.062-6.727-3.134-6.786-6.787
				c-0.01-0.56-0.878-0.561-0.869,0c0.07,4.221,3.435,7.586,7.655,7.655s7.588-3.54,7.656-7.655
				C355.666,11.447,354.798,11.448,354.789,12.007L354.789,12.007z"/>
			<circle fill="#333333" cx="344.658" cy="8.206" r="1.728"/>
			<circle fill="#333333" cx="351.19" cy="8.206" r="1.728"/>
		</g>
	</g>
	<circle opacity="0.2" cx="372.002" cy="12" r="11"/>
	<path opacity="0.2" d="M378.789,12.007c-0.063,3.746-3.042,6.725-6.788,6.787c-3.746,0.062-6.727-3.134-6.786-6.787
		c-0.01-0.56-0.878-0.561-0.869,0c0.07,4.221,3.435,7.586,7.655,7.655s7.588-3.54,7.656-7.655
		C379.666,11.447,378.798,11.448,378.789,12.007L378.789,12.007z"/>
	<circle opacity="0.2" cx="368.658" cy="8.206" r="1.728"/>
	<circle opacity="0.2" cx="375.19" cy="8.206" r="1.728"/>
	<g>
		<circle fill="#FFC10E" cx="396" cy="12" r="11"/>
		<path fill="#FFFFFF" d="M403.221,12.007c0,3.988-3.233,7.221-7.222,7.221c-3.987,0-7.221-3.233-7.221-7.221H403.221
			L403.221,12.007z"/>
		<g>
			<circle fill="#333333" cx="392.656" cy="8.206" r="1.728"/>
			<circle fill="#333333" cx="399.188" cy="8.206" r="1.728"/>
		</g>
	</g>
	<g>
		<path fill="#9C9E9F" d="M420,1.75c5.652,0,10.25,4.598,10.25,10.25S425.652,22.25,420,22.25S409.75,17.652,409.75,12
			S414.348,1.75,420,1.75 M420,1c-6.075,0-11,4.925-11,11s4.925,11,11,11s11-4.925,11-11S426.075,1,420,1L420,1z"/>
		<path fill="#9C9E9F" d="M427.221,12.007c0,3.988-3.233,7.221-7.222,7.221c-3.987,0-7.221-3.233-7.221-7.221H427.221
			L427.221,12.007z"/>
		<g>
			<circle fill="#9C9E9F" cx="416.656" cy="8.206" r="1.728"/>
			<circle fill="#9C9E9F" cx="423.188" cy="8.206" r="1.728"/>
		</g>
	</g>
	<g>
		<circle fill="#FFC10E" cx="444" cy="12" r="11"/>
		<path fill="#FFFFFF" d="M451.221,12.007c0,3.988-3.233,7.221-7.222,7.221c-3.987,0-7.221-3.233-7.221-7.221H451.221
			L451.221,12.007z"/>
		<g>
			<circle fill="#333333" cx="440.656" cy="8.206" r="1.728"/>
			<circle fill="#333333" cx="447.188" cy="8.206" r="1.728"/>
		</g>
	</g>
	<circle opacity="0.2" cx="468" cy="12" r="11"/>
	<path opacity="0.2" d="M475.221,12.007c0,3.988-3.233,7.221-7.222,7.221c-3.987,0-7.221-3.233-7.221-7.221H475.221L475.221,12.007z
		"/>
	<circle opacity="0.2" cx="464.656" cy="8.206" r="1.728"/>
	<circle opacity="0.2" cx="471.188" cy="8.206" r="1.728"/>
</g>
</svg>
